<svg width="1305" height="244" xmlns="http://www.w3.org/2000/svg" xmlns:xlink="http://www.w3.org/1999/xlink" xml:space="preserve" overflow="hidden"><defs><clipPath id="clip0"><rect x="377" y="338" width="1305" height="244"/></clipPath><clipPath id="clip1"><rect x="1291" y="172" width="386" height="424"/></clipPath><clipPath id="clip2"><rect x="379" y="172" width="913" height="424"/></clipPath><clipPath id="clip3"><rect x="1291" y="239" width="386" height="424"/></clipPath><clipPath id="clip4"><rect x="379" y="239" width="913" height="424"/></clipPath><clipPath id="clip5"><rect x="379" y="239" width="913" height="424"/></clipPath><clipPath id="clip6"><rect x="1291" y="308" width="386" height="424"/></clipPath><clipPath id="clip7"><rect x="379" y="308" width="913" height="424"/></clipPath><clipPath id="clip8"><rect x="379" y="308" width="913" height="424"/></clipPath></defs><g clip-path="url(#clip0)" transform="translate(-377 -338)"><path d="M379.762 347.548 1291.84 347.548 1291.84 414.464 379.762 414.464Z" fill="#E9EBF5" fill-rule="evenodd"/><path d="M1291.84 347.548 1676.84 347.548 1676.84 414.464 1291.84 414.464Z" fill="#E9EBF5" fill-rule="evenodd"/><path d="M379.762 414.464 1291.84 414.464 1291.84 481.381 379.762 481.381Z" fill="#E9EBF5" fill-rule="evenodd"/><path d="M1291.84 414.464 1676.84 414.464 1676.84 481.381 1291.84 481.381Z" fill="#E9EBF5" fill-rule="evenodd"/><path d="M379.762 481.381 1291.84 481.381 1291.84 550.131 379.762 550.131Z" fill="#E9EBF5" fill-rule="evenodd"/><path d="M1291.84 481.381 1676.84 481.381 1676.84 550.131 1291.84 550.131Z" fill="#E9EBF5" fill-rule="evenodd"/><path d="M1291.84 345.256 1291.84 552.423" stroke="#FFFFFF" stroke-width="4.58333" stroke-linejoin="round" stroke-miterlimit="10" fill="none" fill-rule="evenodd"/><path d="M377.47 414.464 1679.14 414.464" stroke="#FFFFFF" stroke-width="4.58333" stroke-linejoin="round" stroke-miterlimit="10" fill="none" fill-rule="evenodd"/><path d="M377.47 481.381 1679.14 481.381" stroke="#FFFFFF" stroke-width="4.58333" stroke-linejoin="round" stroke-miterlimit="10" fill="none" fill-rule="evenodd"/><path d="M379.762 345.256 379.762 552.423" stroke="#FFFFFF" stroke-width="4.58333" stroke-linejoin="round" stroke-miterlimit="10" fill="none" fill-rule="evenodd"/><path d="M1676.84 345.256 1676.84 552.423" stroke="#FFFFFF" stroke-width="4.58333" stroke-linejoin="round" stroke-miterlimit="10" fill="none" fill-rule="evenodd"/><path d="M377.47 347.548 1679.14 347.548" stroke="#FFFFFF" stroke-width="4.58333" stroke-linejoin="round" stroke-miterlimit="10" fill="none" fill-rule="evenodd"/><path d="M377.47 550.131 1679.14 550.131" stroke="#FFFFFF" stroke-width="4.58333" stroke-linejoin="round" stroke-miterlimit="10" fill="none" fill-rule="evenodd"/><g clip-path="url(#clip1)"><text font-family="Calibri,Calibri_MSFontService,sans-serif" font-weight="700" font-size="50" transform="matrix(1 0 0 1 1293.81 401)">description</text></g><g clip-path="url(#clip2)"><text font-family="Calibri,Calibri_MSFontService,sans-serif" font-weight="700" font-size="50" transform="matrix(1 0 0 1 381.726 401)">id</text></g><g clip-path="url(#clip3)"><text font-family="Calibri,Calibri_MSFontService,sans-serif" font-weight="400" font-size="50" transform="matrix(1 0 0 1 1293.81 468)">A red apple</text></g><g clip-path="url(#clip4)"><text font-family="Calibri,Calibri_MSFontService,sans-serif" font-weight="400" font-size="50" transform="matrix(1 0 0 1 381.726 468)">11111111</text></g><text font-family="Calibri,Calibri_MSFontService,sans-serif" font-weight="400" font-size="50" transform="matrix(1 0 0 1 587.976 468)">-</text><text font-family="Calibri,Calibri_MSFontService,sans-serif" font-weight="400" font-size="50" transform="matrix(1 0 0 1 603.445 468)">1111</text><text font-family="Calibri,Calibri_MSFontService,sans-serif" font-weight="400" font-size="50" transform="matrix(1 0 0 1 706.57 468)">-</text><text font-family="Calibri,Calibri_MSFontService,sans-serif" font-weight="400" font-size="50" transform="matrix(1 0 0 1 722.038 468)">1111</text><text font-family="Calibri,Calibri_MSFontService,sans-serif" font-weight="400" font-size="50" transform="matrix(1 0 0 1 825.163 468)">-</text><text font-family="Calibri,Calibri_MSFontService,sans-serif" font-weight="400" font-size="50" transform="matrix(1 0 0 1 840.632 468)">1111</text><text font-family="Calibri,Calibri_MSFontService,sans-serif" font-weight="400" font-size="50" transform="matrix(1 0 0 1 943.757 468)">-</text><g clip-path="url(#clip5)"><text font-family="Calibri,Calibri_MSFontService,sans-serif" font-weight="400" font-size="50" transform="matrix(1 0 0 1 959.226 468)">111111111111</text></g><g clip-path="url(#clip6)"><text font-family="Calibri,Calibri_MSFontService,sans-serif" font-weight="400" font-size="50" transform="matrix(1 0 0 1 1293.81 537)">A geen door</text></g><g clip-path="url(#clip7)"><text font-family="Calibri,Calibri_MSFontService,sans-serif" font-weight="400" font-size="50" transform="matrix(1 0 0 1 381.726 537)">22222222</text></g><text font-family="Calibri,Calibri_MSFontService,sans-serif" font-weight="400" font-size="50" transform="matrix(1 0 0 1 587.976 537)">-</text><text font-family="Calibri,Calibri_MSFontService,sans-serif" font-weight="400" font-size="50" transform="matrix(1 0 0 1 603.445 537)">2222</text><text font-family="Calibri,Calibri_MSFontService,sans-serif" font-weight="400" font-size="50" transform="matrix(1 0 0 1 706.57 537)">-</text><text font-family="Calibri,Calibri_MSFontService,sans-serif" font-weight="400" font-size="50" transform="matrix(1 0 0 1 722.038 537)">2222</text><text font-family="Calibri,Calibri_MSFontService,sans-serif" font-weight="400" font-size="50" transform="matrix(1 0 0 1 825.163 537)">-</text><text font-family="Calibri,Calibri_MSFontService,sans-serif" font-weight="400" font-size="50" transform="matrix(1 0 0 1 840.632 537)">2222</text><text font-family="Calibri,Calibri_MSFontService,sans-serif" font-weight="400" font-size="50" transform="matrix(1 0 0 1 943.757 537)">-</text><g clip-path="url(#clip8)"><text font-family="Calibri,Calibri_MSFontService,sans-serif" font-weight="400" font-size="50" transform="matrix(1 0 0 1 959.226 537)">222222222222</text></g></g></svg>