<svg width="1305" height="243" xmlns="http://www.w3.org/2000/svg" xmlns:xlink="http://www.w3.org/1999/xlink" xml:space="preserve" overflow="hidden"><defs><clipPath id="clip0"><rect x="377" y="105" width="1305" height="243"/></clipPath><clipPath id="clip1"><rect x="1291" y="-61" width="386" height="424"/></clipPath><clipPath id="clip2"><rect x="379" y="-61" width="913" height="424"/></clipPath><clipPath id="clip3"><rect x="1291" y="6" width="386" height="424"/></clipPath><clipPath id="clip4"><rect x="379" y="6" width="913" height="424"/></clipPath><clipPath id="clip5"><rect x="379" y="6" width="913" height="424"/></clipPath><clipPath id="clip6"><rect x="1291" y="74" width="386" height="425"/></clipPath><clipPath id="clip7"><rect x="379" y="74" width="913" height="425"/></clipPath><clipPath id="clip8"><rect x="379" y="74" width="913" height="425"/></clipPath></defs><g clip-path="url(#clip0)" transform="translate(-377 -105)"><path d="M379.762 114.256 1291.84 114.256 1291.84 181.173 379.762 181.173Z" fill="#E9EBF5" fill-rule="evenodd"/><path d="M1291.84 114.256 1676.84 114.256 1676.84 181.173 1291.84 181.173Z" fill="#E9EBF5" fill-rule="evenodd"/><path d="M379.762 181.173 1291.84 181.173 1291.84 248.089 379.762 248.089Z" fill="#E9EBF5" fill-rule="evenodd"/><path d="M1291.84 181.173 1676.84 181.173 1676.84 248.089 1291.84 248.089Z" fill="#E9EBF5" fill-rule="evenodd"/><path d="M379.762 248.089 1291.84 248.089 1291.84 316.839 379.762 316.839Z" fill="#E9EBF5" fill-rule="evenodd"/><path d="M1291.84 248.089 1676.84 248.089 1676.84 316.839 1291.84 316.839Z" fill="#E9EBF5" fill-rule="evenodd"/><path d="M1291.84 111.964 1291.84 319.131" stroke="#FFFFFF" stroke-width="4.58333" stroke-linejoin="round" stroke-miterlimit="10" fill="none" fill-rule="evenodd"/><path d="M377.47 181.173 1679.14 181.173" stroke="#FFFFFF" stroke-width="4.58333" stroke-linejoin="round" stroke-miterlimit="10" fill="none" fill-rule="evenodd"/><path d="M377.47 248.089 1679.14 248.089" stroke="#FFFFFF" stroke-width="4.58333" stroke-linejoin="round" stroke-miterlimit="10" fill="none" fill-rule="evenodd"/><path d="M379.762 111.964 379.762 319.131" stroke="#FFFFFF" stroke-width="4.58333" stroke-linejoin="round" stroke-miterlimit="10" fill="none" fill-rule="evenodd"/><path d="M1676.84 111.964 1676.84 319.131" stroke="#FFFFFF" stroke-width="4.58333" stroke-linejoin="round" stroke-miterlimit="10" fill="none" fill-rule="evenodd"/><path d="M377.47 114.256 1679.14 114.256" stroke="#FFFFFF" stroke-width="4.58333" stroke-linejoin="round" stroke-miterlimit="10" fill="none" fill-rule="evenodd"/><path d="M377.47 316.839 1679.14 316.839" stroke="#FFFFFF" stroke-width="4.58333" stroke-linejoin="round" stroke-miterlimit="10" fill="none" fill-rule="evenodd"/><g clip-path="url(#clip1)"><text font-family="Calibri,Calibri_MSFontService,sans-serif" font-weight="700" font-size="50" transform="matrix(1 0 0 1 1293.81 168)">description</text></g><g clip-path="url(#clip2)"><text font-family="Calibri,Calibri_MSFontService,sans-serif" font-weight="700" font-size="50" transform="matrix(1 0 0 1 381.726 168)">id</text></g><g clip-path="url(#clip3)"><text font-family="Calibri,Calibri_MSFontService,sans-serif" font-weight="400" font-size="50" transform="matrix(1 0 0 1 1293.81 235)">A blue telephone</text></g><g clip-path="url(#clip4)"><text font-family="Calibri,Calibri_MSFontService,sans-serif" font-weight="400" font-size="50" transform="matrix(1 0 0 1 381.726 235)">00000000</text></g><text font-family="Calibri,Calibri_MSFontService,sans-serif" font-weight="400" font-size="50" transform="matrix(1 0 0 1 587.976 235)">-</text><text font-family="Calibri,Calibri_MSFontService,sans-serif" font-weight="400" font-size="50" transform="matrix(1 0 0 1 603.445 235)">0000</text><text font-family="Calibri,Calibri_MSFontService,sans-serif" font-weight="400" font-size="50" transform="matrix(1 0 0 1 706.57 235)">-</text><text font-family="Calibri,Calibri_MSFontService,sans-serif" font-weight="400" font-size="50" transform="matrix(1 0 0 1 722.038 235)">0000</text><text font-family="Calibri,Calibri_MSFontService,sans-serif" font-weight="400" font-size="50" transform="matrix(1 0 0 1 825.163 235)">-</text><text font-family="Calibri,Calibri_MSFontService,sans-serif" font-weight="400" font-size="50" transform="matrix(1 0 0 1 840.632 235)">0000</text><text font-family="Calibri,Calibri_MSFontService,sans-serif" font-weight="400" font-size="50" transform="matrix(1 0 0 1 943.757 235)">-</text><g clip-path="url(#clip5)"><text font-family="Calibri,Calibri_MSFontService,sans-serif" font-weight="400" font-size="50" transform="matrix(1 0 0 1 959.226 235)">000000000000</text></g><g clip-path="url(#clip6)"><text font-family="Calibri,Calibri_MSFontService,sans-serif" font-weight="400" font-size="50" transform="matrix(1 0 0 1 1293.81 303)">A red </text></g><text font-family="Calibri,Calibri_MSFontService,sans-serif" font-weight="400" font-size="50" transform="matrix(1 0 0 1 1415.27 303)">apple</text><g clip-path="url(#clip7)"><text font-family="Calibri,Calibri_MSFontService,sans-serif" font-weight="400" font-size="50" transform="matrix(1 0 0 1 381.726 303)">11111111</text></g><text font-family="Calibri,Calibri_MSFontService,sans-serif" font-weight="400" font-size="50" transform="matrix(1 0 0 1 587.976 303)">-</text><text font-family="Calibri,Calibri_MSFontService,sans-serif" font-weight="400" font-size="50" transform="matrix(1 0 0 1 603.445 303)">1111</text><text font-family="Calibri,Calibri_MSFontService,sans-serif" font-weight="400" font-size="50" transform="matrix(1 0 0 1 706.57 303)">-</text><text font-family="Calibri,Calibri_MSFontService,sans-serif" font-weight="400" font-size="50" transform="matrix(1 0 0 1 722.038 303)">1111</text><text font-family="Calibri,Calibri_MSFontService,sans-serif" font-weight="400" font-size="50" transform="matrix(1 0 0 1 825.163 303)">-</text><text font-family="Calibri,Calibri_MSFontService,sans-serif" font-weight="400" font-size="50" transform="matrix(1 0 0 1 840.632 303)">1111</text><text font-family="Calibri,Calibri_MSFontService,sans-serif" font-weight="400" font-size="50" transform="matrix(1 0 0 1 943.757 303)">-</text><g clip-path="url(#clip8)"><text font-family="Calibri,Calibri_MSFontService,sans-serif" font-weight="400" font-size="50" transform="matrix(1 0 0 1 959.226 303)">111111111111</text></g></g></svg>