<svg width="2652" height="243" xmlns="http://www.w3.org/2000/svg" xmlns:xlink="http://www.w3.org/1999/xlink" xml:space="preserve" overflow="hidden"><defs><clipPath id="clip0"><rect x="377" y="1036" width="2652" height="243"/></clipPath><clipPath id="clip1"><rect x="2639" y="870" width="386" height="424"/></clipPath><clipPath id="clip2"><rect x="1727" y="870" width="913" height="424"/></clipPath><clipPath id="clip3"><rect x="815" y="870" width="913" height="424"/></clipPath><clipPath id="clip4"><rect x="379" y="870" width="437" height="424"/></clipPath><clipPath id="clip5"><rect x="2639" y="937" width="386" height="424"/></clipPath><clipPath id="clip6"><rect x="1727" y="937" width="913" height="424"/></clipPath><clipPath id="clip7"><rect x="1727" y="937" width="913" height="424"/></clipPath><clipPath id="clip8"><rect x="815" y="937" width="913" height="424"/></clipPath><clipPath id="clip9"><rect x="379" y="937" width="437" height="424"/></clipPath><clipPath id="clip10"><rect x="2639" y="1005" width="386" height="425"/></clipPath><clipPath id="clip11"><rect x="1727" y="1005" width="913" height="425"/></clipPath><clipPath id="clip12"><rect x="1727" y="1005" width="913" height="425"/></clipPath><clipPath id="clip13"><rect x="815" y="1005" width="913" height="425"/></clipPath><clipPath id="clip14"><rect x="379" y="1005" width="437" height="425"/></clipPath></defs><g clip-path="url(#clip0)" transform="translate(-377 -1036)"><path d="M379.762 1045.33 815.178 1045.33 815.178 1112.24 379.762 1112.24Z" fill="#E9EBF5" fill-rule="evenodd"/><path d="M815.178 1045.33 1727.26 1045.33 1727.26 1112.24 815.178 1112.24Z" fill="#E9EBF5" fill-rule="evenodd"/><path d="M1727.26 1045.33 2639.34 1045.33 2639.34 1112.24 1727.26 1112.24Z" fill="#E9EBF5" fill-rule="evenodd"/><path d="M2639.34 1045.33 3024.34 1045.33 3024.34 1112.24 2639.34 1112.24Z" fill="#E9EBF5" fill-rule="evenodd"/><path d="M379.762 1112.24 815.178 1112.24 815.178 1179.16 379.762 1179.16Z" fill="#E9EBF5" fill-rule="evenodd"/><path d="M815.178 1112.24 1727.26 1112.24 1727.26 1179.16 815.178 1179.16Z" fill="#E9EBF5" fill-rule="evenodd"/><path d="M1727.26 1112.24 2639.34 1112.24 2639.34 1179.16 1727.26 1179.16Z" fill="#E9EBF5" fill-rule="evenodd"/><path d="M2639.34 1112.24 3024.34 1112.24 3024.34 1179.16 2639.34 1179.16Z" fill="#E9EBF5" fill-rule="evenodd"/><path d="M379.762 1179.16 815.178 1179.16 815.178 1247.91 379.762 1247.91Z" fill="#E9EBF5" fill-rule="evenodd"/><path d="M815.178 1179.16 1727.26 1179.16 1727.26 1247.91 815.178 1247.91Z" fill="#E9EBF5" fill-rule="evenodd"/><path d="M1727.26 1179.16 2639.34 1179.16 2639.34 1247.91 1727.26 1247.91Z" fill="#E9EBF5" fill-rule="evenodd"/><path d="M2639.34 1179.16 3024.34 1179.16 3024.34 1247.91 2639.34 1247.91Z" fill="#E9EBF5" fill-rule="evenodd"/><path d="M815.178 1043.04 815.178 1250.2" stroke="#FFFFFF" stroke-width="4.58333" stroke-linejoin="round" stroke-miterlimit="10" fill="none" fill-rule="evenodd"/><path d="M1727.26 1043.04 1727.26 1250.2" stroke="#FFFFFF" stroke-width="4.58333" stroke-linejoin="round" stroke-miterlimit="10" fill="none" fill-rule="evenodd"/><path d="M2639.34 1043.04 2639.34 1250.2" stroke="#FFFFFF" stroke-width="4.58333" stroke-linejoin="round" stroke-miterlimit="10" fill="none" fill-rule="evenodd"/><path d="M377.47 1112.24 3026.64 1112.24" stroke="#FFFFFF" stroke-width="4.58333" stroke-linejoin="round" stroke-miterlimit="10" fill="none" fill-rule="evenodd"/><path d="M377.47 1179.16 3026.64 1179.16" stroke="#FFFFFF" stroke-width="4.58333" stroke-linejoin="round" stroke-miterlimit="10" fill="none" fill-rule="evenodd"/><path d="M379.762 1043.04 379.762 1250.2" stroke="#FFFFFF" stroke-width="4.58333" stroke-linejoin="round" stroke-miterlimit="10" fill="none" fill-rule="evenodd"/><path d="M3024.34 1043.04 3024.34 1250.2" stroke="#FFFFFF" stroke-width="4.58333" stroke-linejoin="round" stroke-miterlimit="10" fill="none" fill-rule="evenodd"/><path d="M377.47 1045.33 3026.64 1045.33" stroke="#FFFFFF" stroke-width="4.58333" stroke-linejoin="round" stroke-miterlimit="10" fill="none" fill-rule="evenodd"/><path d="M377.47 1247.91 3026.64 1247.91" stroke="#FFFFFF" stroke-width="4.58333" stroke-linejoin="round" stroke-miterlimit="10" fill="none" fill-rule="evenodd"/><g clip-path="url(#clip1)"><text font-family="Calibri,Calibri_MSFontService,sans-serif" font-weight="700" font-size="50" transform="matrix(1 0 0 1 2641.31 1099)">description</text></g><g clip-path="url(#clip2)"><text font-family="Calibri,Calibri_MSFontService,sans-serif" font-weight="700" font-size="50" transform="matrix(1 0 0 1 1729.23 1099)">id</text></g><g clip-path="url(#clip3)"><text font-family="Calibri,Calibri_MSFontService,sans-serif" font-weight="700" font-size="50" transform="matrix(1 0 0 1 817.143 1099)">hda_runId</text></g><g clip-path="url(#clip4)"><text font-family="Calibri,Calibri_MSFontService,sans-serif" font-weight="700" font-size="50" transform="matrix(1 0 0 1 381.726 1099)">hda_validFrom_utc</text></g><g clip-path="url(#clip5)"><text font-family="Calibri,Calibri_MSFontService,sans-serif" font-weight="400" font-size="50" transform="matrix(1 0 0 1 2641.31 1166)">A blue telephone</text></g><g clip-path="url(#clip6)"><text font-family="Calibri,Calibri_MSFontService,sans-serif" font-weight="400" font-size="50" transform="matrix(1 0 0 1 1729.23 1166)">00000000</text></g><text font-family="Calibri,Calibri_MSFontService,sans-serif" font-weight="400" font-size="50" transform="matrix(1 0 0 1 1935.48 1166)">-</text><text font-family="Calibri,Calibri_MSFontService,sans-serif" font-weight="400" font-size="50" transform="matrix(1 0 0 1 1950.94 1166)">0000</text><text font-family="Calibri,Calibri_MSFontService,sans-serif" font-weight="400" font-size="50" transform="matrix(1 0 0 1 2054.07 1166)">-</text><text font-family="Calibri,Calibri_MSFontService,sans-serif" font-weight="400" font-size="50" transform="matrix(1 0 0 1 2069.54 1166)">0000</text><text font-family="Calibri,Calibri_MSFontService,sans-serif" font-weight="400" font-size="50" transform="matrix(1 0 0 1 2172.66 1166)">-</text><text font-family="Calibri,Calibri_MSFontService,sans-serif" font-weight="400" font-size="50" transform="matrix(1 0 0 1 2188.13 1166)">0000</text><text font-family="Calibri,Calibri_MSFontService,sans-serif" font-weight="400" font-size="50" transform="matrix(1 0 0 1 2291.26 1166)">-</text><g clip-path="url(#clip7)"><text font-family="Calibri,Calibri_MSFontService,sans-serif" font-weight="400" font-size="50" transform="matrix(1 0 0 1 2306.73 1166)">000000000000</text></g><g clip-path="url(#clip8)"><text font-family="Calibri,Calibri_MSFontService,sans-serif" font-weight="400" font-size="50" transform="matrix(1 0 0 1 817.143 1166)">eeeeeeee</text></g><text font-family="Calibri,Calibri_MSFontService,sans-serif" font-weight="400" font-size="50" transform="matrix(1 0 0 1 1018.81 1166)">-</text><text font-family="Calibri,Calibri_MSFontService,sans-serif" font-weight="400" font-size="50" transform="matrix(1 0 0 1 1034.28 1166)">eeee</text><text font-family="Calibri,Calibri_MSFontService,sans-serif" font-weight="400" font-size="50" transform="matrix(1 0 0 1 1135.11 1166)">-</text><text font-family="Calibri,Calibri_MSFontService,sans-serif" font-weight="400" font-size="50" transform="matrix(1 0 0 1 1150.58 1166)">eeee</text><text font-family="Calibri,Calibri_MSFontService,sans-serif" font-weight="400" font-size="50" transform="matrix(1 0 0 1 1251.41 1166)">-</text><text font-family="Calibri,Calibri_MSFontService,sans-serif" font-weight="400" font-size="50" transform="matrix(1 0 0 1 1266.88 1166)">eeee</text><text font-family="Calibri,Calibri_MSFontService,sans-serif" font-weight="400" font-size="50" transform="matrix(1 0 0 1 1367.72 1166)">-</text><text font-family="Calibri,Calibri_MSFontService,sans-serif" font-weight="400" font-size="50" transform="matrix(1 0 0 1 1383.18 1166)">eeeeeeeeeeee</text><text font-family="Calibri,Calibri_MSFontService,sans-serif" font-weight="400" font-size="50" transform="matrix(1 0 0 1 627.507 1166)">1</text><text font-family="Calibri,Calibri_MSFontService,sans-serif" font-weight="400" font-size="50" transform="matrix(1 0 0 1 653.288 1166)">-</text><text font-family="Calibri,Calibri_MSFontService,sans-serif" font-weight="400" font-size="50" transform="matrix(1 0 0 1 668.757 1166)">1</text><text font-family="Calibri,Calibri_MSFontService,sans-serif" font-weight="400" font-size="50" transform="matrix(1 0 0 1 694.538 1166)">-</text><g clip-path="url(#clip9)"><text font-family="Calibri,Calibri_MSFontService,sans-serif" font-weight="400" font-size="50" transform="matrix(1 0 0 1 710.007 1166)">2023</text></g><g clip-path="url(#clip10)"><text font-family="Calibri,Calibri_MSFontService,sans-serif" font-weight="400" font-size="50" transform="matrix(1 0 0 1 2641.31 1234)">A red </text></g><text font-family="Calibri,Calibri_MSFontService,sans-serif" font-weight="400" font-size="50" transform="matrix(1 0 0 1 2762.77 1234)">apple</text><g clip-path="url(#clip11)"><text font-family="Calibri,Calibri_MSFontService,sans-serif" font-weight="400" font-size="50" transform="matrix(1 0 0 1 1729.23 1234)">11111111</text></g><text font-family="Calibri,Calibri_MSFontService,sans-serif" font-weight="400" font-size="50" transform="matrix(1 0 0 1 1935.48 1234)">-</text><text font-family="Calibri,Calibri_MSFontService,sans-serif" font-weight="400" font-size="50" transform="matrix(1 0 0 1 1950.94 1234)">1111</text><text font-family="Calibri,Calibri_MSFontService,sans-serif" font-weight="400" font-size="50" transform="matrix(1 0 0 1 2054.07 1234)">-</text><text font-family="Calibri,Calibri_MSFontService,sans-serif" font-weight="400" font-size="50" transform="matrix(1 0 0 1 2069.54 1234)">1111</text><text font-family="Calibri,Calibri_MSFontService,sans-serif" font-weight="400" font-size="50" transform="matrix(1 0 0 1 2172.66 1234)">-</text><text font-family="Calibri,Calibri_MSFontService,sans-serif" font-weight="400" font-size="50" transform="matrix(1 0 0 1 2188.13 1234)">1111</text><text font-family="Calibri,Calibri_MSFontService,sans-serif" font-weight="400" font-size="50" transform="matrix(1 0 0 1 2291.26 1234)">-</text><g clip-path="url(#clip12)"><text font-family="Calibri,Calibri_MSFontService,sans-serif" font-weight="400" font-size="50" transform="matrix(1 0 0 1 2306.73 1234)">111111111111</text></g><g clip-path="url(#clip13)"><text font-family="Calibri,Calibri_MSFontService,sans-serif" font-weight="400" font-size="50" transform="matrix(1 0 0 1 817.143 1234)">eeeeeeee</text></g><text font-family="Calibri,Calibri_MSFontService,sans-serif" font-weight="400" font-size="50" transform="matrix(1 0 0 1 1018.81 1234)">-</text><text font-family="Calibri,Calibri_MSFontService,sans-serif" font-weight="400" font-size="50" transform="matrix(1 0 0 1 1034.28 1234)">eeee</text><text font-family="Calibri,Calibri_MSFontService,sans-serif" font-weight="400" font-size="50" transform="matrix(1 0 0 1 1135.11 1234)">-</text><text font-family="Calibri,Calibri_MSFontService,sans-serif" font-weight="400" font-size="50" transform="matrix(1 0 0 1 1150.58 1234)">eeee</text><text font-family="Calibri,Calibri_MSFontService,sans-serif" font-weight="400" font-size="50" transform="matrix(1 0 0 1 1251.41 1234)">-</text><text font-family="Calibri,Calibri_MSFontService,sans-serif" font-weight="400" font-size="50" transform="matrix(1 0 0 1 1266.88 1234)">eeee</text><text font-family="Calibri,Calibri_MSFontService,sans-serif" font-weight="400" font-size="50" transform="matrix(1 0 0 1 1367.72 1234)">-</text><text font-family="Calibri,Calibri_MSFontService,sans-serif" font-weight="400" font-size="50" transform="matrix(1 0 0 1 1383.18 1234)">eeeeeeeeeeee</text><text font-family="Calibri,Calibri_MSFontService,sans-serif" font-weight="400" font-size="50" transform="matrix(1 0 0 1 627.507 1234)">1</text><text font-family="Calibri,Calibri_MSFontService,sans-serif" font-weight="400" font-size="50" transform="matrix(1 0 0 1 653.288 1234)">-</text><text font-family="Calibri,Calibri_MSFontService,sans-serif" font-weight="400" font-size="50" transform="matrix(1 0 0 1 668.757 1234)">1</text><text font-family="Calibri,Calibri_MSFontService,sans-serif" font-weight="400" font-size="50" transform="matrix(1 0 0 1 694.538 1234)">-</text><g clip-path="url(#clip14)"><text font-family="Calibri,Calibri_MSFontService,sans-serif" font-weight="400" font-size="50" transform="matrix(1 0 0 1 710.007 1234)">2023</text></g></g></svg>