<svg width="2014" height="417" xmlns="http://www.w3.org/2000/svg" xmlns:xlink="http://www.w3.org/1999/xlink" xml:space="preserve" overflow="hidden"><g transform="translate(-198 -2045)"><rect x="319.5" y="2192.5" width="1890" height="46" stroke="#172C51" stroke-width="4.58333" stroke-miterlimit="8" fill="#FF0000"/><text font-family="Calibri,Calibri_MSFontService,sans-serif" font-weight="400" font-size="50" transform="matrix(1 0 0 1 351.822 2232)">Red hat</text><rect x="623.5" y="2285.5" width="1586" height="47.9998" stroke="#172C51" stroke-width="4.58333" stroke-miterlimit="8" stroke-dasharray="18.3333 13.75" fill="#D9D9D9"/><rect x="927.5" y="2377.5" width="1282" height="48.0002" stroke="#172C51" stroke-width="4.58333" stroke-miterlimit="8" fill="#FFFF00"/><text font-family="Calibri,Calibri_MSFontService,sans-serif" font-weight="400" font-size="50" transform="matrix(1 0 0 1 959.821 2418)">Yellow</text><text font-family="Calibri,Calibri_MSFontService,sans-serif" font-weight="400" font-size="50" transform="matrix(1 0 0 1 1106.49 2418)">hat</text><text font-family="Calibri,Calibri_MSFontService,sans-serif" font-weight="400" font-size="50" transform="matrix(1 0 0 1 232.466 2109)">1 dec 23</text><text font-family="Calibri,Calibri_MSFontService,sans-serif" font-weight="400" font-size="50" transform="matrix(1 0 0 1 536.058 2109)">5 dec 23</text><text font-family="Calibri,Calibri_MSFontService,sans-serif" font-weight="400" font-size="50" transform="matrix(1 0 0 1 826.915 2108)">10 dec 23</text><path d="M0 0 0.000360892 169.172" stroke="#000000" stroke-width="4.58333" stroke-miterlimit="8" fill="none" fill-rule="evenodd" transform="matrix(1 0 0 -1 623.5 2309.67)"/><path d="M927.005 2401.25 926.5 2139.5" stroke="#000000" stroke-width="4.58333" stroke-miterlimit="8" fill="none" fill-rule="evenodd"/><path d="M0 0 0.154101 75.1374" stroke="#000000" stroke-width="4.58333" stroke-miterlimit="8" fill="none" fill-rule="evenodd" transform="matrix(1 0 0 -1 319.5 2215.64)"/></g></svg>