<svg width="2643" height="244" xmlns="http://www.w3.org/2000/svg" xmlns:xlink="http://www.w3.org/1999/xlink" xml:space="preserve" overflow="hidden"><defs><clipPath id="clip0"><rect x="377" y="570" width="2643" height="244"/></clipPath><clipPath id="clip1"><rect x="2630" y="404" width="386" height="425"/></clipPath><clipPath id="clip2"><rect x="1718" y="404" width="913" height="425"/></clipPath><clipPath id="clip3"><rect x="806" y="404" width="913" height="425"/></clipPath><clipPath id="clip4"><rect x="379" y="404" width="428" height="425"/></clipPath><clipPath id="clip5"><rect x="2630" y="471" width="386" height="425"/></clipPath><clipPath id="clip6"><rect x="1718" y="471" width="913" height="425"/></clipPath><clipPath id="clip7"><rect x="1718" y="471" width="913" height="425"/></clipPath><clipPath id="clip8"><rect x="806" y="471" width="913" height="425"/></clipPath><clipPath id="clip9"><rect x="379" y="471" width="428" height="425"/></clipPath><clipPath id="clip10"><rect x="2630" y="540" width="386" height="424"/></clipPath><clipPath id="clip11"><rect x="1718" y="540" width="913" height="424"/></clipPath><clipPath id="clip12"><rect x="1718" y="540" width="913" height="424"/></clipPath><clipPath id="clip13"><rect x="806" y="540" width="913" height="424"/></clipPath><clipPath id="clip14"><rect x="379" y="540" width="428" height="424"/></clipPath></defs><g clip-path="url(#clip0)" transform="translate(-377 -570)"><path d="M379.762 579.792 806.012 579.792 806.012 646.709 379.762 646.709Z" fill="#E9EBF5" fill-rule="evenodd"/><path d="M806.012 579.792 1718.09 579.792 1718.09 646.709 806.012 646.709Z" fill="#E9EBF5" fill-rule="evenodd"/><path d="M1718.09 579.792 2630.18 579.792 2630.18 646.709 1718.09 646.709Z" fill="#E9EBF5" fill-rule="evenodd"/><path d="M2630.18 579.792 3015.18 579.792 3015.18 646.709 2630.18 646.709Z" fill="#E9EBF5" fill-rule="evenodd"/><path d="M379.762 646.709 806.012 646.709 806.012 713.625 379.762 713.625Z" fill="#E9EBF5" fill-rule="evenodd"/><path d="M806.012 646.709 1718.09 646.709 1718.09 713.625 806.012 713.625Z" fill="#E9EBF5" fill-rule="evenodd"/><path d="M1718.09 646.709 2630.18 646.709 2630.18 713.625 1718.09 713.625Z" fill="#E9EBF5" fill-rule="evenodd"/><path d="M2630.18 646.709 3015.18 646.709 3015.18 713.625 2630.18 713.625Z" fill="#E9EBF5" fill-rule="evenodd"/><path d="M379.762 713.625 806.012 713.625 806.012 782.375 379.762 782.375Z" fill="#E9EBF5" fill-rule="evenodd"/><path d="M806.012 713.625 1718.09 713.625 1718.09 782.375 806.012 782.375Z" fill="#E9EBF5" fill-rule="evenodd"/><path d="M1718.09 713.625 2630.18 713.625 2630.18 782.375 1718.09 782.375Z" fill="#E9EBF5" fill-rule="evenodd"/><path d="M2630.18 713.625 3015.18 713.625 3015.18 782.375 2630.18 782.375Z" fill="#E9EBF5" fill-rule="evenodd"/><path d="M806.012 577.5 806.012 784.667" stroke="#FFFFFF" stroke-width="4.58333" stroke-linejoin="round" stroke-miterlimit="10" fill="none" fill-rule="evenodd"/><path d="M1718.09 577.5 1718.09 784.667" stroke="#FFFFFF" stroke-width="4.58333" stroke-linejoin="round" stroke-miterlimit="10" fill="none" fill-rule="evenodd"/><path d="M2630.18 577.5 2630.18 784.667" stroke="#FFFFFF" stroke-width="4.58333" stroke-linejoin="round" stroke-miterlimit="10" fill="none" fill-rule="evenodd"/><path d="M377.47 646.709 3017.47 646.709" stroke="#FFFFFF" stroke-width="4.58333" stroke-linejoin="round" stroke-miterlimit="10" fill="none" fill-rule="evenodd"/><path d="M377.47 713.625 3017.47 713.625" stroke="#FFFFFF" stroke-width="4.58333" stroke-linejoin="round" stroke-miterlimit="10" fill="none" fill-rule="evenodd"/><path d="M379.762 577.5 379.762 784.667" stroke="#FFFFFF" stroke-width="4.58333" stroke-linejoin="round" stroke-miterlimit="10" fill="none" fill-rule="evenodd"/><path d="M3015.18 577.5 3015.18 784.667" stroke="#FFFFFF" stroke-width="4.58333" stroke-linejoin="round" stroke-miterlimit="10" fill="none" fill-rule="evenodd"/><path d="M377.47 579.792 3017.47 579.792" stroke="#FFFFFF" stroke-width="4.58333" stroke-linejoin="round" stroke-miterlimit="10" fill="none" fill-rule="evenodd"/><path d="M377.47 782.375 3017.47 782.375" stroke="#FFFFFF" stroke-width="4.58333" stroke-linejoin="round" stroke-miterlimit="10" fill="none" fill-rule="evenodd"/><g clip-path="url(#clip1)"><text font-family="Calibri,Calibri_MSFontService,sans-serif" font-weight="700" font-size="50" transform="matrix(1 0 0 1 2632.14 633)">description</text></g><g clip-path="url(#clip2)"><text font-family="Calibri,Calibri_MSFontService,sans-serif" font-weight="700" font-size="50" transform="matrix(1 0 0 1 1720.06 633)">id</text></g><g clip-path="url(#clip3)"><text font-family="Calibri,Calibri_MSFontService,sans-serif" font-weight="700" font-size="50" transform="matrix(1 0 0 1 807.976 633)">stg_runId</text></g><g clip-path="url(#clip4)"><text font-family="Calibri,Calibri_MSFontService,sans-serif" font-weight="700" font-size="50" transform="matrix(1 0 0 1 381.726 633)">stg_timestamp_utc</text></g><g clip-path="url(#clip5)"><text font-family="Calibri,Calibri_MSFontService,sans-serif" font-weight="400" font-size="50" transform="matrix(1 0 0 1 2632.14 700)">A blue telephone</text></g><g clip-path="url(#clip6)"><text font-family="Calibri,Calibri_MSFontService,sans-serif" font-weight="400" font-size="50" transform="matrix(1 0 0 1 1720.06 700)">00000000</text></g><text font-family="Calibri,Calibri_MSFontService,sans-serif" font-weight="400" font-size="50" transform="matrix(1 0 0 1 1926.31 700)">-</text><text font-family="Calibri,Calibri_MSFontService,sans-serif" font-weight="400" font-size="50" transform="matrix(1 0 0 1 1941.78 700)">0000</text><text font-family="Calibri,Calibri_MSFontService,sans-serif" font-weight="400" font-size="50" transform="matrix(1 0 0 1 2044.9 700)">-</text><text font-family="Calibri,Calibri_MSFontService,sans-serif" font-weight="400" font-size="50" transform="matrix(1 0 0 1 2060.37 700)">0000</text><text font-family="Calibri,Calibri_MSFontService,sans-serif" font-weight="400" font-size="50" transform="matrix(1 0 0 1 2163.5 700)">-</text><text font-family="Calibri,Calibri_MSFontService,sans-serif" font-weight="400" font-size="50" transform="matrix(1 0 0 1 2178.97 700)">0000</text><text font-family="Calibri,Calibri_MSFontService,sans-serif" font-weight="400" font-size="50" transform="matrix(1 0 0 1 2282.09 700)">-</text><g clip-path="url(#clip7)"><text font-family="Calibri,Calibri_MSFontService,sans-serif" font-weight="400" font-size="50" transform="matrix(1 0 0 1 2297.56 700)">000000000000</text></g><g clip-path="url(#clip8)"><text font-family="Calibri,Calibri_MSFontService,sans-serif" font-weight="400" font-size="50" transform="matrix(1 0 0 1 807.976 700)">aaaaaaaa</text></g><text font-family="Calibri,Calibri_MSFontService,sans-serif" font-weight="400" font-size="50" transform="matrix(1 0 0 1 1000.48 700)">-</text><text font-family="Calibri,Calibri_MSFontService,sans-serif" font-weight="400" font-size="50" transform="matrix(1 0 0 1 1015.94 700)">aaaa</text><text font-family="Calibri,Calibri_MSFontService,sans-serif" font-weight="400" font-size="50" transform="matrix(1 0 0 1 1112.19 700)">-</text><text font-family="Calibri,Calibri_MSFontService,sans-serif" font-weight="400" font-size="50" transform="matrix(1 0 0 1 1127.66 700)">aaaa</text><text font-family="Calibri,Calibri_MSFontService,sans-serif" font-weight="400" font-size="50" transform="matrix(1 0 0 1 1223.91 700)">-</text><text font-family="Calibri,Calibri_MSFontService,sans-serif" font-weight="400" font-size="50" transform="matrix(1 0 0 1 1239.38 700)">aaaa</text><text font-family="Calibri,Calibri_MSFontService,sans-serif" font-weight="400" font-size="50" transform="matrix(1 0 0 1 1335.63 700)">-</text><text font-family="Calibri,Calibri_MSFontService,sans-serif" font-weight="400" font-size="50" transform="matrix(1 0 0 1 1351.1 700)">aaaaaaaaaaaa</text><text font-family="Calibri,Calibri_MSFontService,sans-serif" font-weight="400" font-size="50" transform="matrix(1 0 0 1 618.341 700)">1</text><text font-family="Calibri,Calibri_MSFontService,sans-serif" font-weight="400" font-size="50" transform="matrix(1 0 0 1 644.122 700)">-</text><text font-family="Calibri,Calibri_MSFontService,sans-serif" font-weight="400" font-size="50" transform="matrix(1 0 0 1 659.591 700)">1</text><text font-family="Calibri,Calibri_MSFontService,sans-serif" font-weight="400" font-size="50" transform="matrix(1 0 0 1 685.372 700)">-</text><g clip-path="url(#clip9)"><text font-family="Calibri,Calibri_MSFontService,sans-serif" font-weight="400" font-size="50" transform="matrix(1 0 0 1 700.841 700)">2023</text></g><g clip-path="url(#clip10)"><text font-family="Calibri,Calibri_MSFontService,sans-serif" font-weight="400" font-size="50" transform="matrix(1 0 0 1 2632.14 769)">A red </text></g><text font-family="Calibri,Calibri_MSFontService,sans-serif" font-weight="400" font-size="50" transform="matrix(1 0 0 1 2753.6 769)">apple</text><g clip-path="url(#clip11)"><text font-family="Calibri,Calibri_MSFontService,sans-serif" font-weight="400" font-size="50" transform="matrix(1 0 0 1 1720.06 769)">11111111</text></g><text font-family="Calibri,Calibri_MSFontService,sans-serif" font-weight="400" font-size="50" transform="matrix(1 0 0 1 1926.31 769)">-</text><text font-family="Calibri,Calibri_MSFontService,sans-serif" font-weight="400" font-size="50" transform="matrix(1 0 0 1 1941.78 769)">1111</text><text font-family="Calibri,Calibri_MSFontService,sans-serif" font-weight="400" font-size="50" transform="matrix(1 0 0 1 2044.9 769)">-</text><text font-family="Calibri,Calibri_MSFontService,sans-serif" font-weight="400" font-size="50" transform="matrix(1 0 0 1 2060.37 769)">1111</text><text font-family="Calibri,Calibri_MSFontService,sans-serif" font-weight="400" font-size="50" transform="matrix(1 0 0 1 2163.5 769)">-</text><text font-family="Calibri,Calibri_MSFontService,sans-serif" font-weight="400" font-size="50" transform="matrix(1 0 0 1 2178.97 769)">1111</text><text font-family="Calibri,Calibri_MSFontService,sans-serif" font-weight="400" font-size="50" transform="matrix(1 0 0 1 2282.09 769)">-</text><g clip-path="url(#clip12)"><text font-family="Calibri,Calibri_MSFontService,sans-serif" font-weight="400" font-size="50" transform="matrix(1 0 0 1 2297.56 769)">111111111111</text></g><g clip-path="url(#clip13)"><text font-family="Calibri,Calibri_MSFontService,sans-serif" font-weight="400" font-size="50" transform="matrix(1 0 0 1 807.976 769)">aaaaaaaa</text></g><text font-family="Calibri,Calibri_MSFontService,sans-serif" font-weight="400" font-size="50" transform="matrix(1 0 0 1 1000.48 769)">-</text><text font-family="Calibri,Calibri_MSFontService,sans-serif" font-weight="400" font-size="50" transform="matrix(1 0 0 1 1015.94 769)">aaaa</text><text font-family="Calibri,Calibri_MSFontService,sans-serif" font-weight="400" font-size="50" transform="matrix(1 0 0 1 1112.19 769)">-</text><text font-family="Calibri,Calibri_MSFontService,sans-serif" font-weight="400" font-size="50" transform="matrix(1 0 0 1 1127.66 769)">aaaa</text><text font-family="Calibri,Calibri_MSFontService,sans-serif" font-weight="400" font-size="50" transform="matrix(1 0 0 1 1223.91 769)">-</text><text font-family="Calibri,Calibri_MSFontService,sans-serif" font-weight="400" font-size="50" transform="matrix(1 0 0 1 1239.38 769)">aaaa</text><text font-family="Calibri,Calibri_MSFontService,sans-serif" font-weight="400" font-size="50" transform="matrix(1 0 0 1 1335.63 769)">-</text><text font-family="Calibri,Calibri_MSFontService,sans-serif" font-weight="400" font-size="50" transform="matrix(1 0 0 1 1351.1 769)">aaaaaaaaaaaa</text><text font-family="Calibri,Calibri_MSFontService,sans-serif" font-weight="400" font-size="50" transform="matrix(1 0 0 1 618.341 769)">1</text><text font-family="Calibri,Calibri_MSFontService,sans-serif" font-weight="400" font-size="50" transform="matrix(1 0 0 1 644.122 769)">-</text><text font-family="Calibri,Calibri_MSFontService,sans-serif" font-weight="400" font-size="50" transform="matrix(1 0 0 1 659.591 769)">1</text><text font-family="Calibri,Calibri_MSFontService,sans-serif" font-weight="400" font-size="50" transform="matrix(1 0 0 1 685.372 769)">-</text><g clip-path="url(#clip14)"><text font-family="Calibri,Calibri_MSFontService,sans-serif" font-weight="400" font-size="50" transform="matrix(1 0 0 1 700.841 769)">2023</text></g></g></svg>