<svg width="2643" height="244" xmlns="http://www.w3.org/2000/svg" xmlns:xlink="http://www.w3.org/1999/xlink" xml:space="preserve" overflow="hidden"><defs><clipPath id="clip0"><rect x="377" y="803" width="2643" height="244"/></clipPath><clipPath id="clip1"><rect x="2630" y="637" width="386" height="424"/></clipPath><clipPath id="clip2"><rect x="1718" y="637" width="913" height="424"/></clipPath><clipPath id="clip3"><rect x="806" y="637" width="913" height="424"/></clipPath><clipPath id="clip4"><rect x="379" y="637" width="428" height="424"/></clipPath><clipPath id="clip5"><rect x="2630" y="704" width="386" height="424"/></clipPath><clipPath id="clip6"><rect x="1718" y="704" width="913" height="424"/></clipPath><clipPath id="clip7"><rect x="1718" y="704" width="913" height="424"/></clipPath><clipPath id="clip8"><rect x="806" y="704" width="913" height="424"/></clipPath><clipPath id="clip9"><rect x="379" y="704" width="428" height="424"/></clipPath><clipPath id="clip10"><rect x="2630" y="773" width="386" height="424"/></clipPath><clipPath id="clip11"><rect x="1718" y="773" width="913" height="424"/></clipPath><clipPath id="clip12"><rect x="1718" y="773" width="913" height="424"/></clipPath><clipPath id="clip13"><rect x="806" y="773" width="913" height="424"/></clipPath><clipPath id="clip14"><rect x="379" y="773" width="428" height="424"/></clipPath></defs><g clip-path="url(#clip0)" transform="translate(-377 -803)"><path d="M379.762 812.56 806.012 812.56 806.012 879.477 379.762 879.477Z" fill="#E9EBF5" fill-rule="evenodd"/><path d="M806.012 812.56 1718.09 812.56 1718.09 879.477 806.012 879.477Z" fill="#E9EBF5" fill-rule="evenodd"/><path d="M1718.09 812.56 2630.18 812.56 2630.18 879.477 1718.09 879.477Z" fill="#E9EBF5" fill-rule="evenodd"/><path d="M2630.18 812.56 3015.18 812.56 3015.18 879.477 2630.18 879.477Z" fill="#E9EBF5" fill-rule="evenodd"/><path d="M379.762 879.477 806.012 879.477 806.012 946.393 379.762 946.393Z" fill="#E9EBF5" fill-rule="evenodd"/><path d="M806.012 879.477 1718.09 879.477 1718.09 946.393 806.012 946.393Z" fill="#E9EBF5" fill-rule="evenodd"/><path d="M1718.09 879.477 2630.18 879.477 2630.18 946.393 1718.09 946.393Z" fill="#E9EBF5" fill-rule="evenodd"/><path d="M2630.18 879.477 3015.18 879.477 3015.18 946.393 2630.18 946.393Z" fill="#E9EBF5" fill-rule="evenodd"/><path d="M379.762 946.393 806.012 946.393 806.012 1015.14 379.762 1015.14Z" fill="#E9EBF5" fill-rule="evenodd"/><path d="M806.012 946.393 1718.09 946.393 1718.09 1015.14 806.012 1015.14Z" fill="#E9EBF5" fill-rule="evenodd"/><path d="M1718.09 946.393 2630.18 946.393 2630.18 1015.14 1718.09 1015.14Z" fill="#E9EBF5" fill-rule="evenodd"/><path d="M2630.18 946.393 3015.18 946.393 3015.18 1015.14 2630.18 1015.14Z" fill="#E9EBF5" fill-rule="evenodd"/><path d="M806.012 810.268 806.012 1017.44" stroke="#FFFFFF" stroke-width="4.58333" stroke-linejoin="round" stroke-miterlimit="10" fill="none" fill-rule="evenodd"/><path d="M1718.09 810.268 1718.09 1017.44" stroke="#FFFFFF" stroke-width="4.58333" stroke-linejoin="round" stroke-miterlimit="10" fill="none" fill-rule="evenodd"/><path d="M2630.18 810.268 2630.18 1017.44" stroke="#FFFFFF" stroke-width="4.58333" stroke-linejoin="round" stroke-miterlimit="10" fill="none" fill-rule="evenodd"/><path d="M377.47 879.477 3017.47 879.477" stroke="#FFFFFF" stroke-width="4.58333" stroke-linejoin="round" stroke-miterlimit="10" fill="none" fill-rule="evenodd"/><path d="M377.47 946.393 3017.47 946.393" stroke="#FFFFFF" stroke-width="4.58333" stroke-linejoin="round" stroke-miterlimit="10" fill="none" fill-rule="evenodd"/><path d="M379.762 810.268 379.762 1017.44" stroke="#FFFFFF" stroke-width="4.58333" stroke-linejoin="round" stroke-miterlimit="10" fill="none" fill-rule="evenodd"/><path d="M3015.18 810.268 3015.18 1017.44" stroke="#FFFFFF" stroke-width="4.58333" stroke-linejoin="round" stroke-miterlimit="10" fill="none" fill-rule="evenodd"/><path d="M377.47 812.56 3017.47 812.56" stroke="#FFFFFF" stroke-width="4.58333" stroke-linejoin="round" stroke-miterlimit="10" fill="none" fill-rule="evenodd"/><path d="M377.47 1015.14 3017.47 1015.14" stroke="#FFFFFF" stroke-width="4.58333" stroke-linejoin="round" stroke-miterlimit="10" fill="none" fill-rule="evenodd"/><g clip-path="url(#clip1)"><text font-family="Calibri,Calibri_MSFontService,sans-serif" font-weight="700" font-size="50" transform="matrix(1 0 0 1 2632.14 866)">description</text></g><g clip-path="url(#clip2)"><text font-family="Calibri,Calibri_MSFontService,sans-serif" font-weight="700" font-size="50" transform="matrix(1 0 0 1 1720.06 866)">id</text></g><g clip-path="url(#clip3)"><text font-family="Calibri,Calibri_MSFontService,sans-serif" font-weight="700" font-size="50" transform="matrix(1 0 0 1 807.976 866)">stg_runId</text></g><g clip-path="url(#clip4)"><text font-family="Calibri,Calibri_MSFontService,sans-serif" font-weight="700" font-size="50" transform="matrix(1 0 0 1 381.726 866)">stg_timestamp_utc</text></g><g clip-path="url(#clip5)"><text font-family="Calibri,Calibri_MSFontService,sans-serif" font-weight="400" font-size="50" transform="matrix(1 0 0 1 2632.14 933)">A red apple</text></g><g clip-path="url(#clip6)"><text font-family="Calibri,Calibri_MSFontService,sans-serif" font-weight="400" font-size="50" transform="matrix(1 0 0 1 1720.06 933)">11111111</text></g><text font-family="Calibri,Calibri_MSFontService,sans-serif" font-weight="400" font-size="50" transform="matrix(1 0 0 1 1926.31 933)">-</text><text font-family="Calibri,Calibri_MSFontService,sans-serif" font-weight="400" font-size="50" transform="matrix(1 0 0 1 1941.78 933)">1111</text><text font-family="Calibri,Calibri_MSFontService,sans-serif" font-weight="400" font-size="50" transform="matrix(1 0 0 1 2044.9 933)">-</text><text font-family="Calibri,Calibri_MSFontService,sans-serif" font-weight="400" font-size="50" transform="matrix(1 0 0 1 2060.37 933)">1111</text><text font-family="Calibri,Calibri_MSFontService,sans-serif" font-weight="400" font-size="50" transform="matrix(1 0 0 1 2163.5 933)">-</text><text font-family="Calibri,Calibri_MSFontService,sans-serif" font-weight="400" font-size="50" transform="matrix(1 0 0 1 2178.97 933)">1111</text><text font-family="Calibri,Calibri_MSFontService,sans-serif" font-weight="400" font-size="50" transform="matrix(1 0 0 1 2282.09 933)">-</text><g clip-path="url(#clip7)"><text font-family="Calibri,Calibri_MSFontService,sans-serif" font-weight="400" font-size="50" transform="matrix(1 0 0 1 2297.56 933)">111111111111</text></g><g clip-path="url(#clip8)"><text font-family="Calibri,Calibri_MSFontService,sans-serif" font-weight="400" font-size="50" transform="matrix(1 0 0 1 807.976 933)">cccccccc</text></g><text font-family="Calibri,Calibri_MSFontService,sans-serif" font-weight="400" font-size="50" transform="matrix(1 0 0 1 977.559 933)">-</text><text font-family="Calibri,Calibri_MSFontService,sans-serif" font-weight="400" font-size="50" transform="matrix(1 0 0 1 993.028 933)">cccc</text><text font-family="Calibri,Calibri_MSFontService,sans-serif" font-weight="400" font-size="50" transform="matrix(1 0 0 1 1077.82 933)">-</text><text font-family="Calibri,Calibri_MSFontService,sans-serif" font-weight="400" font-size="50" transform="matrix(1 0 0 1 1093.29 933)">cccc</text><text font-family="Calibri,Calibri_MSFontService,sans-serif" font-weight="400" font-size="50" transform="matrix(1 0 0 1 1178.08 933)">-</text><text font-family="Calibri,Calibri_MSFontService,sans-serif" font-weight="400" font-size="50" transform="matrix(1 0 0 1 1193.55 933)">cccc</text><text font-family="Calibri,Calibri_MSFontService,sans-serif" font-weight="400" font-size="50" transform="matrix(1 0 0 1 1278.34 933)">-</text><text font-family="Calibri,Calibri_MSFontService,sans-serif" font-weight="400" font-size="50" transform="matrix(1 0 0 1 1293.81 933)">cccccccccccc</text><text font-family="Calibri,Calibri_MSFontService,sans-serif" font-weight="400" font-size="50" transform="matrix(1 0 0 1 618.341 933)">1</text><text font-family="Calibri,Calibri_MSFontService,sans-serif" font-weight="400" font-size="50" transform="matrix(1 0 0 1 644.122 933)">-</text><text font-family="Calibri,Calibri_MSFontService,sans-serif" font-weight="400" font-size="50" transform="matrix(1 0 0 1 659.591 933)">2</text><text font-family="Calibri,Calibri_MSFontService,sans-serif" font-weight="400" font-size="50" transform="matrix(1 0 0 1 685.372 933)">-</text><g clip-path="url(#clip9)"><text font-family="Calibri,Calibri_MSFontService,sans-serif" font-weight="400" font-size="50" transform="matrix(1 0 0 1 700.841 933)">2023</text></g><g clip-path="url(#clip10)"><text font-family="Calibri,Calibri_MSFontService,sans-serif" font-weight="400" font-size="50" transform="matrix(1 0 0 1 2632.14 1002)">A geen door</text></g><g clip-path="url(#clip11)"><text font-family="Calibri,Calibri_MSFontService,sans-serif" font-weight="400" font-size="50" transform="matrix(1 0 0 1 1720.06 1002)">22222222</text></g><text font-family="Calibri,Calibri_MSFontService,sans-serif" font-weight="400" font-size="50" transform="matrix(1 0 0 1 1926.31 1002)">-</text><text font-family="Calibri,Calibri_MSFontService,sans-serif" font-weight="400" font-size="50" transform="matrix(1 0 0 1 1941.78 1002)">2222</text><text font-family="Calibri,Calibri_MSFontService,sans-serif" font-weight="400" font-size="50" transform="matrix(1 0 0 1 2044.9 1002)">-</text><text font-family="Calibri,Calibri_MSFontService,sans-serif" font-weight="400" font-size="50" transform="matrix(1 0 0 1 2060.37 1002)">2222</text><text font-family="Calibri,Calibri_MSFontService,sans-serif" font-weight="400" font-size="50" transform="matrix(1 0 0 1 2163.5 1002)">-</text><text font-family="Calibri,Calibri_MSFontService,sans-serif" font-weight="400" font-size="50" transform="matrix(1 0 0 1 2178.97 1002)">2222</text><text font-family="Calibri,Calibri_MSFontService,sans-serif" font-weight="400" font-size="50" transform="matrix(1 0 0 1 2282.09 1002)">-</text><g clip-path="url(#clip12)"><text font-family="Calibri,Calibri_MSFontService,sans-serif" font-weight="400" font-size="50" transform="matrix(1 0 0 1 2297.56 1002)">222222222222</text></g><g clip-path="url(#clip13)"><text font-family="Calibri,Calibri_MSFontService,sans-serif" font-weight="400" font-size="50" transform="matrix(1 0 0 1 807.976 1002)">cccccccc</text></g><text font-family="Calibri,Calibri_MSFontService,sans-serif" font-weight="400" font-size="50" transform="matrix(1 0 0 1 977.559 1002)">-</text><text font-family="Calibri,Calibri_MSFontService,sans-serif" font-weight="400" font-size="50" transform="matrix(1 0 0 1 993.028 1002)">cccc</text><text font-family="Calibri,Calibri_MSFontService,sans-serif" font-weight="400" font-size="50" transform="matrix(1 0 0 1 1077.82 1002)">-</text><text font-family="Calibri,Calibri_MSFontService,sans-serif" font-weight="400" font-size="50" transform="matrix(1 0 0 1 1093.29 1002)">cccc</text><text font-family="Calibri,Calibri_MSFontService,sans-serif" font-weight="400" font-size="50" transform="matrix(1 0 0 1 1178.08 1002)">-</text><text font-family="Calibri,Calibri_MSFontService,sans-serif" font-weight="400" font-size="50" transform="matrix(1 0 0 1 1193.55 1002)">cccc</text><text font-family="Calibri,Calibri_MSFontService,sans-serif" font-weight="400" font-size="50" transform="matrix(1 0 0 1 1278.34 1002)">-</text><text font-family="Calibri,Calibri_MSFontService,sans-serif" font-weight="400" font-size="50" transform="matrix(1 0 0 1 1293.81 1002)">cccccccccccc</text><text font-family="Calibri,Calibri_MSFontService,sans-serif" font-weight="400" font-size="50" transform="matrix(1 0 0 1 618.341 1002)">1</text><text font-family="Calibri,Calibri_MSFontService,sans-serif" font-weight="400" font-size="50" transform="matrix(1 0 0 1 644.122 1002)">-</text><text font-family="Calibri,Calibri_MSFontService,sans-serif" font-weight="400" font-size="50" transform="matrix(1 0 0 1 659.591 1002)">2</text><text font-family="Calibri,Calibri_MSFontService,sans-serif" font-weight="400" font-size="50" transform="matrix(1 0 0 1 685.372 1002)">-</text><g clip-path="url(#clip14)"><text font-family="Calibri,Calibri_MSFontService,sans-serif" font-weight="400" font-size="50" transform="matrix(1 0 0 1 700.841 1002)">2023</text></g></g></svg>