<svg width="2652" height="379" xmlns="http://www.w3.org/2000/svg" xmlns:xlink="http://www.w3.org/1999/xlink" xml:space="preserve" overflow="hidden"><defs><clipPath id="clip0"><rect x="377" y="1269" width="2652" height="379"/></clipPath><clipPath id="clip1"><rect x="2639" y="1103" width="386" height="424"/></clipPath><clipPath id="clip2"><rect x="1727" y="1103" width="913" height="424"/></clipPath><clipPath id="clip3"><rect x="815" y="1103" width="913" height="424"/></clipPath><clipPath id="clip4"><rect x="379" y="1103" width="437" height="424"/></clipPath><clipPath id="clip5"><rect x="2639" y="1169" width="386" height="425"/></clipPath><clipPath id="clip6"><rect x="1727" y="1169" width="913" height="425"/></clipPath><clipPath id="clip7"><rect x="1727" y="1169" width="913" height="425"/></clipPath><clipPath id="clip8"><rect x="815" y="1169" width="913" height="425"/></clipPath><clipPath id="clip9"><rect x="379" y="1169" width="437" height="425"/></clipPath><clipPath id="clip10"><rect x="2639" y="1238" width="386" height="425"/></clipPath><clipPath id="clip11"><rect x="1727" y="1238" width="913" height="425"/></clipPath><clipPath id="clip12"><rect x="1727" y="1238" width="913" height="425"/></clipPath><clipPath id="clip13"><rect x="815" y="1238" width="913" height="425"/></clipPath><clipPath id="clip14"><rect x="379" y="1238" width="437" height="425"/></clipPath><clipPath id="clip15"><rect x="2639" y="1305" width="386" height="425"/></clipPath><clipPath id="clip16"><rect x="1727" y="1305" width="913" height="425"/></clipPath><clipPath id="clip17"><rect x="1727" y="1305" width="913" height="425"/></clipPath><clipPath id="clip18"><rect x="815" y="1305" width="913" height="425"/></clipPath><clipPath id="clip19"><rect x="379" y="1305" width="437" height="425"/></clipPath><clipPath id="clip20"><rect x="2639" y="1374" width="386" height="424"/></clipPath><clipPath id="clip21"><rect x="1727" y="1374" width="913" height="424"/></clipPath><clipPath id="clip22"><rect x="1727" y="1374" width="913" height="424"/></clipPath><clipPath id="clip23"><rect x="815" y="1374" width="913" height="424"/></clipPath><clipPath id="clip24"><rect x="379" y="1374" width="437" height="424"/></clipPath></defs><g clip-path="url(#clip0)" transform="translate(-377 -1269)"><path d="M379.762 1278.1 815.178 1278.1 815.178 1345.01 379.762 1345.01Z" fill="#E9EBF5" fill-rule="evenodd"/><path d="M815.178 1278.1 1727.26 1278.1 1727.26 1345.01 815.178 1345.01Z" fill="#E9EBF5" fill-rule="evenodd"/><path d="M1727.26 1278.1 2639.34 1278.1 2639.34 1345.01 1727.26 1345.01Z" fill="#E9EBF5" fill-rule="evenodd"/><path d="M2639.34 1278.1 3024.34 1278.1 3024.34 1345.01 2639.34 1345.01Z" fill="#E9EBF5" fill-rule="evenodd"/><path d="M379.762 1345.01 815.178 1345.01 815.178 1411.93 379.762 1411.93Z" fill="#E9EBF5" fill-rule="evenodd"/><path d="M815.178 1345.01 1727.26 1345.01 1727.26 1411.93 815.178 1411.93Z" fill="#E9EBF5" fill-rule="evenodd"/><path d="M1727.26 1345.01 2639.34 1345.01 2639.34 1411.93 1727.26 1411.93Z" fill="#E9EBF5" fill-rule="evenodd"/><path d="M2639.34 1345.01 3024.34 1345.01 3024.34 1411.93 2639.34 1411.93Z" fill="#E9EBF5" fill-rule="evenodd"/><path d="M379.762 1411.93 815.178 1411.93 815.178 1480.68 379.762 1480.68Z" fill="#E9EBF5" fill-rule="evenodd"/><path d="M815.178 1411.93 1727.26 1411.93 1727.26 1480.68 815.178 1480.68Z" fill="#E9EBF5" fill-rule="evenodd"/><path d="M1727.26 1411.93 2639.34 1411.93 2639.34 1480.68 1727.26 1480.68Z" fill="#E9EBF5" fill-rule="evenodd"/><path d="M2639.34 1411.93 3024.34 1411.93 3024.34 1480.68 2639.34 1480.68Z" fill="#E9EBF5" fill-rule="evenodd"/><path d="M379.762 1480.68 815.178 1480.68 815.178 1547.6 379.762 1547.6Z" fill="#E9EBF5" fill-rule="evenodd"/><path d="M815.178 1480.68 1727.26 1480.68 1727.26 1547.6 815.178 1547.6Z" fill="#E9EBF5" fill-rule="evenodd"/><path d="M1727.26 1480.68 2639.34 1480.68 2639.34 1547.6 1727.26 1547.6Z" fill="#E9EBF5" fill-rule="evenodd"/><path d="M2639.34 1480.68 3024.34 1480.68 3024.34 1547.6 2639.34 1547.6Z" fill="#E9EBF5" fill-rule="evenodd"/><path d="M379.762 1547.6 815.178 1547.6 815.178 1616.35 379.762 1616.35Z" fill="#E9EBF5" fill-rule="evenodd"/><path d="M815.178 1547.6 1727.26 1547.6 1727.26 1616.35 815.178 1616.35Z" fill="#E9EBF5" fill-rule="evenodd"/><path d="M1727.26 1547.6 2639.34 1547.6 2639.34 1616.35 1727.26 1616.35Z" fill="#E9EBF5" fill-rule="evenodd"/><path d="M2639.34 1547.6 3024.34 1547.6 3024.34 1616.35 2639.34 1616.35Z" fill="#E9EBF5" fill-rule="evenodd"/><path d="M815.178 1275.8 815.178 1618.64" stroke="#FFFFFF" stroke-width="4.58333" stroke-linejoin="round" stroke-miterlimit="10" fill="none" fill-rule="evenodd"/><path d="M1727.26 1275.8 1727.26 1618.64" stroke="#FFFFFF" stroke-width="4.58333" stroke-linejoin="round" stroke-miterlimit="10" fill="none" fill-rule="evenodd"/><path d="M2639.34 1275.8 2639.34 1618.64" stroke="#FFFFFF" stroke-width="4.58333" stroke-linejoin="round" stroke-miterlimit="10" fill="none" fill-rule="evenodd"/><path d="M377.47 1345.01 3026.64 1345.01" stroke="#FFFFFF" stroke-width="4.58333" stroke-linejoin="round" stroke-miterlimit="10" fill="none" fill-rule="evenodd"/><path d="M377.47 1411.93 3026.64 1411.93" stroke="#FFFFFF" stroke-width="4.58333" stroke-linejoin="round" stroke-miterlimit="10" fill="none" fill-rule="evenodd"/><path d="M377.47 1480.68 3026.64 1480.68" stroke="#FFFFFF" stroke-width="4.58333" stroke-linejoin="round" stroke-miterlimit="10" fill="none" fill-rule="evenodd"/><path d="M377.47 1547.6 3026.64 1547.6" stroke="#FFFFFF" stroke-width="4.58333" stroke-linejoin="round" stroke-miterlimit="10" fill="none" fill-rule="evenodd"/><path d="M379.762 1275.8 379.762 1618.64" stroke="#FFFFFF" stroke-width="4.58333" stroke-linejoin="round" stroke-miterlimit="10" fill="none" fill-rule="evenodd"/><path d="M3024.34 1275.8 3024.34 1618.64" stroke="#FFFFFF" stroke-width="4.58333" stroke-linejoin="round" stroke-miterlimit="10" fill="none" fill-rule="evenodd"/><path d="M377.47 1278.1 3026.64 1278.1" stroke="#FFFFFF" stroke-width="4.58333" stroke-linejoin="round" stroke-miterlimit="10" fill="none" fill-rule="evenodd"/><path d="M377.47 1616.35 3026.64 1616.35" stroke="#FFFFFF" stroke-width="4.58333" stroke-linejoin="round" stroke-miterlimit="10" fill="none" fill-rule="evenodd"/><g clip-path="url(#clip1)"><text font-family="Calibri,Calibri_MSFontService,sans-serif" font-weight="700" font-size="50" transform="matrix(1 0 0 1 2641.31 1332)">description</text></g><g clip-path="url(#clip2)"><text font-family="Calibri,Calibri_MSFontService,sans-serif" font-weight="700" font-size="50" transform="matrix(1 0 0 1 1729.23 1332)">id</text></g><g clip-path="url(#clip3)"><text font-family="Calibri,Calibri_MSFontService,sans-serif" font-weight="700" font-size="50" transform="matrix(1 0 0 1 817.143 1332)">hda_runId</text></g><g clip-path="url(#clip4)"><text font-family="Calibri,Calibri_MSFontService,sans-serif" font-weight="700" font-size="50" transform="matrix(1 0 0 1 381.726 1332)">hda_validFrom_utc</text></g><g clip-path="url(#clip5)"><text font-family="Calibri,Calibri_MSFontService,sans-serif" font-weight="400" font-size="50" transform="matrix(1 0 0 1 2641.31 1398)">A blue </text></g><text font-family="Calibri,Calibri_MSFontService,sans-serif" font-weight="400" font-size="50" transform="matrix(1 0 0 1 2782.82 1398)">telephone</text><g clip-path="url(#clip6)"><text font-family="Calibri,Calibri_MSFontService,sans-serif" font-weight="400" font-size="50" transform="matrix(1 0 0 1 1729.23 1398)">00000000</text></g><text font-family="Calibri,Calibri_MSFontService,sans-serif" font-weight="400" font-size="50" transform="matrix(1 0 0 1 1935.48 1398)">-</text><text font-family="Calibri,Calibri_MSFontService,sans-serif" font-weight="400" font-size="50" transform="matrix(1 0 0 1 1950.94 1398)">0000</text><text font-family="Calibri,Calibri_MSFontService,sans-serif" font-weight="400" font-size="50" transform="matrix(1 0 0 1 2054.07 1398)">-</text><text font-family="Calibri,Calibri_MSFontService,sans-serif" font-weight="400" font-size="50" transform="matrix(1 0 0 1 2069.54 1398)">0000</text><text font-family="Calibri,Calibri_MSFontService,sans-serif" font-weight="400" font-size="50" transform="matrix(1 0 0 1 2172.66 1398)">-</text><text font-family="Calibri,Calibri_MSFontService,sans-serif" font-weight="400" font-size="50" transform="matrix(1 0 0 1 2188.13 1398)">0000</text><text font-family="Calibri,Calibri_MSFontService,sans-serif" font-weight="400" font-size="50" transform="matrix(1 0 0 1 2291.26 1398)">-</text><g clip-path="url(#clip7)"><text font-family="Calibri,Calibri_MSFontService,sans-serif" font-weight="400" font-size="50" transform="matrix(1 0 0 1 2306.73 1398)">000000000000</text></g><g clip-path="url(#clip8)"><text font-family="Calibri,Calibri_MSFontService,sans-serif" font-weight="400" font-size="50" transform="matrix(1 0 0 1 817.143 1398)">eeeeeeee</text></g><text font-family="Calibri,Calibri_MSFontService,sans-serif" font-weight="400" font-size="50" transform="matrix(1 0 0 1 1018.81 1398)">-</text><text font-family="Calibri,Calibri_MSFontService,sans-serif" font-weight="400" font-size="50" transform="matrix(1 0 0 1 1034.28 1398)">eeee</text><text font-family="Calibri,Calibri_MSFontService,sans-serif" font-weight="400" font-size="50" transform="matrix(1 0 0 1 1135.11 1398)">-</text><text font-family="Calibri,Calibri_MSFontService,sans-serif" font-weight="400" font-size="50" transform="matrix(1 0 0 1 1150.58 1398)">eeee</text><text font-family="Calibri,Calibri_MSFontService,sans-serif" font-weight="400" font-size="50" transform="matrix(1 0 0 1 1251.41 1398)">-</text><text font-family="Calibri,Calibri_MSFontService,sans-serif" font-weight="400" font-size="50" transform="matrix(1 0 0 1 1266.88 1398)">eeee</text><text font-family="Calibri,Calibri_MSFontService,sans-serif" font-weight="400" font-size="50" transform="matrix(1 0 0 1 1367.72 1398)">-</text><text font-family="Calibri,Calibri_MSFontService,sans-serif" font-weight="400" font-size="50" transform="matrix(1 0 0 1 1383.18 1398)">eeeeeeeeeeee</text><text font-family="Calibri,Calibri_MSFontService,sans-serif" font-weight="400" font-size="50" transform="matrix(1 0 0 1 627.507 1398)">1</text><text font-family="Calibri,Calibri_MSFontService,sans-serif" font-weight="400" font-size="50" transform="matrix(1 0 0 1 653.288 1398)">-</text><text font-family="Calibri,Calibri_MSFontService,sans-serif" font-weight="400" font-size="50" transform="matrix(1 0 0 1 668.757 1398)">1</text><text font-family="Calibri,Calibri_MSFontService,sans-serif" font-weight="400" font-size="50" transform="matrix(1 0 0 1 694.538 1398)">-</text><g clip-path="url(#clip9)"><text font-family="Calibri,Calibri_MSFontService,sans-serif" font-weight="400" font-size="50" transform="matrix(1 0 0 1 710.007 1398)">2023</text></g><g clip-path="url(#clip10)"><text font-family="Calibri,Calibri_MSFontService,sans-serif" font-weight="400" font-size="50" transform="matrix(1 0 0 1 2641.31 1467)">A red apple</text></g><g clip-path="url(#clip11)"><text font-family="Calibri,Calibri_MSFontService,sans-serif" font-weight="400" font-size="50" transform="matrix(1 0 0 1 1729.23 1467)">11111111</text></g><text font-family="Calibri,Calibri_MSFontService,sans-serif" font-weight="400" font-size="50" transform="matrix(1 0 0 1 1935.48 1467)">-</text><text font-family="Calibri,Calibri_MSFontService,sans-serif" font-weight="400" font-size="50" transform="matrix(1 0 0 1 1950.94 1467)">1111</text><text font-family="Calibri,Calibri_MSFontService,sans-serif" font-weight="400" font-size="50" transform="matrix(1 0 0 1 2054.07 1467)">-</text><text font-family="Calibri,Calibri_MSFontService,sans-serif" font-weight="400" font-size="50" transform="matrix(1 0 0 1 2069.54 1467)">1111</text><text font-family="Calibri,Calibri_MSFontService,sans-serif" font-weight="400" font-size="50" transform="matrix(1 0 0 1 2172.66 1467)">-</text><text font-family="Calibri,Calibri_MSFontService,sans-serif" font-weight="400" font-size="50" transform="matrix(1 0 0 1 2188.13 1467)">1111</text><text font-family="Calibri,Calibri_MSFontService,sans-serif" font-weight="400" font-size="50" transform="matrix(1 0 0 1 2291.26 1467)">-</text><g clip-path="url(#clip12)"><text font-family="Calibri,Calibri_MSFontService,sans-serif" font-weight="400" font-size="50" transform="matrix(1 0 0 1 2306.73 1467)">111111111111</text></g><g clip-path="url(#clip13)"><text font-family="Calibri,Calibri_MSFontService,sans-serif" font-weight="400" font-size="50" transform="matrix(1 0 0 1 817.143 1467)">eeeeeeee</text></g><text font-family="Calibri,Calibri_MSFontService,sans-serif" font-weight="400" font-size="50" transform="matrix(1 0 0 1 1018.81 1467)">-</text><text font-family="Calibri,Calibri_MSFontService,sans-serif" font-weight="400" font-size="50" transform="matrix(1 0 0 1 1034.28 1467)">eeee</text><text font-family="Calibri,Calibri_MSFontService,sans-serif" font-weight="400" font-size="50" transform="matrix(1 0 0 1 1135.11 1467)">-</text><text font-family="Calibri,Calibri_MSFontService,sans-serif" font-weight="400" font-size="50" transform="matrix(1 0 0 1 1150.58 1467)">eeee</text><text font-family="Calibri,Calibri_MSFontService,sans-serif" font-weight="400" font-size="50" transform="matrix(1 0 0 1 1251.41 1467)">-</text><text font-family="Calibri,Calibri_MSFontService,sans-serif" font-weight="400" font-size="50" transform="matrix(1 0 0 1 1266.88 1467)">eeee</text><text font-family="Calibri,Calibri_MSFontService,sans-serif" font-weight="400" font-size="50" transform="matrix(1 0 0 1 1367.72 1467)">-</text><text font-family="Calibri,Calibri_MSFontService,sans-serif" font-weight="400" font-size="50" transform="matrix(1 0 0 1 1383.18 1467)">eeeeeeeeeeee</text><text font-family="Calibri,Calibri_MSFontService,sans-serif" font-weight="400" font-size="50" transform="matrix(1 0 0 1 627.507 1467)">1</text><text font-family="Calibri,Calibri_MSFontService,sans-serif" font-weight="400" font-size="50" transform="matrix(1 0 0 1 653.288 1467)">-</text><text font-family="Calibri,Calibri_MSFontService,sans-serif" font-weight="400" font-size="50" transform="matrix(1 0 0 1 668.757 1467)">1</text><text font-family="Calibri,Calibri_MSFontService,sans-serif" font-weight="400" font-size="50" transform="matrix(1 0 0 1 694.538 1467)">-</text><g clip-path="url(#clip14)"><text font-family="Calibri,Calibri_MSFontService,sans-serif" font-weight="400" font-size="50" transform="matrix(1 0 0 1 710.007 1467)">2023</text></g><g clip-path="url(#clip15)"><text font-family="Calibri,Calibri_MSFontService,sans-serif" font-weight="400" font-size="50" transform="matrix(1 0 0 1 2641.31 1534)">A red apple</text></g><g clip-path="url(#clip16)"><text font-family="Calibri,Calibri_MSFontService,sans-serif" font-weight="400" font-size="50" transform="matrix(1 0 0 1 1729.23 1534)">11111111</text></g><text font-family="Calibri,Calibri_MSFontService,sans-serif" font-weight="400" font-size="50" transform="matrix(1 0 0 1 1935.48 1534)">-</text><text font-family="Calibri,Calibri_MSFontService,sans-serif" font-weight="400" font-size="50" transform="matrix(1 0 0 1 1950.94 1534)">1111</text><text font-family="Calibri,Calibri_MSFontService,sans-serif" font-weight="400" font-size="50" transform="matrix(1 0 0 1 2054.07 1534)">-</text><text font-family="Calibri,Calibri_MSFontService,sans-serif" font-weight="400" font-size="50" transform="matrix(1 0 0 1 2069.54 1534)">1111</text><text font-family="Calibri,Calibri_MSFontService,sans-serif" font-weight="400" font-size="50" transform="matrix(1 0 0 1 2172.66 1534)">-</text><text font-family="Calibri,Calibri_MSFontService,sans-serif" font-weight="400" font-size="50" transform="matrix(1 0 0 1 2188.13 1534)">1111</text><text font-family="Calibri,Calibri_MSFontService,sans-serif" font-weight="400" font-size="50" transform="matrix(1 0 0 1 2291.26 1534)">-</text><g clip-path="url(#clip17)"><text font-family="Calibri,Calibri_MSFontService,sans-serif" font-weight="400" font-size="50" transform="matrix(1 0 0 1 2306.73 1534)">111111111111</text></g><g clip-path="url(#clip18)"><text font-family="Calibri,Calibri_MSFontService,sans-serif" font-weight="400" font-size="50" transform="matrix(1 0 0 1 817.143 1534)">ffffffff</text></g><text font-family="Calibri,Calibri_MSFontService,sans-serif" font-weight="400" font-size="50" transform="matrix(1 0 0 1 940.893 1534)">-</text><text font-family="Calibri,Calibri_MSFontService,sans-serif" font-weight="400" font-size="50" transform="matrix(1 0 0 1 956.361 1534)">ffff</text><text font-family="Calibri,Calibri_MSFontService,sans-serif" font-weight="400" font-size="50" transform="matrix(1 0 0 1 1018.24 1534)">-</text><text font-family="Calibri,Calibri_MSFontService,sans-serif" font-weight="400" font-size="50" transform="matrix(1 0 0 1 1033.71 1534)">ffff</text><text font-family="Calibri,Calibri_MSFontService,sans-serif" font-weight="400" font-size="50" transform="matrix(1 0 0 1 1095.58 1534)">-</text><text font-family="Calibri,Calibri_MSFontService,sans-serif" font-weight="400" font-size="50" transform="matrix(1 0 0 1 1111.05 1534)">ffff</text><text font-family="Calibri,Calibri_MSFontService,sans-serif" font-weight="400" font-size="50" transform="matrix(1 0 0 1 1172.92 1534)">-</text><text font-family="Calibri,Calibri_MSFontService,sans-serif" font-weight="400" font-size="50" transform="matrix(1 0 0 1 1188.39 1534)">ffffffffffff</text><text font-family="Calibri,Calibri_MSFontService,sans-serif" font-weight="400" font-size="50" transform="matrix(1 0 0 1 627.507 1534)">1</text><text font-family="Calibri,Calibri_MSFontService,sans-serif" font-weight="400" font-size="50" transform="matrix(1 0 0 1 653.288 1534)">-</text><text font-family="Calibri,Calibri_MSFontService,sans-serif" font-weight="400" font-size="50" transform="matrix(1 0 0 1 668.757 1534)">2</text><text font-family="Calibri,Calibri_MSFontService,sans-serif" font-weight="400" font-size="50" transform="matrix(1 0 0 1 694.538 1534)">-</text><g clip-path="url(#clip19)"><text font-family="Calibri,Calibri_MSFontService,sans-serif" font-weight="400" font-size="50" transform="matrix(1 0 0 1 710.007 1534)">2023</text></g><g clip-path="url(#clip20)"><text font-family="Calibri,Calibri_MSFontService,sans-serif" font-weight="400" font-size="50" transform="matrix(1 0 0 1 2641.31 1603)">A geen door</text></g><g clip-path="url(#clip21)"><text font-family="Calibri,Calibri_MSFontService,sans-serif" font-weight="400" font-size="50" transform="matrix(1 0 0 1 1729.23 1603)">22222222</text></g><text font-family="Calibri,Calibri_MSFontService,sans-serif" font-weight="400" font-size="50" transform="matrix(1 0 0 1 1935.48 1603)">-</text><text font-family="Calibri,Calibri_MSFontService,sans-serif" font-weight="400" font-size="50" transform="matrix(1 0 0 1 1950.94 1603)">2222</text><text font-family="Calibri,Calibri_MSFontService,sans-serif" font-weight="400" font-size="50" transform="matrix(1 0 0 1 2054.07 1603)">-</text><text font-family="Calibri,Calibri_MSFontService,sans-serif" font-weight="400" font-size="50" transform="matrix(1 0 0 1 2069.54 1603)">2222</text><text font-family="Calibri,Calibri_MSFontService,sans-serif" font-weight="400" font-size="50" transform="matrix(1 0 0 1 2172.66 1603)">-</text><text font-family="Calibri,Calibri_MSFontService,sans-serif" font-weight="400" font-size="50" transform="matrix(1 0 0 1 2188.13 1603)">2222</text><text font-family="Calibri,Calibri_MSFontService,sans-serif" font-weight="400" font-size="50" transform="matrix(1 0 0 1 2291.26 1603)">-</text><g clip-path="url(#clip22)"><text font-family="Calibri,Calibri_MSFontService,sans-serif" font-weight="400" font-size="50" transform="matrix(1 0 0 1 2306.73 1603)">222222222222</text></g><g clip-path="url(#clip23)"><text font-family="Calibri,Calibri_MSFontService,sans-serif" font-weight="400" font-size="50" transform="matrix(1 0 0 1 817.143 1603)">ffffffff</text></g><text font-family="Calibri,Calibri_MSFontService,sans-serif" font-weight="400" font-size="50" transform="matrix(1 0 0 1 940.893 1603)">-</text><text font-family="Calibri,Calibri_MSFontService,sans-serif" font-weight="400" font-size="50" transform="matrix(1 0 0 1 956.361 1603)">ffff</text><text font-family="Calibri,Calibri_MSFontService,sans-serif" font-weight="400" font-size="50" transform="matrix(1 0 0 1 1018.24 1603)">-</text><text font-family="Calibri,Calibri_MSFontService,sans-serif" font-weight="400" font-size="50" transform="matrix(1 0 0 1 1033.71 1603)">ffff</text><text font-family="Calibri,Calibri_MSFontService,sans-serif" font-weight="400" font-size="50" transform="matrix(1 0 0 1 1095.58 1603)">-</text><text font-family="Calibri,Calibri_MSFontService,sans-serif" font-weight="400" font-size="50" transform="matrix(1 0 0 1 1111.05 1603)">ffff</text><text font-family="Calibri,Calibri_MSFontService,sans-serif" font-weight="400" font-size="50" transform="matrix(1 0 0 1 1172.92 1603)">-</text><text font-family="Calibri,Calibri_MSFontService,sans-serif" font-weight="400" font-size="50" transform="matrix(1 0 0 1 1188.39 1603)">ffffffffffff</text><text font-family="Calibri,Calibri_MSFontService,sans-serif" font-weight="400" font-size="50" transform="matrix(1 0 0 1 627.507 1603)">1</text><text font-family="Calibri,Calibri_MSFontService,sans-serif" font-weight="400" font-size="50" transform="matrix(1 0 0 1 653.288 1603)">-</text><text font-family="Calibri,Calibri_MSFontService,sans-serif" font-weight="400" font-size="50" transform="matrix(1 0 0 1 668.757 1603)">2</text><text font-family="Calibri,Calibri_MSFontService,sans-serif" font-weight="400" font-size="50" transform="matrix(1 0 0 1 694.538 1603)">-</text><g clip-path="url(#clip24)"><text font-family="Calibri,Calibri_MSFontService,sans-serif" font-weight="400" font-size="50" transform="matrix(1 0 0 1 710.007 1603)">2023</text></g></g></svg>