<svg width="1418" height="1915" xmlns="http://www.w3.org/2000/svg" xmlns:xlink="http://www.w3.org/1999/xlink" xml:space="preserve" overflow="hidden"><g transform="translate(-2620 -264)"><g><g><g><path d="M2886.44 422.125 2831.44 422.125 2831.44 329.312 2769.56 329.312 2769.56 336.188 2824.56 336.188 2824.56 422.125 2769.56 422.125 2769.56 429 2824.56 429 2824.56 514.938 2769.56 514.938 2769.56 521.812 2831.44 521.812 2831.44 429 2886.44 429 2886.44 422.125Z" stroke="#7F7F7F" stroke-width="3.4375" fill="#7F7F7F"/><path d="M2752.38 349.938 2718 349.938 2718 315.562 2752.38 315.562ZM2711.12 308.688 2711.12 356.812 2759.25 356.812 2759.25 308.688Z" stroke="#7F7F7F" stroke-width="3.4375" fill="#7F7F7F"/><path d="M2752.38 442.75 2718 442.75 2718 408.375 2752.38 408.375ZM2711.12 401.5 2711.12 449.625 2759.25 449.625 2759.25 401.5Z" stroke="#7F7F7F" stroke-width="3.4375" fill="#7F7F7F"/><path d="M2752.38 535.562 2718 535.562 2718 501.188 2752.38 501.188ZM2711.12 494.312 2711.12 542.438 2759.25 542.438 2759.25 494.312Z" stroke="#7F7F7F" stroke-width="3.4375" fill="#7F7F7F"/><path d="M2938 442.75 2903.62 442.75 2903.62 408.375 2938 408.375ZM2896.75 401.5 2896.75 449.625 2944.88 449.625 2944.88 401.5Z" stroke="#7F7F7F" stroke-width="3.4375" fill="#7F7F7F"/></g></g></g><text fill="#7F7F7F" font-family="Calibri,Calibri_MSFontService,sans-serif" font-weight="400" font-size="50" transform="matrix(1 0 0 1 2687.93 608)">Source model</text><g><g><g><path d="M3243.13 476.152 3234.53 501.933 3254.13 521.527 3279.91 512.933C3286.75 516.759 3294.02 519.759 3301.56 521.871L3313.59 545.933 3341.09 545.933 3353.13 521.871C3360.58 519.82 3367.75 516.816 3374.44 512.933L3400.22 521.527 3419.81 501.933 3411.22 476.152C3415.04 469.312 3418.04 462.042 3420.16 454.496L3444.22 442.465 3444.22 414.965 3419.81 403.277C3417.76 395.819 3414.76 388.656 3410.88 381.965L3419.47 356.183 3399.88 336.59 3374.09 345.183C3367.25 341.358 3359.98 338.358 3352.44 336.246L3340.75 312.125 3313.25 312.125 3301.22 336.188C3293.76 338.238 3286.6 341.242 3279.91 345.125L3254.13 336.531 3234.53 356.125 3243.13 381.906C3239.3 388.747 3236.3 396.016 3234.19 403.562L3210.13 415.25 3210.13 442.75 3234.19 454.781C3236.24 462.26 3239.24 469.443 3243.13 476.152ZM3217 419.595 3237.19 409.784 3240 408.409 3240.82 405.398C3242.8 398.374 3245.59 391.607 3249.15 385.237L3250.6 382.604 3249.65 379.751 3242.4 357.995 3255.98 344.403 3277.73 351.656 3280.67 352.636 3283.35 351.082C3289.53 347.497 3296.14 344.724 3303.03 342.832L3306 342.024 3307.37 339.274 3317.51 319 3336.45 319 3346.25 339.212 3347.63 342.017 3350.64 342.839C3357.66 344.816 3364.42 347.612 3370.79 351.172L3373.43 352.622 3376.28 351.67 3398.03 344.417 3411.62 358.009 3404.36 379.765 3403.39 382.704 3404.94 385.382C3408.53 391.559 3411.3 398.176 3413.19 405.065L3414.02 408.1 3416.85 409.458 3437.34 419.279 3437.34 438.209 3417.08 448.343 3414.33 449.718 3413.52 452.681C3411.55 459.705 3408.75 466.472 3405.19 472.842L3403.75 475.475 3404.69 478.328 3411.95 500.084 3398.36 513.676 3376.61 506.423 3373.67 505.443 3370.99 506.997C3364.81 510.583 3358.2 513.356 3351.31 515.247L3348.35 516.055 3346.97 518.805 3336.84 539.086 3317.85 539.086 3307.72 518.805 3306.34 516.055 3303.38 515.247C3296.36 513.27 3289.59 510.474 3283.23 506.914L3280.59 505.464 3277.74 506.416 3255.99 513.669 3242.4 500.077 3249.66 478.328 3250.63 475.389 3249.08 472.708C3245.49 466.53 3242.72 459.914 3240.83 453.025L3240.02 450.062 3237.27 448.687 3217 438.553Z"/><path d="M3327 470.308C3349.78 470.308 3368.25 451.84 3368.25 429.058 3368.25 406.277 3349.78 387.808 3327 387.808 3304.22 387.808 3285.75 406.277 3285.75 429.058 3285.82 451.811 3304.25 470.237 3327 470.308ZM3327 394.659C3345.98 394.659 3361.38 410.05 3361.38 429.034 3361.38 448.019 3345.98 463.409 3327 463.409 3308.02 463.409 3292.63 448.019 3292.63 429.034 3292.65 410.06 3308.03 394.684 3327 394.659Z"/></g></g></g><text font-family="Calibri,Calibri_MSFontService,sans-serif" font-weight="400" font-size="50" transform="matrix(1 0 0 1 3159.11 610)">Model</text><text font-family="Calibri,Calibri_MSFontService,sans-serif" font-weight="400" font-size="50" transform="matrix(1 0 0 1 3291.45 610)">-</text><text font-family="Calibri,Calibri_MSFontService,sans-serif" font-weight="400" font-size="50" transform="matrix(1 0 0 1 3306.92 610)">to</text><text font-family="Calibri,Calibri_MSFontService,sans-serif" font-weight="400" font-size="50" transform="matrix(1 0 0 1 3349.89 610)">-</text><text font-family="Calibri,Calibri_MSFontService,sans-serif" font-weight="400" font-size="50" transform="matrix(1 0 0 1 3365.36 610)">model</text><text font-family="Calibri,Calibri_MSFontService,sans-serif" font-weight="400" font-size="50" transform="matrix(1 0 0 1 3172.56 671)">transformation</text><text font-family="Calibri,Calibri_MSFontService,sans-serif" font-weight="400" font-size="50" transform="matrix(1 0 0 1 3678.29 604)">Staging</text><text font-family="Calibri,Calibri_MSFontService,sans-serif" font-weight="400" font-size="50" transform="matrix(1 0 0 1 3838.13 604)">to</text><text font-family="Calibri,Calibri_MSFontService,sans-serif" font-weight="400" font-size="50" transform="matrix(1 0 0 1 3892.56 604)">HDA</text><text font-family="Calibri,Calibri_MSFontService,sans-serif" font-weight="400" font-size="50" transform="matrix(1 0 0 1 3671.71 665)">mapping</text><text font-family="Calibri,Calibri_MSFontService,sans-serif" font-weight="400" font-size="50" transform="matrix(1 0 0 1 3861.35 665)">model</text><g><g><g><path d="M3930.69 2058.56 3930.69 1852.31C3930.69 1832.22 3879.33 1821.38 3831 1821.38 3782.67 1821.38 3731.31 1832.22 3731.31 1852.31L3731.31 2058.56C3731.31 2078.66 3782.67 2089.5 3831 2089.5 3879.33 2089.5 3930.69 2078.66 3930.69 2058.56ZM3831 1828.25C3884.12 1828.25 3923.81 1840.97 3923.81 1852.31 3923.81 1863.66 3884.12 1876.38 3831 1876.38 3777.88 1876.38 3738.19 1863.66 3738.19 1852.31 3738.19 1840.97 3777.88 1828.25 3831 1828.25ZM3738.19 1864.21C3753.76 1876.65 3793.3 1883.25 3831 1883.25 3868.7 1883.25 3908.24 1876.65 3923.81 1864.21L3923.81 1921.06C3923.81 1932.41 3884.12 1945.13 3831 1945.13 3777.88 1945.13 3738.19 1932.41 3738.19 1921.06ZM3738.19 1932.96C3753.76 1945.4 3793.3 1952 3831 1952 3868.7 1952 3908.24 1945.4 3923.81 1932.96L3923.81 1989.81C3923.81 2001.16 3884.12 2013.88 3831 2013.88 3777.88 2013.88 3738.19 2001.16 3738.19 1989.81ZM3738.19 2058.56 3738.19 2001.71C3753.76 2014.15 3793.3 2020.75 3831 2020.75 3868.7 2020.75 3908.24 2014.15 3923.81 2001.71L3923.81 2058.56C3923.81 2069.91 3884.12 2082.62 3831 2082.62 3777.88 2082.62 3738.19 2069.91 3738.19 2058.56Z" stroke="#000000" stroke-width="3.4375"/><path d="M3906.62 1910.75C3906.62 1914.55 3903.55 1917.63 3899.75 1917.63 3895.95 1917.63 3892.88 1914.55 3892.88 1910.75 3892.88 1906.95 3895.95 1903.88 3899.75 1903.88 3903.55 1903.88 3906.62 1906.95 3906.62 1910.75Z" stroke="#000000" stroke-width="3.4375"/><path d="M3906.62 1979.5C3906.62 1983.3 3903.55 1986.38 3899.75 1986.38 3895.95 1986.38 3892.88 1983.3 3892.88 1979.5 3892.88 1975.7 3895.95 1972.63 3899.75 1972.63 3903.55 1972.63 3906.62 1975.7 3906.62 1979.5Z" stroke="#000000" stroke-width="3.4375"/><path d="M3906.62 2048.25C3906.62 2052.05 3903.55 2055.12 3899.75 2055.12 3895.95 2055.12 3892.88 2052.05 3892.88 2048.25 3892.88 2044.45 3895.95 2041.38 3899.75 2041.38 3903.55 2041.38 3906.62 2044.45 3906.62 2048.25Z" stroke="#000000" stroke-width="3.4375"/></g></g></g><text font-family="Calibri,Calibri_MSFontService,sans-serif" font-weight="400" font-size="50" transform="matrix(1 0 0 1 3691.07 2133)">HDA database</text><g><g><g><path d="M2924.69 2058.56 2924.69 1852.31C2924.69 1832.22 2873.33 1821.38 2825 1821.38 2776.67 1821.38 2725.31 1832.22 2725.31 1852.31L2725.31 2058.56C2725.31 2078.66 2776.67 2089.5 2825 2089.5 2873.33 2089.5 2924.69 2078.66 2924.69 2058.56ZM2825 1828.25C2878.12 1828.25 2917.81 1840.97 2917.81 1852.31 2917.81 1863.66 2878.12 1876.38 2825 1876.38 2771.88 1876.38 2732.19 1863.66 2732.19 1852.31 2732.19 1840.97 2771.88 1828.25 2825 1828.25ZM2732.19 1864.21C2747.76 1876.65 2787.3 1883.25 2825 1883.25 2862.7 1883.25 2902.24 1876.65 2917.81 1864.21L2917.81 1921.06C2917.81 1932.41 2878.12 1945.13 2825 1945.13 2771.88 1945.13 2732.19 1932.41 2732.19 1921.06ZM2732.19 1932.96C2747.76 1945.4 2787.3 1952 2825 1952 2862.7 1952 2902.24 1945.4 2917.81 1932.96L2917.81 1989.81C2917.81 2001.16 2878.12 2013.88 2825 2013.88 2771.88 2013.88 2732.19 2001.16 2732.19 1989.81ZM2732.19 2058.56 2732.19 2001.71C2747.76 2014.15 2787.3 2020.75 2825 2020.75 2862.7 2020.75 2902.24 2014.15 2917.81 2001.71L2917.81 2058.56C2917.81 2069.91 2878.12 2082.62 2825 2082.62 2771.88 2082.62 2732.19 2069.91 2732.19 2058.56Z" stroke="#7F7F7F" stroke-width="3.4375" fill="#7F7F7F"/><path d="M2900.62 1910.75C2900.62 1914.55 2897.55 1917.63 2893.75 1917.63 2889.95 1917.63 2886.88 1914.55 2886.88 1910.75 2886.88 1906.95 2889.95 1903.88 2893.75 1903.88 2897.55 1903.88 2900.62 1906.95 2900.62 1910.75Z" stroke="#7F7F7F" stroke-width="3.4375" fill="#7F7F7F"/><path d="M2900.62 1979.5C2900.62 1983.3 2897.55 1986.38 2893.75 1986.38 2889.95 1986.38 2886.88 1983.3 2886.88 1979.5 2886.88 1975.7 2889.95 1972.63 2893.75 1972.63 2897.55 1972.63 2900.62 1975.7 2900.62 1979.5Z" stroke="#7F7F7F" stroke-width="3.4375" fill="#7F7F7F"/><path d="M2900.62 2048.25C2900.62 2052.05 2897.55 2055.12 2893.75 2055.12 2889.95 2055.12 2886.88 2052.05 2886.88 2048.25 2886.88 2044.45 2889.95 2041.38 2893.75 2041.38 2897.55 2041.38 2900.62 2044.45 2900.62 2048.25Z" stroke="#7F7F7F" stroke-width="3.4375" fill="#7F7F7F"/></g></g></g><text fill="#7F7F7F" font-family="Calibri,Calibri_MSFontService,sans-serif" font-weight="400" font-size="50" transform="matrix(1 0 0 1 2656.37 2133)">Source database</text><path d="M3584 2039.5 3584 1995.75 2992.5 1995.75 2992.5 1908.25 3584 1908.25 3584 1864.5 3671.5 1952Z" stroke="#000000" stroke-width="4.58333" stroke-miterlimit="8" fill="none" fill-rule="evenodd"/><g><g><g><path d="M3304.91 1966.14C3299 1966.34 3294.03 1970.62 3292.96 1976.43 3292.47 1979.14 3293.19 1981.92 3294.95 1984.03 3296.72 1986.06 3299.29 1987.2 3301.98 1987.14 3307.89 1986.95 3312.86 1982.66 3313.92 1976.85 3314.43 1974.15 3313.7 1971.36 3311.94 1969.25 3310.17 1967.22 3307.6 1966.08 3304.91 1966.14ZM3311.34 1976.43C3310.51 1980.99 3306.61 1984.36 3301.98 1984.52 3300.06 1984.57 3298.22 1983.77 3296.95 1982.33 3295.69 1980.8 3295.18 1978.79 3295.55 1976.85 3296.38 1972.29 3300.28 1968.92 3304.91 1968.76 3306.83 1968.71 3308.67 1969.51 3309.94 1970.95 3311.2 1972.48 3311.71 1974.49 3311.33 1976.43Z" stroke="#000000" stroke-width="1.3125"/><path d="M3382.39 1954.06 3376.27 1948.81C3375.46 1948.11 3374.96 1947.12 3374.87 1946.05L3373.69 1937C3373.12 1932.56 3369.28 1929.27 3364.8 1929.37L3352.98 1929.37 3354.24 1921.5 3288.62 1921.5 3286.74 1933.24 3271.5 1933.24 3271.08 1935.87 3286.32 1935.87 3285.27 1942.43 3275.86 1942.43 3275.44 1945.06 3284.86 1945.06 3284.02 1950.31 3266.04 1950.31 3265.62 1952.93 3283.61 1952.93 3279.82 1976.64 3290.31 1976.64C3290.32 1976.57 3290.32 1976.5 3290.33 1976.43 3290.47 1975.61 3290.68 1974.8 3290.95 1974.02L3282.89 1974.02 3285.63 1956.87 3345.96 1956.87 3343.22 1974.02 3316.69 1974.02C3316.74 1974.89 3316.7 1975.77 3316.57 1976.64L3345.44 1976.64 3345.88 1974.02 3352.58 1932 3357.8 1932 3354.87 1950.31 3374.08 1950.31C3374.24 1950.49 3374.41 1950.66 3374.59 1950.82L3380.64 1956.02C3381.15 1956.48 3381.38 1957.18 3381.23 1957.85L3379.13 1970.97C3378.79 1972.66 3377.35 1973.91 3375.63 1974.01L3371.82 1974.01C3371.87 1974.89 3371.83 1975.77 3371.7 1976.64L3375.64 1976.64C3378.65 1976.53 3381.18 1974.35 3381.72 1971.39L3383.82 1958.26C3384.12 1956.71 3383.57 1955.11 3382.39 1954.06ZM3350.39 1928.96 3349.9 1932 3349.93 1932 3346.38 1954.24 3286.05 1954.24 3290.86 1924.12 3351.16 1924.12ZM3357.96 1947.68 3360.46 1932 3364.8 1932C3367.96 1931.9 3370.68 1934.2 3371.09 1937.33L3372.26 1946.34C3372.31 1946.79 3372.4 1947.24 3372.53 1947.68Z" stroke="#000000" stroke-width="1.3125"/><path d="M3360.03 1966.14C3354.13 1966.33 3349.15 1970.62 3348.08 1976.43 3347.58 1979.14 3348.31 1981.92 3350.07 1984.03 3351.84 1986.06 3354.41 1987.2 3357.1 1987.14 3363.01 1986.95 3367.98 1982.66 3369.05 1976.85 3369.55 1974.14 3368.82 1971.36 3367.06 1969.25 3365.29 1967.22 3362.72 1966.08 3360.03 1966.14ZM3366.46 1976.43 3366.46 1976.43C3365.63 1980.99 3361.73 1984.36 3357.1 1984.52 3355.18 1984.57 3353.34 1983.77 3352.07 1982.33 3350.81 1980.8 3350.3 1978.79 3350.67 1976.85 3351.5 1972.29 3355.4 1968.92 3360.03 1968.76 3361.95 1968.71 3363.8 1969.51 3365.07 1970.95 3366.32 1972.48 3366.83 1974.49 3366.46 1976.43Z" stroke="#000000" stroke-width="1.3125"/></g></g></g><path d="M3492 427.854 3633.44 427.854 3633.44 430.146 3492 430.146ZM3628.86 415.25 3656.36 429 3628.86 442.75Z"/><g><g><g><path d="M3243.13 1513.15 3234.53 1538.93 3254.13 1558.53 3279.91 1549.93C3286.75 1553.76 3294.02 1556.76 3301.56 1558.87L3313.59 1582.93 3341.09 1582.93 3353.13 1558.87C3360.58 1556.82 3367.75 1553.82 3374.44 1549.93L3400.22 1558.53 3419.81 1538.93 3411.22 1513.15C3415.04 1506.31 3418.04 1499.04 3420.16 1491.5L3444.22 1479.46 3444.22 1451.96 3419.81 1440.28C3417.76 1432.82 3414.76 1425.66 3410.88 1418.96L3419.47 1393.18 3399.88 1373.59 3374.09 1382.18C3367.25 1378.36 3359.98 1375.36 3352.44 1373.25L3340.75 1349.13 3313.25 1349.13 3301.22 1373.19C3293.76 1375.24 3286.6 1378.24 3279.91 1382.13L3254.13 1373.53 3234.53 1393.13 3243.13 1418.91C3239.3 1425.75 3236.3 1433.02 3234.19 1440.56L3210.13 1452.25 3210.13 1479.75 3234.19 1491.78C3236.24 1499.26 3239.24 1506.44 3243.13 1513.15ZM3217 1456.6 3237.19 1446.78 3240 1445.41 3240.82 1442.4C3242.8 1435.37 3245.59 1428.61 3249.15 1422.24L3250.6 1419.6 3249.65 1416.75 3242.4 1395 3255.98 1381.4 3277.73 1388.66 3280.67 1389.64 3283.35 1388.08C3289.53 1384.5 3296.14 1381.72 3303.03 1379.83L3306 1379.02 3307.37 1376.27 3317.51 1356 3336.45 1356 3346.25 1376.21 3347.63 1379.02 3350.64 1379.84C3357.66 1381.82 3364.42 1384.61 3370.79 1388.17L3373.43 1389.62 3376.28 1388.67 3398.03 1381.42 3411.62 1395.01 3404.36 1416.76 3403.39 1419.7 3404.94 1422.38C3408.53 1428.56 3411.3 1435.18 3413.19 1442.06L3414.02 1445.1 3416.85 1446.46 3437.34 1456.28 3437.34 1475.21 3417.08 1485.34 3414.33 1486.72 3413.52 1489.68C3411.55 1496.71 3408.75 1503.47 3405.19 1509.84L3403.75 1512.48 3404.69 1515.33 3411.95 1537.08 3398.36 1550.68 3376.61 1543.42 3373.67 1542.44 3370.99 1544C3364.81 1547.58 3358.2 1550.36 3351.31 1552.25L3348.35 1553.05 3346.97 1555.8 3336.84 1576.09 3317.85 1576.09 3307.72 1555.8 3306.34 1553.05 3303.38 1552.25C3296.36 1550.27 3289.59 1547.47 3283.23 1543.91L3280.59 1542.46 3277.74 1543.42 3255.99 1550.67 3242.4 1537.08 3249.66 1515.33 3250.63 1512.39 3249.08 1509.71C3245.49 1503.53 3242.72 1496.91 3240.83 1490.02L3240.02 1487.06 3237.27 1485.69 3217 1475.55Z"/><path d="M3327 1507.31C3349.78 1507.31 3368.25 1488.84 3368.25 1466.06 3368.25 1443.28 3349.78 1424.81 3327 1424.81 3304.22 1424.81 3285.75 1443.28 3285.75 1466.06 3285.82 1488.81 3304.25 1507.24 3327 1507.31ZM3327 1431.66C3345.98 1431.66 3361.38 1447.05 3361.38 1466.03 3361.38 1485.02 3345.98 1500.41 3327 1500.41 3308.02 1500.41 3292.63 1485.02 3292.63 1466.03 3292.65 1447.06 3308.03 1431.68 3327 1431.66Z"/></g></g></g><text font-family="Calibri,Calibri_MSFontService,sans-serif" font-weight="400" font-size="50" transform="matrix(1 0 0 1 3155.39 1647)">Template engine</text><g><g><g><path d="M3747.12 1513.15 3738.53 1538.93 3758.12 1558.53 3783.91 1549.93C3790.75 1553.76 3798.02 1556.76 3805.56 1558.87L3817.59 1582.93 3845.09 1582.93 3857.12 1558.87C3864.58 1556.82 3871.75 1553.82 3878.44 1549.93L3904.22 1558.53 3923.81 1538.93 3915.22 1513.15C3919.04 1506.31 3922.04 1499.04 3924.16 1491.5L3948.22 1479.46 3948.22 1451.96 3923.81 1440.28C3921.76 1432.82 3918.76 1425.66 3914.88 1418.96L3923.47 1393.18 3903.88 1373.59 3878.09 1382.18C3871.25 1378.36 3863.98 1375.36 3856.44 1373.25L3844.75 1349.13 3817.25 1349.13 3805.22 1373.19C3797.76 1375.24 3790.6 1378.24 3783.91 1382.13L3758.12 1373.53 3738.53 1393.13 3747.12 1418.91C3743.3 1425.75 3740.3 1433.02 3738.19 1440.56L3714.12 1452.25 3714.12 1479.75 3738.19 1491.78C3740.23 1499.26 3743.24 1506.44 3747.12 1513.15ZM3721 1456.6 3741.19 1446.78 3744 1445.41 3744.82 1442.4C3746.8 1435.37 3749.59 1428.61 3753.15 1422.24L3754.6 1419.6 3753.65 1416.75 3746.4 1395 3759.98 1381.4 3781.73 1388.66 3784.67 1389.64 3787.35 1388.08C3793.53 1384.5 3800.14 1381.72 3807.03 1379.83L3810 1379.02 3811.37 1376.27 3821.51 1356 3840.45 1356 3850.25 1376.21 3851.62 1379.02 3854.64 1379.84C3861.66 1381.82 3868.42 1384.61 3874.79 1388.17L3877.43 1389.62 3880.28 1388.67 3902.03 1381.42 3915.62 1395.01 3908.36 1416.76 3907.38 1419.7 3908.94 1422.38C3912.53 1428.56 3915.3 1435.18 3917.19 1442.06L3918.02 1445.1 3920.85 1446.46 3941.34 1456.28 3941.34 1475.21 3921.08 1485.34 3918.33 1486.72 3917.52 1489.68C3915.55 1496.71 3912.75 1503.47 3909.19 1509.84L3907.75 1512.48 3908.69 1515.33 3915.95 1537.08 3902.36 1550.68 3880.61 1543.42 3877.67 1542.44 3874.99 1544C3868.81 1547.58 3862.2 1550.36 3855.31 1552.25L3852.35 1553.05 3850.97 1555.8 3840.84 1576.09 3821.85 1576.09 3811.72 1555.8 3810.34 1553.05 3807.38 1552.25C3800.36 1550.27 3793.59 1547.47 3787.23 1543.91L3784.59 1542.46 3781.74 1543.42 3759.99 1550.67 3746.4 1537.08 3753.66 1515.33 3754.63 1512.39 3753.08 1509.71C3749.49 1503.53 3746.72 1496.91 3744.83 1490.02L3744.02 1487.06 3741.27 1485.69 3721 1475.55Z"/><path d="M3831 1507.31C3853.78 1507.31 3872.25 1488.84 3872.25 1466.06 3872.25 1443.28 3853.78 1424.81 3831 1424.81 3808.22 1424.81 3789.75 1443.28 3789.75 1466.06 3789.82 1488.81 3808.25 1507.24 3831 1507.31ZM3831 1431.66C3849.98 1431.66 3865.38 1447.05 3865.38 1466.03 3865.38 1485.02 3849.98 1500.41 3831 1500.41 3812.02 1500.41 3796.62 1485.02 3796.62 1466.03 3796.65 1447.06 3812.03 1431.68 3831 1431.66Z"/></g></g></g><text font-family="Calibri,Calibri_MSFontService,sans-serif" font-weight="400" font-size="50" transform="matrix(1 0 0 1 3659.68 1647)">Template engine</text><path d="M1.14583-3.41775e-06 1.14757 582.046-1.1441 582.046-1.14583 3.41775e-06ZM13.7517 577.462 0.00180446 604.962-13.7483 577.463Z" transform="matrix(-1 0 0 1 3831 696)"/><path d="M1.14583-3.8018e-06 1.14612 85.8534-1.14555 85.8534-1.14583 3.8018e-06ZM13.7503 81.27 0.000360892 108.77-13.7497 81.2701Z" transform="matrix(-1 0 0 1 3831 1678)"/><path d="M1.14583-0.00346575 1.71818 189.224-0.573476 189.231-1.14583 0.00346575ZM14.3084 184.603 0.641667 212.144-13.1914 184.686Z" transform="matrix(-1 0 0 1 3326.64 1678)"/><g><g><g><path d="M2742.12 1513.15 2733.53 1538.93 2753.12 1558.53 2778.91 1549.93C2785.75 1553.76 2793.02 1556.76 2800.56 1558.87L2812.59 1582.93 2840.09 1582.93 2852.12 1558.87C2859.58 1556.82 2866.75 1553.82 2873.44 1549.93L2899.22 1558.53 2918.81 1538.93 2910.22 1513.15C2914.04 1506.31 2917.04 1499.04 2919.16 1491.5L2943.22 1479.46 2943.22 1451.96 2918.81 1440.28C2916.76 1432.82 2913.76 1425.66 2909.88 1418.96L2918.47 1393.18 2898.88 1373.59 2873.09 1382.18C2866.25 1378.36 2858.98 1375.36 2851.44 1373.25L2839.75 1349.13 2812.25 1349.13 2800.22 1373.19C2792.76 1375.24 2785.6 1378.24 2778.91 1382.13L2753.12 1373.53 2733.53 1393.13 2742.12 1418.91C2738.3 1425.75 2735.3 1433.02 2733.19 1440.56L2709.12 1452.25 2709.12 1479.75 2733.19 1491.78C2735.23 1499.26 2738.24 1506.44 2742.12 1513.15ZM2716 1456.6 2736.19 1446.78 2739 1445.41 2739.82 1442.4C2741.8 1435.37 2744.59 1428.61 2748.15 1422.24L2749.6 1419.6 2748.65 1416.75 2741.4 1395 2754.98 1381.4 2776.73 1388.66 2779.67 1389.64 2782.35 1388.08C2788.53 1384.5 2795.14 1381.72 2802.03 1379.83L2805 1379.02 2806.37 1376.27 2816.51 1356 2835.45 1356 2845.25 1376.21 2846.62 1379.02 2849.64 1379.84C2856.66 1381.82 2863.42 1384.61 2869.79 1388.17L2872.43 1389.62 2875.28 1388.67 2897.03 1381.42 2910.62 1395.01 2903.36 1416.76 2902.38 1419.7 2903.94 1422.38C2907.53 1428.56 2910.3 1435.18 2912.19 1442.06L2913.02 1445.1 2915.85 1446.46 2936.34 1456.28 2936.34 1475.21 2916.08 1485.34 2913.33 1486.72 2912.52 1489.68C2910.55 1496.71 2907.75 1503.47 2904.19 1509.84L2902.75 1512.48 2903.69 1515.33 2910.95 1537.08 2897.36 1550.68 2875.61 1543.42 2872.67 1542.44 2869.99 1544C2863.81 1547.58 2857.2 1550.36 2850.31 1552.25L2847.35 1553.05 2845.97 1555.8 2835.84 1576.09 2816.85 1576.09 2806.72 1555.8 2805.34 1553.05 2802.38 1552.25C2795.36 1550.27 2788.59 1547.47 2782.23 1543.91L2779.59 1542.46 2776.74 1543.42 2754.99 1550.67 2741.4 1537.08 2748.66 1515.33 2749.63 1512.39 2748.08 1509.71C2744.49 1503.53 2741.72 1496.91 2739.83 1490.02L2739.02 1487.06 2736.27 1485.69 2716 1475.55Z" stroke="#7F7F7F" stroke-width="3.4375" fill="#7F7F7F"/><path d="M2826 1507.31C2848.78 1507.31 2867.25 1488.84 2867.25 1466.06 2867.25 1443.28 2848.78 1424.81 2826 1424.81 2803.22 1424.81 2784.75 1443.28 2784.75 1466.06 2784.82 1488.81 2803.25 1507.24 2826 1507.31ZM2826 1431.66C2844.98 1431.66 2860.38 1447.05 2860.38 1466.03 2860.38 1485.02 2844.98 1500.41 2826 1500.41 2807.02 1500.41 2791.62 1485.02 2791.62 1466.03 2791.65 1447.06 2807.03 1431.68 2826 1431.66Z" stroke="#7F7F7F" stroke-width="3.4375" fill="#7F7F7F"/></g></g></g><text fill="#7F7F7F" font-family="Calibri,Calibri_MSFontService,sans-serif" font-weight="400" font-size="50" transform="matrix(1 0 0 1 2654.59 1647)">Template engine</text><path d="M1.14578-0.0113896 1.99922 85.8432-0.292336 85.866-1.14578 0.0113896ZM14.5572 81.1348 1.08123 108.77-12.9414 81.4081Z" transform="matrix(-1 0 0 1 2826.08 1678)"/><path d="M1.14583-0.00366257 3.1874 638.699 0.895747 638.706-1.14583 0.00366257ZM15.7769 634.076 2.11483 661.62-11.723 634.164Z" transform="matrix(-1 0 0 1 2828.11 639)"/><g><g><g><path d="M3741.51 307.694 3702.7 346.5 3741.51 385.306 3780.31 346.5ZM3712.42 346.5 3741.51 317.415 3770.59 346.5 3741.51 375.585Z"/><path d="M3869.13 346.5C3869.13 365.485 3884.52 380.875 3903.5 380.875 3922.49 380.875 3937.88 365.485 3937.88 346.5 3937.88 327.515 3922.49 312.125 3903.5 312.125 3884.52 312.146 3869.15 327.524 3869.13 346.5ZM3876 346.5C3876 331.312 3888.31 319 3903.5 319 3918.69 319 3931 331.312 3931 346.5 3931 361.688 3918.69 374 3903.5 374 3888.32 373.983 3876.02 361.681 3876 346.5Z"/><path d="M3741.94 480.562C3722.95 480.562 3707.56 495.953 3707.56 514.938 3707.56 533.922 3722.95 549.312 3741.94 549.312 3760.92 549.312 3776.31 533.922 3776.31 514.938 3776.29 495.961 3760.91 480.583 3741.94 480.562ZM3769.44 514.938C3769.44 530.125 3757.13 542.438 3741.94 542.438 3726.75 542.438 3714.44 530.125 3714.44 514.938 3714.44 499.75 3726.75 487.438 3741.94 487.438 3757.12 487.455 3769.42 499.757 3769.44 514.938Z"/><path d="M3937.88 480.562 3869.13 480.562 3869.13 549.312 3937.88 549.312ZM3931 542.438 3876 542.438 3876 487.438 3931 487.438Z"/><path d="M3741.94 394.625C3743.84 394.625 3745.38 396.164 3745.38 398.062L3745.38 461.952 3756.69 450.632C3758.06 449.313 3760.24 449.351 3761.56 450.717 3762.84 452.049 3762.84 454.161 3761.56 455.493L3744.37 472.68C3743.03 474.022 3740.85 474.022 3739.51 472.68L3722.32 455.493C3721 454.127 3721.04 451.951 3722.4 450.632 3723.74 449.346 3725.85 449.346 3727.18 450.632L3738.5 461.952 3738.5 398.062C3738.5 396.164 3740.04 394.625 3741.94 394.625Z"/><path d="M3787.63 344.07 3804.82 326.882C3806.19 325.563 3808.36 325.601 3809.68 326.967 3810.97 328.299 3810.97 330.411 3809.68 331.743L3798.36 343.062 3855.38 343.062C3857.27 343.062 3858.81 344.601 3858.81 346.5 3858.81 348.399 3857.27 349.938 3855.38 349.938L3798.36 349.938 3809.68 361.257C3811.05 362.576 3811.08 364.752 3809.77 366.118 3808.45 367.483 3806.27 367.521 3804.9 366.202 3804.88 366.175 3804.85 366.146 3804.82 366.118L3787.63 348.93C3786.29 347.588 3786.29 345.412 3787.63 344.07Z"/><path d="M3786.63 514.938C3786.63 513.039 3788.16 511.5 3790.06 511.5L3850.51 511.5 3839.19 500.18C3837.88 498.815 3837.91 496.639 3839.28 495.32 3840.61 494.033 3842.72 494.033 3844.06 495.32L3861.24 512.507C3862.58 513.85 3862.58 516.025 3861.24 517.368L3844.06 534.555C3842.69 535.874 3840.51 535.836 3839.19 534.471 3837.91 533.139 3837.91 531.027 3839.19 529.695L3850.51 518.375 3790.06 518.375C3788.16 518.375 3786.63 516.836 3786.63 514.938Z"/></g></g></g><path d="M3832.44 696 3832.44 999.627 3327 999.627 3328.15 998.481 3328.15 1278.05 3325.85 1278.05 3325.85 997.335 3831.3 997.335 3830.15 998.481 3830.15 696ZM3340.75 1273.46 3327 1300.96 3313.25 1273.46Z"/><text font-family="Calibri,Calibri_MSFontService,sans-serif" font-weight="400" font-size="50" transform="matrix(1 0 0 1 3136.36 2135)">Staging</text><text font-family="Calibri,Calibri_MSFontService,sans-serif" font-weight="400" font-size="50" transform="matrix(1 0 0 1 3296.21 2135)">to</text><text font-family="Calibri,Calibri_MSFontService,sans-serif" font-weight="400" font-size="50" transform="matrix(1 0 0 1 3350.63 2135)">HDA ETL</text><path d="M2993 427.854 3138.76 427.854 3138.76 430.146 2993 430.146ZM3134.18 415.25 3161.68 429 3134.18 442.75Z"/></g></svg>