<svg width="1431" height="2141" xmlns="http://www.w3.org/2000/svg" xmlns:xlink="http://www.w3.org/1999/xlink" xml:space="preserve" overflow="hidden"><g transform="translate(-2577 -264)"><g><g><g><path d="M2857.44 422.125 2802.44 422.125 2802.44 329.312 2740.56 329.312 2740.56 336.188 2795.56 336.188 2795.56 422.125 2740.56 422.125 2740.56 429 2795.56 429 2795.56 514.938 2740.56 514.938 2740.56 521.812 2802.44 521.812 2802.44 429 2857.44 429 2857.44 422.125Z" stroke="#7F7F7F" stroke-width="3.4375" fill="#7F7F7F"/><path d="M2723.38 349.938 2689 349.938 2689 315.562 2723.38 315.562ZM2682.13 308.688 2682.13 356.812 2730.25 356.812 2730.25 308.688Z" stroke="#7F7F7F" stroke-width="3.4375" fill="#7F7F7F"/><path d="M2723.38 442.75 2689 442.75 2689 408.375 2723.38 408.375ZM2682.13 401.5 2682.13 449.625 2730.25 449.625 2730.25 401.5Z" stroke="#7F7F7F" stroke-width="3.4375" fill="#7F7F7F"/><path d="M2723.38 535.562 2689 535.562 2689 501.188 2723.38 501.188ZM2682.13 494.312 2682.13 542.438 2730.25 542.438 2730.25 494.312Z" stroke="#7F7F7F" stroke-width="3.4375" fill="#7F7F7F"/><path d="M2909 442.75 2874.63 442.75 2874.63 408.375 2909 408.375ZM2867.75 401.5 2867.75 449.625 2915.88 449.625 2915.88 401.5Z" stroke="#7F7F7F" stroke-width="3.4375" fill="#7F7F7F"/></g></g></g><text fill="#7F7F7F" font-family="Calibri,Calibri_MSFontService,sans-serif" font-weight="400" font-size="50" transform="matrix(1 0 0 1 2658.35 608)">Source model</text><g><g><g><path d="M3213.12 476.152 3204.53 501.933 3224.12 521.527 3249.91 512.933C3256.75 516.759 3264.02 519.759 3271.56 521.871L3283.59 545.933 3311.09 545.933 3323.12 521.871C3330.58 519.82 3337.75 516.816 3344.44 512.933L3370.22 521.527 3389.81 501.933 3381.22 476.152C3385.04 469.312 3388.04 462.042 3390.16 454.496L3414.22 442.465 3414.22 414.965 3389.81 403.277C3387.76 395.819 3384.76 388.656 3380.88 381.965L3389.47 356.183 3369.88 336.59 3344.09 345.183C3337.25 341.358 3329.98 338.358 3322.44 336.246L3310.75 312.125 3283.25 312.125 3271.22 336.188C3263.76 338.238 3256.6 341.242 3249.91 345.125L3224.12 336.531 3204.53 356.125 3213.12 381.906C3209.3 388.747 3206.3 396.016 3204.19 403.562L3180.12 415.25 3180.12 442.75 3204.19 454.781C3206.23 462.26 3209.24 469.443 3213.12 476.152ZM3187 419.595 3207.19 409.784 3210 408.409 3210.82 405.398C3212.8 398.374 3215.59 391.607 3219.15 385.237L3220.6 382.604 3219.65 379.751 3212.4 357.995 3225.98 344.403 3247.73 351.656 3250.67 352.636 3253.35 351.082C3259.53 347.497 3266.14 344.724 3273.03 342.832L3276 342.024 3277.37 339.274 3287.51 319 3306.45 319 3316.25 339.212 3317.62 342.017 3320.64 342.839C3327.66 344.816 3334.42 347.612 3340.79 351.172L3343.43 352.622 3346.28 351.67 3368.03 344.417 3381.62 358.009 3374.36 379.765 3373.38 382.704 3374.94 385.382C3378.53 391.559 3381.3 398.176 3383.19 405.065L3384.02 408.1 3386.85 409.458 3407.34 419.279 3407.34 438.209 3387.08 448.343 3384.33 449.718 3383.52 452.681C3381.55 459.705 3378.75 466.472 3375.19 472.842L3373.75 475.475 3374.69 478.328 3381.95 500.084 3368.36 513.676 3346.61 506.423 3343.67 505.443 3340.99 506.997C3334.81 510.583 3328.2 513.356 3321.31 515.247L3318.35 516.055 3316.97 518.805 3306.84 539.086 3287.85 539.086 3277.72 518.805 3276.34 516.055 3273.38 515.247C3266.36 513.27 3259.59 510.474 3253.23 506.914L3250.59 505.464 3247.74 506.416 3225.99 513.669 3212.4 500.077 3219.66 478.328 3220.63 475.389 3219.08 472.708C3215.49 466.53 3212.72 459.914 3210.83 453.025L3210.02 450.062 3207.27 448.687 3187 438.553Z"/><path d="M3297 470.308C3319.78 470.308 3338.25 451.84 3338.25 429.058 3338.25 406.277 3319.78 387.808 3297 387.808 3274.22 387.808 3255.75 406.277 3255.75 429.058 3255.82 451.811 3274.25 470.237 3297 470.308ZM3297 394.659C3315.98 394.659 3331.38 410.05 3331.38 429.034 3331.38 448.019 3315.98 463.409 3297 463.409 3278.02 463.409 3262.62 448.019 3262.62 429.034 3262.65 410.06 3278.03 394.684 3297 394.659Z"/></g></g></g><text font-family="Calibri,Calibri_MSFontService,sans-serif" font-weight="400" font-size="50" transform="matrix(1 0 0 1 3129.53 610)">Model</text><text font-family="Calibri,Calibri_MSFontService,sans-serif" font-weight="400" font-size="50" transform="matrix(1 0 0 1 3261.88 610)">-</text><text font-family="Calibri,Calibri_MSFontService,sans-serif" font-weight="400" font-size="50" transform="matrix(1 0 0 1 3277.35 610)">to</text><text font-family="Calibri,Calibri_MSFontService,sans-serif" font-weight="400" font-size="50" transform="matrix(1 0 0 1 3320.31 610)">-</text><text font-family="Calibri,Calibri_MSFontService,sans-serif" font-weight="400" font-size="50" transform="matrix(1 0 0 1 3335.78 610)">model</text><text font-family="Calibri,Calibri_MSFontService,sans-serif" font-weight="400" font-size="50" transform="matrix(1 0 0 1 3142.99 671)">transformation</text><text font-family="Calibri,Calibri_MSFontService,sans-serif" font-weight="400" font-size="50" transform="matrix(1 0 0 1 3653.02 604)">Source</text><text font-family="Calibri,Calibri_MSFontService,sans-serif" font-weight="400" font-size="50" transform="matrix(1 0 0 1 3804.27 604)">to</text><text font-family="Calibri,Calibri_MSFontService,sans-serif" font-weight="400" font-size="50" transform="matrix(1 0 0 1 3858.7 604)">HDA</text><text font-family="Calibri,Calibri_MSFontService,sans-serif" font-weight="400" font-size="50" transform="matrix(1 0 0 1 3642.14 665)">mapping</text><text font-family="Calibri,Calibri_MSFontService,sans-serif" font-weight="400" font-size="50" transform="matrix(1 0 0 1 3831.77 665)">model</text><path d="M3462 427.854 3603.44 427.854 3603.44 430.146 3462 430.146ZM3598.86 415.25 3626.36 429 3598.86 442.75Z"/><g><g><g><path d="M3213.12 1101.15 3204.53 1126.93 3224.12 1146.53 3249.91 1137.93C3256.75 1141.76 3264.02 1144.76 3271.56 1146.87L3283.59 1170.93 3311.09 1170.93 3323.12 1146.87C3330.58 1144.82 3337.75 1141.82 3344.44 1137.93L3370.22 1146.53 3389.81 1126.93 3381.22 1101.15C3385.04 1094.31 3388.04 1087.04 3390.16 1079.5L3414.22 1067.46 3414.22 1039.96 3389.81 1028.28C3387.76 1020.82 3384.76 1013.66 3380.88 1006.96L3389.47 981.183 3369.88 961.59 3344.09 970.183C3337.25 966.358 3329.98 963.358 3322.44 961.246L3310.75 937.125 3283.25 937.125 3271.22 961.187C3263.76 963.238 3256.6 966.242 3249.91 970.125L3224.12 961.531 3204.53 981.125 3213.12 1006.91C3209.3 1013.75 3206.3 1021.02 3204.19 1028.56L3180.12 1040.25 3180.12 1067.75 3204.19 1079.78C3206.23 1087.26 3209.24 1094.44 3213.12 1101.15ZM3187 1044.59 3207.19 1034.78 3210 1033.41 3210.82 1030.4C3212.8 1023.37 3215.59 1016.61 3219.15 1010.24L3220.6 1007.6 3219.65 1004.75 3212.4 982.995 3225.98 969.403 3247.73 976.656 3250.67 977.636 3253.35 976.082C3259.53 972.497 3266.14 969.724 3273.03 967.832L3276 967.024 3277.37 964.274 3287.51 944 3306.45 944 3316.25 964.212 3317.62 967.017 3320.64 967.839C3327.66 969.816 3334.42 972.612 3340.79 976.172L3343.43 977.622 3346.28 976.67 3368.03 969.417 3381.62 983.009 3374.36 1004.76 3373.38 1007.7 3374.94 1010.38C3378.53 1016.56 3381.3 1023.18 3383.19 1030.06L3384.02 1033.1 3386.85 1034.46 3407.34 1044.28 3407.34 1063.21 3387.08 1073.34 3384.33 1074.72 3383.52 1077.68C3381.55 1084.71 3378.75 1091.47 3375.19 1097.84L3373.75 1100.47 3374.69 1103.33 3381.95 1125.08 3368.36 1138.68 3346.61 1131.42 3343.67 1130.44 3340.99 1132C3334.81 1135.58 3328.2 1138.36 3321.31 1140.25L3318.35 1141.05 3316.97 1143.8 3306.84 1164.09 3287.85 1164.09 3277.72 1143.8 3276.34 1141.05 3273.38 1140.25C3266.36 1138.27 3259.59 1135.47 3253.23 1131.91L3250.59 1130.46 3247.74 1131.42 3225.99 1138.67 3212.4 1125.08 3219.66 1103.33 3220.63 1100.39 3219.08 1097.71C3215.49 1091.53 3212.72 1084.91 3210.83 1078.02L3210.02 1075.06 3207.27 1073.69 3187 1063.55Z"/><path d="M3297 1095.31C3319.78 1095.31 3338.25 1076.84 3338.25 1054.06 3338.25 1031.28 3319.78 1012.81 3297 1012.81 3274.22 1012.81 3255.75 1031.28 3255.75 1054.06 3255.82 1076.81 3274.25 1095.24 3297 1095.31ZM3297 1019.66C3315.98 1019.66 3331.38 1035.05 3331.38 1054.03 3331.38 1073.02 3315.98 1088.41 3297 1088.41 3278.02 1088.41 3262.62 1073.02 3262.62 1054.03 3262.65 1035.06 3278.03 1019.68 3297 1019.66Z"/></g></g></g><text font-family="Calibri,Calibri_MSFontService,sans-serif" font-weight="400" font-size="50" transform="matrix(1 0 0 1 3125.81 1235)">Template engine</text><g><g><g><path d="M3718.12 1101.15 3709.53 1126.93 3729.12 1146.53 3754.91 1137.93C3761.75 1141.76 3769.02 1144.76 3776.56 1146.87L3788.59 1170.93 3816.09 1170.93 3828.12 1146.87C3835.58 1144.82 3842.75 1141.82 3849.44 1137.93L3875.22 1146.53 3894.81 1126.93 3886.22 1101.15C3890.04 1094.31 3893.04 1087.04 3895.16 1079.5L3919.22 1067.46 3919.22 1039.96 3894.81 1028.28C3892.76 1020.82 3889.76 1013.66 3885.87 1006.96L3894.47 981.183 3874.87 961.59 3849.09 970.183C3842.25 966.358 3834.98 963.358 3827.44 961.246L3815.75 937.125 3788.25 937.125 3776.22 961.187C3768.76 963.238 3761.6 966.242 3754.91 970.125L3729.12 961.531 3709.53 981.125 3718.12 1006.91C3714.3 1013.75 3711.3 1021.02 3709.19 1028.56L3685.12 1040.25 3685.12 1067.75 3709.19 1079.78C3711.23 1087.26 3714.24 1094.44 3718.12 1101.15ZM3692 1044.59 3712.19 1034.78 3715 1033.41 3715.82 1030.4C3717.8 1023.37 3720.59 1016.61 3724.15 1010.24L3725.6 1007.6 3724.65 1004.75 3717.4 982.995 3730.98 969.403 3752.73 976.656 3755.67 977.636 3758.35 976.082C3764.53 972.497 3771.14 969.724 3778.03 967.832L3781 967.024 3782.37 964.274 3792.51 944 3811.45 944 3821.25 964.212 3822.62 967.017 3825.64 967.839C3832.66 969.816 3839.42 972.612 3845.79 976.172L3848.43 977.622 3851.28 976.67 3873.03 969.417 3886.62 983.009 3879.36 1004.76 3878.38 1007.7 3879.94 1010.38C3883.53 1016.56 3886.3 1023.18 3888.19 1030.06L3889.02 1033.1 3891.85 1034.46 3912.34 1044.28 3912.34 1063.21 3892.08 1073.34 3889.33 1074.72 3888.52 1077.68C3886.55 1084.71 3883.75 1091.47 3880.19 1097.84L3878.75 1100.47 3879.69 1103.33 3886.95 1125.08 3873.36 1138.68 3851.61 1131.42 3848.67 1130.44 3845.99 1132C3839.81 1135.58 3833.2 1138.36 3826.31 1140.25L3823.35 1141.05 3821.97 1143.8 3811.84 1164.09 3792.85 1164.09 3782.72 1143.8 3781.34 1141.05 3778.38 1140.25C3771.36 1138.27 3764.59 1135.47 3758.23 1131.91L3755.59 1130.46 3752.74 1131.42 3730.99 1138.67 3717.4 1125.08 3724.66 1103.33 3725.63 1100.39 3724.08 1097.71C3720.49 1091.53 3717.72 1084.91 3715.83 1078.02L3715.02 1075.06 3712.27 1073.69 3692 1063.55Z"/><path d="M3802 1095.31C3824.78 1095.31 3843.25 1076.84 3843.25 1054.06 3843.25 1031.28 3824.78 1012.81 3802 1012.81 3779.22 1012.81 3760.75 1031.28 3760.75 1054.06 3760.82 1076.81 3779.25 1095.24 3802 1095.31ZM3802 1019.66C3820.98 1019.66 3836.37 1035.05 3836.37 1054.03 3836.37 1073.02 3820.98 1088.41 3802 1088.41 3783.02 1088.41 3767.62 1073.02 3767.62 1054.03 3767.65 1035.06 3783.03 1019.68 3802 1019.66Z"/></g></g></g><text font-family="Calibri,Calibri_MSFontService,sans-serif" font-weight="400" font-size="50" transform="matrix(1 0 0 1 3630.1 1235)">Template engine</text><path d="M1.14583-1.07262e-05 1.14742 169.846-1.14424 169.846-1.14583 1.07262e-05ZM13.7515 165.263 0.00180446 192.763-13.7485 165.263Z" transform="matrix(-1 0 0 1 3802 696)"/><g><g><g><path d="M3712.51 307.694 3673.7 346.5 3712.51 385.306 3751.31 346.5ZM3683.42 346.5 3712.51 317.415 3741.59 346.5 3712.51 375.585Z"/><path d="M3840.12 346.5C3840.12 365.485 3855.52 380.875 3874.5 380.875 3893.48 380.875 3908.88 365.485 3908.88 346.5 3908.88 327.515 3893.48 312.125 3874.5 312.125 3855.52 312.146 3840.15 327.524 3840.12 346.5ZM3847 346.5C3847 331.312 3859.31 319 3874.5 319 3889.69 319 3902 331.312 3902 346.5 3902 361.688 3889.69 374 3874.5 374 3859.32 373.983 3847.02 361.681 3847 346.5Z"/><path d="M3712.94 480.562C3693.95 480.562 3678.56 495.953 3678.56 514.938 3678.56 533.922 3693.95 549.312 3712.94 549.312 3731.92 549.312 3747.31 533.922 3747.31 514.938 3747.29 495.961 3731.91 480.583 3712.94 480.562ZM3740.44 514.938C3740.44 530.125 3728.13 542.438 3712.94 542.438 3697.75 542.438 3685.44 530.125 3685.44 514.938 3685.44 499.75 3697.75 487.438 3712.94 487.438 3728.12 487.455 3740.42 499.757 3740.44 514.938Z"/><path d="M3908.88 480.562 3840.12 480.562 3840.12 549.312 3908.88 549.312ZM3902 542.438 3847 542.438 3847 487.438 3902 487.438Z"/><path d="M3712.94 394.625C3714.84 394.625 3716.38 396.164 3716.38 398.062L3716.38 461.952 3727.69 450.632C3729.06 449.313 3731.24 449.351 3732.56 450.717 3733.84 452.049 3733.84 454.161 3732.56 455.493L3715.37 472.68C3714.03 474.022 3711.85 474.022 3710.51 472.68L3693.32 455.493C3692 454.127 3692.04 451.951 3693.4 450.632 3694.74 449.346 3696.85 449.346 3698.18 450.632L3709.5 461.952 3709.5 398.062C3709.5 396.164 3711.04 394.625 3712.94 394.625Z"/><path d="M3758.63 344.07 3775.82 326.882C3777.19 325.563 3779.36 325.601 3780.68 326.967 3781.97 328.299 3781.97 330.411 3780.68 331.743L3769.36 343.062 3826.38 343.062C3828.27 343.062 3829.81 344.601 3829.81 346.5 3829.81 348.399 3828.27 349.938 3826.38 349.938L3769.36 349.938 3780.68 361.257C3782.05 362.576 3782.08 364.752 3780.76 366.118 3779.45 367.483 3777.27 367.521 3775.9 366.202 3775.88 366.175 3775.85 366.146 3775.82 366.118L3758.63 348.93C3757.29 347.588 3757.29 345.412 3758.63 344.07Z"/><path d="M3757.62 514.938C3757.62 513.039 3759.16 511.5 3761.06 511.5L3821.51 511.5 3810.19 500.18C3808.88 498.815 3808.91 496.639 3810.28 495.32 3811.61 494.033 3813.72 494.033 3815.06 495.32L3832.24 512.507C3833.58 513.85 3833.58 516.025 3832.24 517.368L3815.06 534.555C3813.69 535.874 3811.51 535.836 3810.19 534.471 3808.91 533.139 3808.91 531.027 3810.19 529.695L3821.51 518.375 3761.06 518.375C3759.16 518.375 3757.62 516.836 3757.62 514.938Z"/></g></g></g><path d="M3802.44 696 3802.44 793.528 3297 793.528 3298.15 792.382 3298.15 865.846 3295.85 865.846 3295.85 791.236 3801.3 791.236 3800.15 792.382 3800.15 696ZM3310.75 861.263 3297 888.763 3283.25 861.263Z"/><path d="M2964 427.854 3109.77 427.854 3109.77 430.146 2964 430.146ZM3105.18 415.25 3132.68 429 3105.18 442.75Z"/><text font-family="Calibri,Calibri_MSFontService,sans-serif" font-weight="400" font-size="50" transform="matrix(1 0 0 1 3206.88 1797)">ETL code</text><g><g><g><path d="M3228.25 1595.38 3365.75 1595.38 3365.75 1602.25 3228.25 1602.25Z"/><path d="M3228.25 1567.88 3293.56 1567.88 3293.56 1574.75 3228.25 1574.75Z"/><path d="M3228.25 1622.88 3365.75 1622.88 3365.75 1629.75 3228.25 1629.75Z"/><path d="M3228.25 1650.38 3365.75 1650.38 3365.75 1657.25 3228.25 1657.25Z"/><path d="M3228.25 1677.88 3365.75 1677.88 3365.75 1684.75 3228.25 1684.75Z"/><path d="M3228.25 1705.38 3365.75 1705.38 3365.75 1712.25 3228.25 1712.25Z"/><path d="M3193.88 1478.5 3193.88 1753.5 3400.12 1753.5 3400.12 1552.7 3325.92 1478.5ZM3328 1490.29 3388.33 1550.63C3388.34 1550.64 3388.34 1550.66 3388.33 1550.68 3388.32 1550.68 3388.32 1550.69 3388.31 1550.69L3327.94 1550.69 3327.94 1490.32C3327.94 1490.3 3327.95 1490.28 3327.97 1490.28 3327.98 1490.28 3327.99 1490.29 3328 1490.29ZM3200.75 1746.62 3200.75 1485.38 3321.06 1485.38 3321.06 1557.56 3393.25 1557.56 3393.25 1746.62Z"/></g></g></g><path d="M1.14583-2.23229e-06 1.14615 162.329-1.14552 162.329-1.14583 2.23229e-06ZM13.7503 157.746 0.000360892 185.246-13.7497 157.746Z" transform="matrix(-1 0 0 1 3297 1266)"/><text font-family="Calibri,Calibri_MSFontService,sans-serif" font-weight="400" font-size="50" transform="matrix(1 0 0 1 3704.87 1797)">DDL code</text><g><g><g><path d="M3733.25 1595.38 3870.75 1595.38 3870.75 1602.25 3733.25 1602.25Z"/><path d="M3733.25 1567.88 3798.56 1567.88 3798.56 1574.75 3733.25 1574.75Z"/><path d="M3733.25 1622.88 3870.75 1622.88 3870.75 1629.75 3733.25 1629.75Z"/><path d="M3733.25 1650.38 3870.75 1650.38 3870.75 1657.25 3733.25 1657.25Z"/><path d="M3733.25 1677.88 3870.75 1677.88 3870.75 1684.75 3733.25 1684.75Z"/><path d="M3733.25 1705.38 3870.75 1705.38 3870.75 1712.25 3733.25 1712.25Z"/><path d="M3698.87 1478.5 3698.87 1753.5 3905.12 1753.5 3905.12 1552.7 3830.92 1478.5ZM3833 1490.29 3893.33 1550.63C3893.34 1550.64 3893.34 1550.66 3893.33 1550.68 3893.32 1550.68 3893.32 1550.69 3893.31 1550.69L3832.94 1550.69 3832.94 1490.32C3832.94 1490.3 3832.95 1490.28 3832.97 1490.28 3832.98 1490.28 3832.99 1490.29 3833 1490.29ZM3705.75 1746.62 3705.75 1485.38 3826.06 1485.38 3826.06 1557.56 3898.25 1557.56 3898.25 1746.62Z"/></g></g></g><path d="M1.14583-2.23229e-06 1.14615 162.329-1.14552 162.329-1.14583 2.23229e-06ZM13.7503 157.746 0.000360892 185.246-13.7497 157.746Z" transform="matrix(-1 0 0 1 3802 1266)"/><g><g><g><path d="M3902.69 2286.56 3902.69 2080.31C3902.69 2060.22 3851.33 2049.38 3803 2049.38 3754.67 2049.38 3703.31 2060.22 3703.31 2080.31L3703.31 2286.56C3703.31 2306.66 3754.67 2317.5 3803 2317.5 3851.33 2317.5 3902.69 2306.66 3902.69 2286.56ZM3803 2056.25C3856.12 2056.25 3895.81 2068.97 3895.81 2080.31 3895.81 2091.66 3856.12 2104.38 3803 2104.38 3749.88 2104.38 3710.19 2091.66 3710.19 2080.31 3710.19 2068.97 3749.88 2056.25 3803 2056.25ZM3710.19 2092.21C3725.76 2104.65 3765.3 2111.25 3803 2111.25 3840.7 2111.25 3880.24 2104.65 3895.81 2092.21L3895.81 2149.06C3895.81 2160.41 3856.12 2173.12 3803 2173.12 3749.88 2173.12 3710.19 2160.41 3710.19 2149.06ZM3710.19 2160.96C3725.76 2173.4 3765.3 2180 3803 2180 3840.7 2180 3880.24 2173.4 3895.81 2160.96L3895.81 2217.81C3895.81 2229.16 3856.12 2241.88 3803 2241.88 3749.88 2241.88 3710.19 2229.16 3710.19 2217.81ZM3710.19 2286.56 3710.19 2229.71C3725.76 2242.15 3765.3 2248.75 3803 2248.75 3840.7 2248.75 3880.24 2242.15 3895.81 2229.71L3895.81 2286.56C3895.81 2297.91 3856.12 2310.62 3803 2310.62 3749.88 2310.62 3710.19 2297.91 3710.19 2286.56Z" stroke="#000000" stroke-width="3.4375"/><path d="M3878.62 2138.75C3878.62 2142.55 3875.55 2145.62 3871.75 2145.62 3867.95 2145.62 3864.88 2142.55 3864.88 2138.75 3864.88 2134.95 3867.95 2131.88 3871.75 2131.88 3875.55 2131.88 3878.62 2134.95 3878.62 2138.75Z" stroke="#000000" stroke-width="3.4375"/><path d="M3878.62 2207.5C3878.62 2211.3 3875.55 2214.38 3871.75 2214.38 3867.95 2214.38 3864.88 2211.3 3864.88 2207.5 3864.88 2203.7 3867.95 2200.62 3871.75 2200.62 3875.55 2200.62 3878.62 2203.7 3878.62 2207.5Z" stroke="#000000" stroke-width="3.4375"/><path d="M3878.62 2276.25C3878.62 2280.05 3875.55 2283.12 3871.75 2283.12 3867.95 2283.12 3864.88 2280.05 3864.88 2276.25 3864.88 2272.45 3867.95 2269.38 3871.75 2269.38 3875.55 2269.38 3878.62 2272.45 3878.62 2276.25Z" stroke="#000000" stroke-width="3.4375"/></g></g></g><text font-family="Calibri,Calibri_MSFontService,sans-serif" font-weight="400" font-size="50" transform="matrix(1 0 0 1 3658.32 2361)">HDA database</text><g><g><g><path d="M2879.69 2286.56 2879.69 2080.31C2879.69 2060.22 2828.33 2049.38 2780 2049.38 2731.67 2049.38 2680.31 2060.22 2680.31 2080.31L2680.31 2286.56C2680.31 2306.66 2731.67 2317.5 2780 2317.5 2828.33 2317.5 2879.69 2306.66 2879.69 2286.56ZM2780 2056.25C2833.12 2056.25 2872.81 2068.97 2872.81 2080.31 2872.81 2091.66 2833.12 2104.38 2780 2104.38 2726.88 2104.38 2687.19 2091.66 2687.19 2080.31 2687.19 2068.97 2726.88 2056.25 2780 2056.25ZM2687.19 2092.21C2702.76 2104.65 2742.3 2111.25 2780 2111.25 2817.7 2111.25 2857.24 2104.65 2872.81 2092.21L2872.81 2149.06C2872.81 2160.41 2833.12 2173.12 2780 2173.12 2726.88 2173.12 2687.19 2160.41 2687.19 2149.06ZM2687.19 2160.96C2702.76 2173.4 2742.3 2180 2780 2180 2817.7 2180 2857.24 2173.4 2872.81 2160.96L2872.81 2217.81C2872.81 2229.16 2833.12 2241.88 2780 2241.88 2726.88 2241.88 2687.19 2229.16 2687.19 2217.81ZM2687.19 2286.56 2687.19 2229.71C2702.76 2242.15 2742.3 2248.75 2780 2248.75 2817.7 2248.75 2857.24 2242.15 2872.81 2229.71L2872.81 2286.56C2872.81 2297.91 2833.12 2310.62 2780 2310.62 2726.88 2310.62 2687.19 2297.91 2687.19 2286.56Z" stroke="#7F7F7F" stroke-width="3.4375" fill="#7F7F7F"/><path d="M2855.62 2138.75C2855.62 2142.55 2852.55 2145.62 2848.75 2145.62 2844.95 2145.62 2841.88 2142.55 2841.88 2138.75 2841.88 2134.95 2844.95 2131.88 2848.75 2131.88 2852.55 2131.88 2855.62 2134.95 2855.62 2138.75Z" stroke="#7F7F7F" stroke-width="3.4375" fill="#7F7F7F"/><path d="M2855.62 2207.5C2855.62 2211.3 2852.55 2214.38 2848.75 2214.38 2844.95 2214.38 2841.88 2211.3 2841.88 2207.5 2841.88 2203.7 2844.95 2200.62 2848.75 2200.62 2852.55 2200.62 2855.62 2203.7 2855.62 2207.5Z" stroke="#7F7F7F" stroke-width="3.4375" fill="#7F7F7F"/><path d="M2855.62 2276.25C2855.62 2280.05 2852.55 2283.12 2848.75 2283.12 2844.95 2283.12 2841.88 2280.05 2841.88 2276.25 2841.88 2272.45 2844.95 2269.38 2848.75 2269.38 2852.55 2269.38 2855.62 2272.45 2855.62 2276.25Z" stroke="#7F7F7F" stroke-width="3.4375" fill="#7F7F7F"/></g></g></g><text fill="#7F7F7F" font-family="Calibri,Calibri_MSFontService,sans-serif" font-weight="400" font-size="50" transform="matrix(1 0 0 1 2611.58 2361)">Source database</text><path d="M3561 2267.5 3561 2223.75 2945.5 2223.75 2945.5 2136.25 3561 2136.25 3561 2092.5 3648.5 2180Z" stroke="#000000" stroke-width="4.58333" stroke-miterlimit="8" fill="none" fill-rule="evenodd"/><g><g><g><path d="M41.9081 76.138C36.0018 76.3359 31.0309 80.6207 29.9643 86.4332 29.4652 89.1358 30.1932 91.9204 31.9515 94.0326 33.7169 96.0622 36.2932 97.202 38.9825 97.1432 44.8883 96.9453 49.8589 92.6603 50.9249 86.848 51.4252 84.1454 50.6969 81.3603 48.9378 79.2486 47.1728 77.2194 44.597 76.0796 41.9081 76.138ZM48.3393 86.4332C47.5093 90.9935 43.6137 94.3592 38.9812 94.5182 37.0615 94.5723 35.2172 93.7701 33.9478 92.329 32.6912 90.8002 32.179 88.7919 32.5499 86.848 33.3794 82.2875 37.2753 78.9216 41.9081 78.763 43.8281 78.7092 45.6728 79.5113 46.9428 80.9523 48.1964 82.4825 48.706 84.4904 48.334 86.4332Z" stroke="#000000" stroke-width="1.3125" transform="matrix(1 0 0 1 3234 2116)"/><path d="M119.39 64.0591 113.271 58.8091C112.458 58.112 111.955 57.1206 111.873 56.0529L110.692 46.9966C110.116 42.5554 106.28 39.2659 101.803 39.3749L89.9809 39.3749 91.2422 31.5 25.6173 31.5 23.7431 43.2429 8.50367 43.2429 8.08499 45.8679 23.3244 45.8679 22.2744 52.4304 12.8625 52.4304 12.4438 55.0554 21.861 55.0554 21.0236 60.3053 3.04368 60.3053 2.625 62.9303 20.6062 62.9303 16.8183 86.6406 27.3105 86.6406C27.3196 86.5711 27.3223 86.5028 27.3328 86.4332 27.4677 85.6106 27.6755 84.8015 27.9536 84.0156L19.8948 84.0156 22.6314 66.8678 82.9564 66.8678 80.2199 84.0156 53.689 84.0156C53.7396 84.8922 53.7009 85.7717 53.5735 86.6406L82.4367 86.6406 82.8777 84.0156 89.5832 41.9999 94.8004 41.9999 91.8749 60.3053 111.077 60.3053C111.237 60.4876 111.407 60.6604 111.587 60.8225L117.642 66.0186C118.152 66.478 118.376 67.1765 118.227 67.847L116.127 80.9719C115.788 82.6615 114.352 83.9101 112.632 84.0117L108.815 84.0117C108.865 84.8883 108.826 85.7678 108.7 86.6367L112.637 86.6367C115.647 86.531 118.178 84.3478 118.725 81.3867L120.825 68.2617C121.115 66.7063 120.571 65.112 119.39 64.0591ZM87.3887 38.9628 86.9031 41.9999 86.9254 41.9999 83.3817 64.2402 23.0501 64.2402 27.8565 34.1249 88.1631 34.1249ZM94.9553 57.6803 97.4582 41.9999 101.803 41.9999C104.957 41.8951 107.677 44.1998 108.091 47.3287L109.264 56.3416C109.309 56.7944 109.396 57.2418 109.527 57.6777Z" stroke="#000000" stroke-width="1.3125" transform="matrix(1 0 0 1 3234 2116)"/><path d="M97.0343 76.138C91.1255 76.3329 86.1511 80.6185 85.084 86.4332 84.5849 89.1358 85.3129 91.9204 87.0711 94.0326 88.8366 96.0622 91.4129 97.202 94.1022 97.1432 100.01 96.9471 104.982 92.6607 106.046 86.8467 106.546 84.1445 105.818 81.3598 104.059 79.2486 102.295 77.2208 99.7214 76.0812 97.0343 76.138ZM103.459 86.4332 103.459 86.4332C102.63 90.9936 98.7345 94.3595 94.1022 94.5182 92.1825 94.5723 90.3382 93.7701 89.0687 92.329 87.8136 90.7994 87.3029 88.7913 87.6749 86.848 88.5044 82.2875 92.4003 78.9216 97.033 78.763 98.9526 78.7089 100.797 79.5111 102.066 80.9523 103.32 82.4824 103.831 84.4901 103.459 86.4332Z" stroke="#000000" stroke-width="1.3125" transform="matrix(1 0 0 1 3234 2116)"/></g></g></g><text font-family="Calibri,Calibri_MSFontService,sans-serif" font-weight="400" font-size="50" transform="matrix(1 0 0 1 3107.21 2361)">Source </text><text font-family="Calibri,Calibri_MSFontService,sans-serif" font-weight="400" font-size="50" transform="matrix(1 0 0 1 3258.46 2361)">to</text><text font-family="Calibri,Calibri_MSFontService,sans-serif" font-weight="400" font-size="50" transform="matrix(1 0 0 1 3312.88 2361)">HDA</text><text font-family="Calibri,Calibri_MSFontService,sans-serif" font-weight="400" font-size="50" transform="matrix(1 0 0 1 3416.01 2361)">ETL</text><path d="M3803.15 1827.99 3803.21 1837.16 3800.92 1837.17 3800.85 1828.01ZM3803.26 1844.03 3803.32 1853.2 3801.03 1853.22 3800.96 1844.05ZM3803.37 1860.07 3803.43 1869.24 3801.14 1869.26 3801.08 1860.09ZM3803.48 1876.12 3803.54 1885.28 3801.25 1885.3 3801.19 1876.13ZM3803.59 1892.16 3803.65 1901.32 3801.36 1901.34 3801.3 1892.17ZM3803.7 1908.2 3803.76 1917.37 3801.47 1917.38 3801.41 1908.21ZM3803.81 1924.24 3803.87 1933.41 3801.58 1933.42 3801.52 1924.26ZM3803.92 1940.28 3803.99 1949.45 3801.69 1949.46 3801.63 1940.3ZM3804.03 1956.32 3804.1 1965.49 3801.8 1965.5 3801.74 1956.34ZM3804.14 1972.36 3804.21 1981.53 3801.92 1981.55 3801.85 1972.38ZM3804.25 1988.41 3804.28 1991.79 3801.99 1991.81 3801.96 1988.42ZM3816.85 1987.12 3803.29 2014.72 3789.35 1987.31Z"/><path d="M1.14583-0.00260012 1.16663 9.16404-1.12503 9.16924-1.14583 0.00260012ZM1.18223 16.039 1.20303 25.2057-1.08863 25.2109-1.10943 16.0442ZM1.21863 32.0807 1.23943 41.2473-1.05223 41.2525-1.07303 32.0858ZM1.25504 48.1223 1.27584 57.2889-1.01582 57.2941-1.03663 48.1275ZM1.29144 64.1639 1.31224 73.3306-0.979423 73.3357-1.00022 64.1691ZM1.32784 80.2055 1.34864 89.3722-0.943021 89.3774-0.963822 80.2107ZM1.36424 96.2471 1.38504 105.414-0.906619 105.419-0.92742 96.2524ZM1.40064 112.289 1.42144 121.455-0.870217 121.461-0.891018 112.294ZM1.43704 128.33 1.45785 137.497-0.833816 137.502-0.854617 128.336ZM1.47345 144.372 1.49425 153.539-0.797414 153.544-0.818215 144.377ZM1.50985 160.414 1.53065 169.58-0.761012 169.585-0.781813 160.419ZM1.54625 176.455 1.56705 185.622-0.724611 185.627-0.745412 176.46ZM1.58265 192.497 1.60345 201.664-0.688209 201.669-0.70901 192.502ZM1.61905 208.539 1.63985 217.705-0.651807 217.71-0.672608 208.544ZM1.65545 224.58 1.67626 233.747-0.615405 233.752-0.636206 224.585ZM1.69186 240.622 1.71266 249.788-0.579004 249.794-0.599805 240.627ZM1.72826 256.663 1.74776 265.26-0.543896 265.265-0.563403 256.669ZM14.3415 260.648 0.653937 288.179-13.1584 260.71Z" transform="matrix(-1 0 0 1 3297.65 1828)"/></g></svg>