<svg width="2486" height="1913" xmlns="http://www.w3.org/2000/svg" xmlns:xlink="http://www.w3.org/1999/xlink" xml:space="preserve" overflow="hidden"><defs><clipPath id="clip0"><rect x="618" y="441" width="2486" height="1913"/></clipPath><clipPath id="clip1"><rect x="677" y="441" width="331" height="331"/></clipPath><clipPath id="clip2"><rect x="677" y="441" width="331" height="331"/></clipPath><clipPath id="clip3"><rect x="677" y="441" width="331" height="331"/></clipPath><clipPath id="clip4"><rect x="1192" y="441" width="331" height="331"/></clipPath><clipPath id="clip5"><rect x="1192" y="441" width="331" height="331"/></clipPath><clipPath id="clip6"><rect x="1192" y="441" width="331" height="331"/></clipPath><clipPath id="clip7"><rect x="1714" y="441" width="331" height="331"/></clipPath><clipPath id="clip8"><rect x="1714" y="441" width="331" height="331"/></clipPath><clipPath id="clip9"><rect x="1714" y="441" width="331" height="331"/></clipPath><clipPath id="clip10"><rect x="1194" y="996" width="331" height="331"/></clipPath><clipPath id="clip11"><rect x="1194" y="996" width="331" height="331"/></clipPath><clipPath id="clip12"><rect x="1194" y="996" width="331" height="331"/></clipPath><clipPath id="clip13"><rect x="2215" y="441" width="331" height="331"/></clipPath><clipPath id="clip14"><rect x="2215" y="441" width="331" height="331"/></clipPath><clipPath id="clip15"><rect x="2215" y="441" width="331" height="331"/></clipPath><clipPath id="clip16"><rect x="2720" y="441" width="331" height="331"/></clipPath><clipPath id="clip17"><rect x="2720" y="441" width="331" height="331"/></clipPath><clipPath id="clip18"><rect x="2720" y="441" width="331" height="331"/></clipPath><clipPath id="clip19"><rect x="2215" y="996" width="331" height="331"/></clipPath><clipPath id="clip20"><rect x="2215" y="996" width="331" height="331"/></clipPath><clipPath id="clip21"><rect x="2215" y="996" width="331" height="331"/></clipPath><clipPath id="clip22"><rect x="1716" y="1963" width="330" height="331"/></clipPath><clipPath id="clip23"><rect x="1716" y="1963" width="330" height="331"/></clipPath><clipPath id="clip24"><rect x="1716" y="1963" width="330" height="331"/></clipPath><clipPath id="clip25"><rect x="2720" y="1963" width="331" height="331"/></clipPath><clipPath id="clip26"><rect x="2720" y="1963" width="331" height="331"/></clipPath><clipPath id="clip27"><rect x="2720" y="1963" width="331" height="331"/></clipPath><clipPath id="clip28"><rect x="675" y="1963" width="331" height="331"/></clipPath><clipPath id="clip29"><rect x="675" y="1963" width="331" height="331"/></clipPath><clipPath id="clip30"><rect x="675" y="1963" width="331" height="331"/></clipPath><clipPath id="clip31"><rect x="1294" y="2064" width="127" height="128"/></clipPath><clipPath id="clip32"><rect x="1294" y="2064" width="127" height="128"/></clipPath><clipPath id="clip33"><rect x="1294" y="2064" width="127" height="128"/></clipPath><clipPath id="clip34"><rect x="2316" y="2066" width="128" height="127"/></clipPath><clipPath id="clip35"><rect x="2316" y="2066" width="128" height="127"/></clipPath><clipPath id="clip36"><rect x="2316" y="2066" width="128" height="127"/></clipPath><clipPath id="clip37"><rect x="1192" y="1477" width="331" height="331"/></clipPath><clipPath id="clip38"><rect x="1192" y="1477" width="331" height="331"/></clipPath><clipPath id="clip39"><rect x="1192" y="1477" width="331" height="331"/></clipPath><clipPath id="clip40"><rect x="1714" y="1477" width="331" height="331"/></clipPath><clipPath id="clip41"><rect x="1714" y="1477" width="331" height="331"/></clipPath><clipPath id="clip42"><rect x="1714" y="1477" width="331" height="331"/></clipPath><clipPath id="clip43"><rect x="2215" y="1477" width="331" height="331"/></clipPath><clipPath id="clip44"><rect x="2215" y="1477" width="331" height="331"/></clipPath><clipPath id="clip45"><rect x="2215" y="1477" width="331" height="331"/></clipPath><clipPath id="clip46"><rect x="2720" y="1477" width="331" height="331"/></clipPath><clipPath id="clip47"><rect x="2720" y="1477" width="331" height="331"/></clipPath><clipPath id="clip48"><rect x="2720" y="1477" width="331" height="331"/></clipPath><clipPath id="clip49"><rect x="676" y="1477" width="331" height="331"/></clipPath><clipPath id="clip50"><rect x="676" y="1477" width="331" height="331"/></clipPath><clipPath id="clip51"><rect x="676" y="1477" width="331" height="331"/></clipPath></defs><g clip-path="url(#clip0)" transform="translate(-618 -441)"><g clip-path="url(#clip1)"><g clip-path="url(#clip2)"><g clip-path="url(#clip3)"><path d="M901.437 599.125 846.437 599.125 846.437 506.313 784.562 506.313 784.562 513.188 839.562 513.188 839.562 599.125 784.562 599.125 784.562 606 839.562 606 839.562 691.938 784.562 691.938 784.562 698.812 846.437 698.812 846.437 606 901.437 606 901.437 599.125Z" stroke="#7F7F7F" stroke-width="3.4375" fill="#7F7F7F"/><path d="M767.375 526.938 733 526.938 733 492.563 767.375 492.563ZM726.125 485.688 726.125 533.812 774.25 533.812 774.25 485.688Z" stroke="#7F7F7F" stroke-width="3.4375" fill="#7F7F7F"/><path d="M767.375 619.75 733 619.75 733 585.375 767.375 585.375ZM726.125 578.5 726.125 626.625 774.25 626.625 774.25 578.5Z" stroke="#7F7F7F" stroke-width="3.4375" fill="#7F7F7F"/><path d="M767.375 712.562 733 712.562 733 678.188 767.375 678.188ZM726.125 671.312 726.125 719.438 774.25 719.438 774.25 671.312Z" stroke="#7F7F7F" stroke-width="3.4375" fill="#7F7F7F"/><path d="M953 619.75 918.625 619.75 918.625 585.375 953 585.375ZM911.75 578.5 911.75 626.625 959.875 626.625 959.875 578.5Z" stroke="#7F7F7F" stroke-width="3.4375" fill="#7F7F7F"/></g></g></g><text fill="#7F7F7F" font-family="Arial,Arial_MSFontService,sans-serif" font-weight="400" font-size="50" transform="matrix(1 0 0 1 687.513 787)">Source model</text><g clip-path="url(#clip4)"><g clip-path="url(#clip5)"><g clip-path="url(#clip6)"><path d="M1273.13 653.152 1264.53 678.933 1284.13 698.527 1309.91 689.933C1316.75 693.759 1324.02 696.759 1331.56 698.871L1343.59 722.933 1371.09 722.933 1383.13 698.871C1390.58 696.82 1397.75 693.816 1404.44 689.933L1430.22 698.527 1449.81 678.933 1441.22 653.152C1445.04 646.312 1448.04 639.042 1450.16 631.496L1474.22 619.465 1474.22 591.965 1449.81 580.277C1447.76 572.819 1444.76 565.656 1440.88 558.965L1449.47 533.183 1429.88 513.59 1404.09 522.183C1397.25 518.358 1389.98 515.358 1382.44 513.246L1370.75 489.125 1343.25 489.125 1331.22 513.188C1323.76 515.238 1316.6 518.242 1309.91 522.125L1284.13 513.531 1264.53 533.125 1273.13 558.906C1269.3 565.747 1266.3 573.016 1264.19 580.562L1240.13 592.25 1240.13 619.75 1264.19 631.781C1266.23 639.26 1269.24 646.443 1273.13 653.152ZM1247 596.595 1267.19 586.784 1270 585.409 1270.82 582.398C1272.8 575.374 1275.59 568.607 1279.15 562.237L1280.6 559.604 1279.65 556.751 1272.4 534.995 1285.98 521.403 1307.73 528.656 1310.67 529.636 1313.35 528.082C1319.53 524.497 1326.14 521.724 1333.03 519.832L1336 519.024 1337.37 516.274 1347.51 496 1366.45 496 1376.25 516.213 1377.63 519.018 1380.64 519.839C1387.66 521.816 1394.42 524.612 1400.79 528.172L1403.43 529.622 1406.28 528.67 1428.03 521.417 1441.62 535.009 1434.36 556.765 1433.38 559.704 1434.94 562.382C1438.53 568.559 1441.3 575.176 1443.19 582.065L1444.02 585.1 1446.85 586.458 1467.34 596.279 1467.34 615.209 1447.08 625.343 1444.33 626.718 1443.52 629.681C1441.55 636.705 1438.75 643.472 1435.19 649.842L1433.75 652.475 1434.69 655.328 1441.95 677.084 1428.36 690.676 1406.61 683.423 1403.67 682.443 1400.99 683.997C1394.81 687.583 1388.2 690.356 1381.31 692.247L1378.35 693.055 1376.97 695.805 1366.84 716.086 1347.85 716.086 1337.72 695.805 1336.34 693.055 1333.38 692.247C1326.36 690.27 1319.59 687.474 1313.23 683.914L1310.59 682.464 1307.74 683.416 1285.99 690.669 1272.4 677.077 1279.66 655.328 1280.63 652.389 1279.08 649.708C1275.49 643.53 1272.72 636.914 1270.83 630.025L1270.02 627.062 1267.27 625.687 1247 615.553Z"/><path d="M1357 647.308C1379.78 647.308 1398.25 628.84 1398.25 606.058 1398.25 583.277 1379.78 564.808 1357 564.808 1334.22 564.808 1315.75 583.277 1315.75 606.058 1315.82 628.811 1334.25 647.237 1357 647.308ZM1357 571.659C1375.98 571.659 1391.38 587.05 1391.38 606.034 1391.38 625.019 1375.98 640.409 1357 640.409 1338.02 640.409 1322.63 625.019 1322.63 606.034 1322.65 587.06 1338.03 571.684 1357 571.659Z"/></g></g></g><text font-family="Arial,Arial_MSFontService,sans-serif" font-weight="400" font-size="50" transform="matrix(1 0 0 1 1182.39 789)">Model</text><text font-family="Arial,Arial_MSFontService,sans-serif" font-weight="400" font-size="50" transform="matrix(1 0 0 1 1319.89 789)">-</text><text font-family="Arial,Arial_MSFontService,sans-serif" font-weight="400" font-size="50" transform="matrix(1 0 0 1 1336.5 789)">to</text><text font-family="Arial,Arial_MSFontService,sans-serif" font-weight="400" font-size="50" transform="matrix(1 0 0 1 1378.32 789)">-</text><text font-family="Arial,Arial_MSFontService,sans-serif" font-weight="400" font-size="50" transform="matrix(1 0 0 1 1394.94 789)">model</text><text font-family="Arial,Arial_MSFontService,sans-serif" font-weight="400" font-size="50" transform="matrix(1 0 0 1 1196.69 850)">transformation</text><g clip-path="url(#clip7)"><g clip-path="url(#clip8)"><g clip-path="url(#clip9)"><path d="M1938.44 599.125 1883.44 599.125 1883.44 506.313 1821.56 506.313 1821.56 513.188 1876.56 513.188 1876.56 599.125 1821.56 599.125 1821.56 606 1876.56 606 1876.56 691.938 1821.56 691.938 1821.56 698.812 1883.44 698.812 1883.44 606 1938.44 606 1938.44 599.125Z"/><path d="M1804.38 526.938 1770 526.938 1770 492.563 1804.38 492.563ZM1763.12 485.688 1763.12 533.812 1811.25 533.812 1811.25 485.688Z"/><path d="M1804.38 619.75 1770 619.75 1770 585.375 1804.38 585.375ZM1763.12 578.5 1763.12 626.625 1811.25 626.625 1811.25 578.5Z"/><path d="M1804.38 712.562 1770 712.562 1770 678.188 1804.38 678.188ZM1763.12 671.312 1763.12 719.438 1811.25 719.438 1811.25 671.312Z"/><path d="M1990 619.75 1955.62 619.75 1955.62 585.375 1990 585.375ZM1948.75 578.5 1948.75 626.625 1996.88 626.625 1996.88 578.5Z"/></g></g></g><text font-family="Arial,Arial_MSFontService,sans-serif" font-weight="400" font-size="50" transform="matrix(1 0 0 1 1719.16 783)">Staging</text><text font-family="Arial,Arial_MSFontService,sans-serif" font-weight="400" font-size="50" transform="matrix(1 0 0 1 1904.22 783)">model</text><g clip-path="url(#clip10)"><g clip-path="url(#clip11)"><g clip-path="url(#clip12)"><path d="M1280.51 1040.69 1241.7 1079.5 1280.51 1118.31 1319.31 1079.5ZM1251.42 1079.5 1280.51 1050.42 1309.59 1079.5 1280.51 1108.58Z"/><path d="M1408.12 1079.5C1408.12 1098.48 1423.51 1113.87 1442.5 1113.87 1461.48 1113.87 1476.87 1098.48 1476.87 1079.5 1476.87 1060.52 1461.48 1045.12 1442.5 1045.12 1423.52 1045.15 1408.15 1060.52 1408.12 1079.5ZM1415 1079.5C1415 1064.31 1427.31 1052 1442.5 1052 1457.69 1052 1470 1064.31 1470 1079.5 1470 1094.69 1457.69 1107 1442.5 1107 1427.32 1106.98 1415.02 1094.68 1415 1079.5Z"/><path d="M1280.94 1213.56C1261.95 1213.56 1246.56 1228.95 1246.56 1247.94 1246.56 1266.92 1261.95 1282.31 1280.94 1282.31 1299.92 1282.31 1315.31 1266.92 1315.31 1247.94 1315.29 1228.96 1299.91 1213.58 1280.94 1213.56ZM1308.44 1247.94C1308.44 1263.13 1296.13 1275.44 1280.94 1275.44 1265.75 1275.44 1253.44 1263.13 1253.44 1247.94 1253.44 1232.75 1265.75 1220.44 1280.94 1220.44 1296.12 1220.45 1308.42 1232.76 1308.44 1247.94Z"/><path d="M1476.87 1213.56 1408.12 1213.56 1408.12 1282.31 1476.87 1282.31ZM1470 1275.44 1415 1275.44 1415 1220.44 1470 1220.44Z"/><path d="M1280.94 1127.62C1282.84 1127.62 1284.37 1129.16 1284.37 1131.06L1284.37 1194.95 1295.69 1183.63C1297.06 1182.31 1299.24 1182.35 1300.56 1183.72 1301.84 1185.05 1301.84 1187.16 1300.56 1188.49L1283.37 1205.68C1282.03 1207.02 1279.85 1207.02 1278.51 1205.68L1261.32 1188.49C1260 1187.13 1260.04 1184.95 1261.4 1183.63 1262.74 1182.35 1264.85 1182.35 1266.18 1183.63L1277.5 1194.95 1277.5 1131.06C1277.5 1129.16 1279.04 1127.62 1280.94 1127.62Z"/><path d="M1326.63 1077.07 1343.82 1059.88C1345.19 1058.56 1347.36 1058.6 1348.68 1059.97 1349.97 1061.3 1349.97 1063.41 1348.68 1064.74L1337.36 1076.06 1394.37 1076.06C1396.27 1076.06 1397.81 1077.6 1397.81 1079.5 1397.81 1081.4 1396.27 1082.94 1394.37 1082.94L1337.36 1082.94 1348.68 1094.26C1350.05 1095.58 1350.08 1097.75 1348.76 1099.12 1347.45 1100.48 1345.27 1100.52 1343.9 1099.2 1343.88 1099.17 1343.85 1099.15 1343.82 1099.12L1326.63 1081.93C1325.29 1080.59 1325.29 1078.41 1326.63 1077.07Z"/><path d="M1325.62 1247.94C1325.62 1246.04 1327.16 1244.5 1329.06 1244.5L1389.51 1244.5 1378.19 1233.18C1376.88 1231.81 1376.91 1229.64 1378.28 1228.32 1379.61 1227.03 1381.72 1227.03 1383.06 1228.32L1400.24 1245.51C1401.58 1246.85 1401.58 1249.03 1400.24 1250.37L1383.06 1267.56C1381.69 1268.87 1379.51 1268.84 1378.19 1267.47 1376.91 1266.14 1376.91 1264.03 1378.19 1262.69L1389.51 1251.37 1329.06 1251.37C1327.16 1251.37 1325.62 1249.84 1325.62 1247.94Z"/></g></g></g><text font-family="Arial,Arial_MSFontService,sans-serif" font-weight="400" font-size="50" transform="matrix(1 0 0 1 984.4 1340)">Source </text><text font-family="Arial,Arial_MSFontService,sans-serif" font-weight="400" font-size="50" transform="matrix(1 0 0 1 1157.99 1340)">to</text><text font-family="Arial,Arial_MSFontService,sans-serif" font-weight="400" font-size="50" transform="matrix(1 0 0 1 1213.57 1340)">staging</text><text font-family="Arial,Arial_MSFontService,sans-serif" font-weight="400" font-size="50" transform="matrix(1 0 0 1 1390.02 1340)">mapping</text><text font-family="Arial,Arial_MSFontService,sans-serif" font-weight="400" font-size="50" transform="matrix(1 0 0 1 1597.42 1340)">model</text><g clip-path="url(#clip13)"><g clip-path="url(#clip14)"><g clip-path="url(#clip15)"><path d="M2296.13 653.152 2287.53 678.933 2307.13 698.527 2332.91 689.933C2339.75 693.759 2347.02 696.759 2354.56 698.871L2366.59 722.933 2394.09 722.933 2406.13 698.871C2413.58 696.82 2420.75 693.816 2427.44 689.933L2453.22 698.527 2472.81 678.933 2464.22 653.152C2468.04 646.312 2471.04 639.042 2473.16 631.496L2497.22 619.465 2497.22 591.965 2472.81 580.277C2470.76 572.819 2467.76 565.656 2463.88 558.965L2472.47 533.183 2452.88 513.59 2427.09 522.183C2420.25 518.358 2412.98 515.358 2405.44 513.246L2393.75 489.125 2366.25 489.125 2354.22 513.188C2346.76 515.238 2339.6 518.242 2332.91 522.125L2307.13 513.531 2287.53 533.125 2296.13 558.906C2292.3 565.747 2289.3 573.016 2287.19 580.562L2263.13 592.25 2263.13 619.75 2287.19 631.781C2289.24 639.26 2292.24 646.443 2296.13 653.152ZM2270 596.595 2290.19 586.784 2293 585.409 2293.82 582.398C2295.8 575.374 2298.59 568.607 2302.15 562.237L2303.6 559.604 2302.65 556.751 2295.4 534.995 2308.98 521.403 2330.73 528.656 2333.67 529.636 2336.35 528.082C2342.53 524.497 2349.14 521.724 2356.03 519.832L2359 519.024 2360.37 516.274 2370.51 496 2389.45 496 2399.25 516.213 2400.63 519.018 2403.64 519.839C2410.66 521.816 2417.42 524.612 2423.79 528.172L2426.43 529.622 2429.28 528.67 2451.03 521.417 2464.62 535.009 2457.36 556.765 2456.39 559.704 2457.94 562.382C2461.53 568.559 2464.3 575.176 2466.19 582.065L2467.02 585.1 2469.85 586.458 2490.34 596.279 2490.34 615.209 2470.08 625.343 2467.33 626.718 2466.52 629.681C2464.55 636.705 2461.75 643.472 2458.19 649.842L2456.75 652.475 2457.69 655.328 2464.95 677.084 2451.36 690.676 2429.61 683.423 2426.67 682.443 2423.99 683.997C2417.81 687.583 2411.2 690.356 2404.31 692.247L2401.35 693.055 2399.97 695.805 2389.84 716.086 2370.85 716.086 2360.72 695.805 2359.34 693.055 2356.38 692.247C2349.36 690.27 2342.59 687.474 2336.23 683.914L2333.59 682.464 2330.74 683.416 2308.99 690.669 2295.4 677.077 2302.66 655.328 2303.63 652.389 2302.08 649.708C2298.49 643.53 2295.72 636.914 2293.83 630.025L2293.02 627.062 2290.27 625.687 2270 615.553Z"/><path d="M2380 647.308C2402.78 647.308 2421.25 628.84 2421.25 606.058 2421.25 583.277 2402.78 564.808 2380 564.808 2357.22 564.808 2338.75 583.277 2338.75 606.058 2338.82 628.811 2357.25 647.237 2380 647.308ZM2380 571.659C2398.98 571.659 2414.38 587.05 2414.38 606.034 2414.38 625.019 2398.98 640.409 2380 640.409 2361.02 640.409 2345.63 625.019 2345.63 606.034 2345.65 587.06 2361.03 571.684 2380 571.659Z"/></g></g></g><text font-family="Arial,Arial_MSFontService,sans-serif" font-weight="400" font-size="50" transform="matrix(1 0 0 1 2205.37 789)">Model</text><text font-family="Arial,Arial_MSFontService,sans-serif" font-weight="400" font-size="50" transform="matrix(1 0 0 1 2342.87 789)">-</text><text font-family="Arial,Arial_MSFontService,sans-serif" font-weight="400" font-size="50" transform="matrix(1 0 0 1 2359.48 789)">to</text><text font-family="Arial,Arial_MSFontService,sans-serif" font-weight="400" font-size="50" transform="matrix(1 0 0 1 2401.31 789)">-</text><text font-family="Arial,Arial_MSFontService,sans-serif" font-weight="400" font-size="50" transform="matrix(1 0 0 1 2417.92 789)">model</text><text font-family="Arial,Arial_MSFontService,sans-serif" font-weight="400" font-size="50" transform="matrix(1 0 0 1 2219.67 850)">transformation</text><g clip-path="url(#clip16)"><g clip-path="url(#clip17)"><g clip-path="url(#clip18)"><path d="M2943.44 599.125 2888.44 599.125 2888.44 506.313 2826.56 506.313 2826.56 513.188 2881.56 513.188 2881.56 599.125 2826.56 599.125 2826.56 606 2881.56 606 2881.56 691.938 2826.56 691.938 2826.56 698.812 2888.44 698.812 2888.44 606 2943.44 606 2943.44 599.125Z"/><path d="M2809.38 526.938 2775 526.938 2775 492.563 2809.38 492.563ZM2768.12 485.688 2768.12 533.812 2816.25 533.812 2816.25 485.688Z"/><path d="M2809.38 619.75 2775 619.75 2775 585.375 2809.38 585.375ZM2768.12 578.5 2768.12 626.625 2816.25 626.625 2816.25 578.5Z"/><path d="M2809.38 712.562 2775 712.562 2775 678.188 2809.38 678.188ZM2768.12 671.312 2768.12 719.438 2816.25 719.438 2816.25 671.312Z"/><path d="M2995 619.75 2960.62 619.75 2960.62 585.375 2995 585.375ZM2953.75 578.5 2953.75 626.625 3001.88 626.625 3001.88 578.5Z"/></g></g></g><text font-family="Arial,Arial_MSFontService,sans-serif" font-weight="400" font-size="50" transform="matrix(1 0 0 1 2755.5 782)">HDA model</text><g clip-path="url(#clip19)"><g clip-path="url(#clip20)"><g clip-path="url(#clip21)"><path d="M2300.51 1040.69 2261.7 1079.5 2300.51 1118.31 2339.31 1079.5ZM2271.42 1079.5 2300.51 1050.42 2329.59 1079.5 2300.51 1108.58Z"/><path d="M2428.13 1079.5C2428.13 1098.48 2443.52 1113.87 2462.5 1113.87 2481.49 1113.87 2496.88 1098.48 2496.88 1079.5 2496.88 1060.52 2481.49 1045.12 2462.5 1045.12 2443.52 1045.15 2428.15 1060.52 2428.13 1079.5ZM2435 1079.5C2435 1064.31 2447.31 1052 2462.5 1052 2477.69 1052 2490 1064.31 2490 1079.5 2490 1094.69 2477.69 1107 2462.5 1107 2447.32 1106.98 2435.02 1094.68 2435 1079.5Z"/><path d="M2300.94 1213.56C2281.95 1213.56 2266.56 1228.95 2266.56 1247.94 2266.56 1266.92 2281.95 1282.31 2300.94 1282.31 2319.92 1282.31 2335.31 1266.92 2335.31 1247.94 2335.29 1228.96 2319.91 1213.58 2300.94 1213.56ZM2328.44 1247.94C2328.44 1263.13 2316.13 1275.44 2300.94 1275.44 2285.75 1275.44 2273.44 1263.13 2273.44 1247.94 2273.44 1232.75 2285.75 1220.44 2300.94 1220.44 2316.12 1220.45 2328.42 1232.76 2328.44 1247.94Z"/><path d="M2496.88 1213.56 2428.13 1213.56 2428.13 1282.31 2496.88 1282.31ZM2490 1275.44 2435 1275.44 2435 1220.44 2490 1220.44Z"/><path d="M2300.94 1127.62C2302.84 1127.62 2304.38 1129.16 2304.38 1131.06L2304.38 1194.95 2315.69 1183.63C2317.06 1182.31 2319.24 1182.35 2320.56 1183.72 2321.84 1185.05 2321.84 1187.16 2320.56 1188.49L2303.37 1205.68C2302.03 1207.02 2299.85 1207.02 2298.51 1205.68L2281.32 1188.49C2280 1187.13 2280.04 1184.95 2281.4 1183.63 2282.74 1182.35 2284.85 1182.35 2286.18 1183.63L2297.5 1194.95 2297.5 1131.06C2297.5 1129.16 2299.04 1127.62 2300.94 1127.62Z"/><path d="M2346.63 1077.07 2363.82 1059.88C2365.19 1058.56 2367.36 1058.6 2368.68 1059.97 2369.97 1061.3 2369.97 1063.41 2368.68 1064.74L2357.36 1076.06 2414.38 1076.06C2416.27 1076.06 2417.81 1077.6 2417.81 1079.5 2417.81 1081.4 2416.27 1082.94 2414.38 1082.94L2357.36 1082.94 2368.68 1094.26C2370.05 1095.58 2370.08 1097.75 2368.77 1099.12 2367.45 1100.48 2365.27 1100.52 2363.9 1099.2 2363.88 1099.17 2363.85 1099.15 2363.82 1099.12L2346.63 1081.93C2345.29 1080.59 2345.29 1078.41 2346.63 1077.07Z"/><path d="M2345.63 1247.94C2345.63 1246.04 2347.16 1244.5 2349.06 1244.5L2409.51 1244.5 2398.19 1233.18C2396.88 1231.81 2396.91 1229.64 2398.28 1228.32 2399.61 1227.03 2401.72 1227.03 2403.06 1228.32L2420.24 1245.51C2421.58 1246.85 2421.58 1249.03 2420.24 1250.37L2403.06 1267.56C2401.69 1268.87 2399.51 1268.84 2398.19 1267.47 2396.91 1266.14 2396.91 1264.03 2398.19 1262.69L2409.51 1251.37 2349.06 1251.37C2347.16 1251.37 2345.63 1249.84 2345.63 1247.94Z"/></g></g></g><text font-family="Arial,Arial_MSFontService,sans-serif" font-weight="400" font-size="50" transform="matrix(1 0 0 1 2027.19 1340)">Staging</text><text font-family="Arial,Arial_MSFontService,sans-serif" font-weight="400" font-size="50" transform="matrix(1 0 0 1 2212.25 1340)">to</text><text font-family="Arial,Arial_MSFontService,sans-serif" font-weight="400" font-size="50" transform="matrix(1 0 0 1 2267.82 1340)">HDA </text><text font-family="Arial,Arial_MSFontService,sans-serif" font-weight="400" font-size="50" transform="matrix(1 0 0 1 2388.7 1340)">mapping</text><text font-family="Arial,Arial_MSFontService,sans-serif" font-weight="400" font-size="50" transform="matrix(1 0 0 1 2596.1 1340)">model</text><g clip-path="url(#clip22)"><g clip-path="url(#clip23)"><g clip-path="url(#clip24)"><path d="M1980.69 2234.56 1980.69 2028.31C1980.69 2008.22 1929.33 1997.38 1881 1997.38 1832.67 1997.38 1781.31 2008.22 1781.31 2028.31L1781.31 2234.56C1781.31 2254.66 1832.67 2265.5 1881 2265.5 1929.33 2265.5 1980.69 2254.66 1980.69 2234.56ZM1881 2004.25C1934.12 2004.25 1973.81 2016.97 1973.81 2028.31 1973.81 2039.66 1934.12 2052.38 1881 2052.38 1827.88 2052.38 1788.19 2039.66 1788.19 2028.31 1788.19 2016.97 1827.88 2004.25 1881 2004.25ZM1788.19 2040.21C1803.76 2052.65 1843.3 2059.25 1881 2059.25 1918.7 2059.25 1958.24 2052.65 1973.81 2040.21L1973.81 2097.06C1973.81 2108.41 1934.12 2121.12 1881 2121.12 1827.88 2121.12 1788.19 2108.41 1788.19 2097.06ZM1788.19 2108.96C1803.76 2121.4 1843.3 2128 1881 2128 1918.7 2128 1958.24 2121.4 1973.81 2108.96L1973.81 2165.81C1973.81 2177.16 1934.12 2189.88 1881 2189.88 1827.88 2189.88 1788.19 2177.16 1788.19 2165.81ZM1788.19 2234.56 1788.19 2177.71C1803.76 2190.15 1843.3 2196.75 1881 2196.75 1918.7 2196.75 1958.24 2190.15 1973.81 2177.71L1973.81 2234.56C1973.81 2245.91 1934.12 2258.62 1881 2258.62 1827.88 2258.62 1788.19 2245.91 1788.19 2234.56Z" stroke="#000000" stroke-width="3.4375"/><path d="M1956.62 2086.75C1956.62 2090.55 1953.55 2093.62 1949.75 2093.62 1945.95 2093.62 1942.88 2090.55 1942.88 2086.75 1942.88 2082.95 1945.95 2079.88 1949.75 2079.88 1953.55 2079.88 1956.62 2082.95 1956.62 2086.75Z" stroke="#000000" stroke-width="3.4375"/><path d="M1956.62 2155.5C1956.62 2159.3 1953.55 2162.38 1949.75 2162.38 1945.95 2162.38 1942.88 2159.3 1942.88 2155.5 1942.88 2151.7 1945.95 2148.62 1949.75 2148.62 1953.55 2148.62 1956.62 2151.7 1956.62 2155.5Z" stroke="#000000" stroke-width="3.4375"/><path d="M1956.62 2224.25C1956.62 2228.05 1953.55 2231.12 1949.75 2231.12 1945.95 2231.12 1942.88 2228.05 1942.88 2224.25 1942.88 2220.45 1945.95 2217.38 1949.75 2217.38 1953.55 2217.38 1956.62 2220.45 1956.62 2224.25Z" stroke="#000000" stroke-width="3.4375"/></g></g></g><text font-family="Arial,Arial_MSFontService,sans-serif" font-weight="400" font-size="50" transform="matrix(1 0 0 1 1684.34 2312)">Staging</text><text font-family="Arial,Arial_MSFontService,sans-serif" font-weight="400" font-size="50" transform="matrix(1 0 0 1 1869.39 2312)">database</text><g clip-path="url(#clip25)"><g clip-path="url(#clip26)"><g clip-path="url(#clip27)"><path d="M2984.69 2234.56 2984.69 2028.31C2984.69 2008.22 2933.33 1997.38 2885 1997.38 2836.67 1997.38 2785.31 2008.22 2785.31 2028.31L2785.31 2234.56C2785.31 2254.66 2836.67 2265.5 2885 2265.5 2933.33 2265.5 2984.69 2254.66 2984.69 2234.56ZM2885 2004.25C2938.12 2004.25 2977.81 2016.97 2977.81 2028.31 2977.81 2039.66 2938.12 2052.38 2885 2052.38 2831.88 2052.38 2792.19 2039.66 2792.19 2028.31 2792.19 2016.97 2831.88 2004.25 2885 2004.25ZM2792.19 2040.21C2807.76 2052.65 2847.3 2059.25 2885 2059.25 2922.7 2059.25 2962.24 2052.65 2977.81 2040.21L2977.81 2097.06C2977.81 2108.41 2938.12 2121.12 2885 2121.12 2831.88 2121.12 2792.19 2108.41 2792.19 2097.06ZM2792.19 2108.96C2807.76 2121.4 2847.3 2128 2885 2128 2922.7 2128 2962.24 2121.4 2977.81 2108.96L2977.81 2165.81C2977.81 2177.16 2938.12 2189.88 2885 2189.88 2831.88 2189.88 2792.19 2177.16 2792.19 2165.81ZM2792.19 2234.56 2792.19 2177.71C2807.76 2190.15 2847.3 2196.75 2885 2196.75 2922.7 2196.75 2962.24 2190.15 2977.81 2177.71L2977.81 2234.56C2977.81 2245.91 2938.12 2258.62 2885 2258.62 2831.88 2258.62 2792.19 2245.91 2792.19 2234.56Z" stroke="#000000" stroke-width="3.4375"/><path d="M2960.62 2086.75C2960.62 2090.55 2957.55 2093.62 2953.75 2093.62 2949.95 2093.62 2946.88 2090.55 2946.88 2086.75 2946.88 2082.95 2949.95 2079.88 2953.75 2079.88 2957.55 2079.88 2960.62 2082.95 2960.62 2086.75Z" stroke="#000000" stroke-width="3.4375"/><path d="M2960.62 2155.5C2960.62 2159.3 2957.55 2162.38 2953.75 2162.38 2949.95 2162.38 2946.88 2159.3 2946.88 2155.5 2946.88 2151.7 2949.95 2148.62 2953.75 2148.62 2957.55 2148.62 2960.62 2151.7 2960.62 2155.5Z" stroke="#000000" stroke-width="3.4375"/><path d="M2960.62 2224.25C2960.62 2228.05 2957.55 2231.12 2953.75 2231.12 2949.95 2231.12 2946.88 2228.05 2946.88 2224.25 2946.88 2220.45 2949.95 2217.38 2953.75 2217.38 2957.55 2217.38 2960.62 2220.45 2960.62 2224.25Z" stroke="#000000" stroke-width="3.4375"/></g></g></g><text font-family="Arial,Arial_MSFontService,sans-serif" font-weight="400" font-size="50" transform="matrix(1 0 0 1 2725.01 2312)">HDA database</text><g clip-path="url(#clip28)"><g clip-path="url(#clip29)"><g clip-path="url(#clip30)"><path d="M939.688 2234.56 939.688 2028.31C939.688 2008.22 888.328 1997.38 840 1997.38 791.672 1997.38 740.313 2008.22 740.313 2028.31L740.313 2234.56C740.313 2254.66 791.672 2265.5 840 2265.5 888.328 2265.5 939.688 2254.66 939.688 2234.56ZM840 2004.25C893.12 2004.25 932.813 2016.97 932.813 2028.31 932.813 2039.66 893.12 2052.38 840 2052.38 786.88 2052.38 747.188 2039.66 747.188 2028.31 747.188 2016.97 786.88 2004.25 840 2004.25ZM747.188 2040.21C762.756 2052.65 802.301 2059.25 840 2059.25 877.699 2059.25 917.244 2052.65 932.813 2040.21L932.813 2097.06C932.813 2108.41 893.12 2121.12 840 2121.12 786.88 2121.12 747.188 2108.41 747.188 2097.06ZM747.188 2108.96C762.756 2121.4 802.301 2128 840 2128 877.699 2128 917.244 2121.4 932.813 2108.96L932.813 2165.81C932.813 2177.16 893.12 2189.88 840 2189.88 786.88 2189.88 747.188 2177.16 747.188 2165.81ZM747.188 2234.56 747.188 2177.71C762.756 2190.15 802.301 2196.75 840 2196.75 877.699 2196.75 917.244 2190.15 932.813 2177.71L932.813 2234.56C932.813 2245.91 893.12 2258.62 840 2258.62 786.88 2258.62 747.188 2245.91 747.188 2234.56Z" stroke="#7F7F7F" stroke-width="3.4375" fill="#7F7F7F"/><path d="M915.625 2086.75C915.625 2090.55 912.547 2093.62 908.75 2093.62 904.953 2093.62 901.875 2090.55 901.875 2086.75 901.875 2082.95 904.953 2079.88 908.75 2079.88 912.547 2079.88 915.625 2082.95 915.625 2086.75Z" stroke="#7F7F7F" stroke-width="3.4375" fill="#7F7F7F"/><path d="M915.625 2155.5C915.625 2159.3 912.547 2162.38 908.75 2162.38 904.953 2162.38 901.875 2159.3 901.875 2155.5 901.875 2151.7 904.953 2148.62 908.75 2148.62 912.547 2148.62 915.625 2151.7 915.625 2155.5Z" stroke="#7F7F7F" stroke-width="3.4375" fill="#7F7F7F"/><path d="M915.625 2224.25C915.625 2228.05 912.547 2231.12 908.75 2231.12 904.953 2231.12 901.875 2228.05 901.875 2224.25 901.875 2220.45 904.953 2217.38 908.75 2217.38 912.547 2217.38 915.625 2220.45 915.625 2224.25Z" stroke="#7F7F7F" stroke-width="3.4375" fill="#7F7F7F"/></g></g></g><text fill="#7F7F7F" font-family="Arial,Arial_MSFontService,sans-serif" font-weight="400" font-size="50" transform="matrix(1 0 0 1 649.37 2311)">Source database</text><path d="M2637 2216.5 2637 2172.75 2046.5 2172.75 2046.5 2085.25 2637 2085.25 2637 2041.5 2724.5 2129Z" stroke="#000000" stroke-width="4.58333" stroke-miterlimit="8" fill="none" fill-rule="evenodd"/><path d="M1629 2216.5 1629 2172.75 1008.5 2172.75 1008.5 2085.25 1629 2085.25 1629 2041.5 1716.5 2129Z" stroke="#000000" stroke-width="4.58333" stroke-miterlimit="8" fill="none" fill-rule="evenodd"/><g clip-path="url(#clip31)"><g clip-path="url(#clip32)"><g clip-path="url(#clip33)"><path d="M41.5756 75.5339C35.7162 75.7303 30.7847 79.9811 29.7266 85.7475 29.2314 88.4286 29.9537 91.1911 31.6979 93.2866 33.4494 95.3001 36.0052 96.4308 38.6732 96.3725 44.5322 96.1761 49.4633 91.9251 50.5209 86.1589 51.0172 83.4778 50.2947 80.7148 48.5495 78.6199 46.7985 76.6067 44.2431 75.476 41.5756 75.5339ZM47.9558 85.7475C47.1323 90.2716 43.2676 93.6105 38.6719 93.7683 36.7675 93.822 34.9378 93.0261 33.6784 91.5965 32.4318 90.0798 31.9237 88.0875 32.2917 86.1589 33.1146 81.6346 36.9796 78.2954 41.5756 78.1381 43.4804 78.0847 45.3105 78.8804 46.5704 80.31 47.814 81.8281 48.3196 83.82 47.9506 85.7475Z" stroke="#000000" stroke-width="1.30208" transform="matrix(1 0 0 1.008 1295 2065)"/><path d="M118.443 63.5508 112.373 58.3425C111.566 57.651 111.067 56.6674 110.986 55.6081L109.814 46.6237C109.243 42.2178 105.437 38.9543 100.995 39.0625L89.267 39.0625 90.5183 31.25 25.4141 31.25 23.5547 42.8998 8.43621 42.8998 8.02084 45.504 23.1393 45.504 22.0977 52.0144 12.7604 52.0144 12.3451 54.6185 21.6875 54.6185 20.8568 59.8269 3.01953 59.8269 2.60417 62.4311 20.4427 62.4311 16.6849 85.9532 27.0938 85.9532C27.1029 85.8842 27.1055 85.8165 27.1159 85.7475 27.2498 84.9313 27.4559 84.1287 27.7318 83.349L19.737 83.349 22.4518 66.3373 82.2983 66.3373 79.5834 83.349 53.2631 83.349C53.3132 84.2187 53.2748 85.0912 53.1485 85.9532L81.7826 85.9532 82.2201 83.349 88.8725 41.6667 94.0483 41.6667 91.1459 59.8269 110.195 59.8269C110.354 60.0077 110.523 60.1791 110.702 60.3399L116.708 65.4949C117.215 65.9506 117.437 66.6436 117.289 67.3087L115.206 80.3295C114.869 82.0057 113.445 83.2444 111.738 83.3451L107.952 83.3451C108.001 84.2148 107.963 85.0873 107.837 85.9493L111.744 85.9493C114.729 85.8445 117.24 83.6786 117.783 80.741L119.866 67.7201C120.155 66.177 119.615 64.5954 118.443 63.5508ZM86.6954 38.6537 86.2136 41.6667 86.2358 41.6667 82.7201 63.7305 22.8672 63.7305 27.6354 33.8542 87.4636 33.8542ZM94.2019 57.2227 96.685 41.6667 100.995 41.6667C104.124 41.5627 106.822 43.8491 107.233 46.9532L108.397 55.8946C108.441 56.3438 108.528 56.7877 108.658 57.2201Z" stroke="#000000" stroke-width="1.30208" transform="matrix(1 0 0 1.008 1295 2065)"/><path d="M96.2644 75.5339C90.4026 75.7273 85.4675 79.9789 84.4089 85.7475 83.9138 88.4286 84.636 91.1911 86.3803 93.2866 88.1317 95.3001 90.6876 96.4308 93.3556 96.3725 99.2161 96.178 104.149 91.9255 105.205 86.1576 105.701 83.4769 104.978 80.7143 103.233 78.6199 101.483 76.6082 98.9302 75.4776 96.2644 75.5339ZM102.638 85.7475 102.638 85.7475C101.816 90.2717 97.9511 93.6109 93.3556 93.7683 91.4511 93.822 89.6214 93.0261 88.3621 91.5965 87.1169 90.079 86.6102 88.0868 86.9793 86.1589 87.8022 81.6346 91.6672 78.2954 96.2631 78.1381 98.1675 78.0845 99.9972 78.8803 101.257 80.31 102.501 81.8279 103.007 83.8197 102.638 85.7475Z" stroke="#000000" stroke-width="1.30208" transform="matrix(1 0 0 1.008 1295 2065)"/></g></g></g><g clip-path="url(#clip34)"><g clip-path="url(#clip35)"><g clip-path="url(#clip36)"><path d="M41.5756 75.5339C35.7162 75.7303 30.7847 79.9811 29.7266 85.7475 29.2314 88.4286 29.9537 91.1911 31.6979 93.2866 33.4494 95.3001 36.0052 96.4308 38.6732 96.3725 44.5322 96.1761 49.4633 91.9251 50.5209 86.1589 51.0172 83.4778 50.2947 80.7148 48.5495 78.6199 46.7985 76.6067 44.2431 75.476 41.5756 75.5339ZM47.9558 85.7475C47.1323 90.2716 43.2676 93.6105 38.6719 93.7683 36.7675 93.822 34.9378 93.0261 33.6784 91.5965 32.4318 90.0798 31.9237 88.0875 32.2917 86.1589 33.1146 81.6346 36.9796 78.2954 41.5756 78.1381 43.4804 78.0847 45.3105 78.8804 46.5704 80.31 47.814 81.8281 48.3196 83.82 47.9506 85.7475Z" stroke="#000000" stroke-width="1.30208" transform="matrix(1.008 0 0 1 2317 2067)"/><path d="M118.443 63.5508 112.373 58.3425C111.566 57.651 111.067 56.6674 110.986 55.6081L109.814 46.6237C109.243 42.2178 105.437 38.9543 100.995 39.0625L89.267 39.0625 90.5183 31.25 25.4141 31.25 23.5547 42.8998 8.43621 42.8998 8.02084 45.504 23.1393 45.504 22.0977 52.0144 12.7604 52.0144 12.3451 54.6185 21.6875 54.6185 20.8568 59.8269 3.01953 59.8269 2.60417 62.4311 20.4427 62.4311 16.6849 85.9532 27.0938 85.9532C27.1029 85.8842 27.1055 85.8165 27.1159 85.7475 27.2498 84.9313 27.4559 84.1287 27.7318 83.349L19.737 83.349 22.4518 66.3373 82.2983 66.3373 79.5834 83.349 53.2631 83.349C53.3132 84.2187 53.2748 85.0912 53.1485 85.9532L81.7826 85.9532 82.2201 83.349 88.8725 41.6667 94.0483 41.6667 91.1459 59.8269 110.195 59.8269C110.354 60.0077 110.523 60.1791 110.702 60.3399L116.708 65.4949C117.215 65.9506 117.437 66.6436 117.289 67.3087L115.206 80.3295C114.869 82.0057 113.445 83.2444 111.738 83.3451L107.952 83.3451C108.001 84.2148 107.963 85.0873 107.837 85.9493L111.744 85.9493C114.729 85.8445 117.24 83.6786 117.783 80.741L119.866 67.7201C120.155 66.177 119.615 64.5954 118.443 63.5508ZM86.6954 38.6537 86.2136 41.6667 86.2358 41.6667 82.7201 63.7305 22.8672 63.7305 27.6354 33.8542 87.4636 33.8542ZM94.2019 57.2227 96.685 41.6667 100.995 41.6667C104.124 41.5627 106.822 43.8491 107.233 46.9532L108.397 55.8946C108.441 56.3438 108.528 56.7877 108.658 57.2201Z" stroke="#000000" stroke-width="1.30208" transform="matrix(1.008 0 0 1 2317 2067)"/><path d="M96.2644 75.5339C90.4026 75.7273 85.4675 79.9789 84.4089 85.7475 83.9138 88.4286 84.636 91.1911 86.3803 93.2866 88.1317 95.3001 90.6876 96.4308 93.3556 96.3725 99.2161 96.178 104.149 91.9255 105.205 86.1576 105.701 83.4769 104.978 80.7143 103.233 78.6199 101.483 76.6082 98.9302 75.4776 96.2644 75.5339ZM102.638 85.7475 102.638 85.7475C101.816 90.2717 97.9511 93.6109 93.3556 93.7683 91.4511 93.822 89.6214 93.0261 88.3621 91.5965 87.1169 90.079 86.6102 88.0868 86.9793 86.1589 87.8022 81.6346 91.6672 78.2954 96.2631 78.1381 98.1675 78.0845 99.9972 78.8803 101.257 80.31 102.501 81.8279 103.007 83.8197 102.638 85.7475Z" stroke="#000000" stroke-width="1.30208" transform="matrix(1.008 0 0 1 2317 2067)"/></g></g></g><path d="M1008 604.854 1169.44 604.855 1169.44 607.146 1008 607.146ZM1164.85 592.25 1192.35 606 1164.85 619.75Z"/><path d="M1522 604.854 1692.11 604.855 1692.11 607.146 1522 607.146ZM1687.53 592.25 1715.03 606 1687.53 619.75Z"/><path d="M2045 604.854 2192.04 604.855 2192.04 607.146 2045 607.146ZM2187.46 592.25 2214.96 606 2187.46 619.75Z"/><path d="M2545 604.854 2696.38 604.855 2696.38 607.146 2545 607.146ZM2691.79 592.25 2719.29 606 2691.79 619.75Z"/><path d="M1358.15 878.978 1359.96 974.555 1357.67 974.599 1355.85 879.022ZM1372.47 969.734 1359.25 997.49 1344.98 970.255Z"/><path d="M2381.15 879 2381.15 974.573 2378.85 974.573 2378.85 879ZM2393.75 969.99 2380 997.49 2366.25 969.99Z"/><g clip-path="url(#clip37)"><g clip-path="url(#clip38)"><g clip-path="url(#clip39)"><path d="M1273.13 1689.15 1264.53 1714.93 1284.13 1734.53 1309.91 1725.93C1316.75 1729.76 1324.02 1732.76 1331.56 1734.87L1343.59 1758.93 1371.09 1758.93 1383.13 1734.87C1390.58 1732.82 1397.75 1729.82 1404.44 1725.93L1430.22 1734.53 1449.81 1714.93 1441.22 1689.15C1445.04 1682.31 1448.04 1675.04 1450.16 1667.5L1474.22 1655.46 1474.22 1627.96 1449.81 1616.28C1447.76 1608.82 1444.76 1601.66 1440.88 1594.96L1449.47 1569.18 1429.88 1549.59 1404.09 1558.18C1397.25 1554.36 1389.98 1551.36 1382.44 1549.25L1370.75 1525.13 1343.25 1525.13 1331.22 1549.19C1323.76 1551.24 1316.6 1554.24 1309.91 1558.13L1284.13 1549.53 1264.53 1569.13 1273.13 1594.91C1269.3 1601.75 1266.3 1609.02 1264.19 1616.56L1240.13 1628.25 1240.13 1655.75 1264.19 1667.78C1266.23 1675.26 1269.24 1682.44 1273.13 1689.15ZM1247 1632.6 1267.19 1622.78 1270 1621.41 1270.82 1618.4C1272.8 1611.37 1275.59 1604.61 1279.15 1598.24L1280.6 1595.6 1279.65 1592.75 1272.4 1571 1285.98 1557.4 1307.73 1564.66 1310.67 1565.64 1313.35 1564.08C1319.53 1560.5 1326.14 1557.72 1333.03 1555.83L1336 1555.02 1337.37 1552.27 1347.51 1532 1366.45 1532 1376.25 1552.21 1377.63 1555.02 1380.64 1555.84C1387.66 1557.82 1394.42 1560.61 1400.79 1564.17L1403.43 1565.62 1406.28 1564.67 1428.03 1557.42 1441.62 1571.01 1434.36 1592.76 1433.38 1595.7 1434.94 1598.38C1438.53 1604.56 1441.3 1611.18 1443.19 1618.06L1444.02 1621.1 1446.85 1622.46 1467.34 1632.28 1467.34 1651.21 1447.08 1661.34 1444.33 1662.72 1443.52 1665.68C1441.55 1672.71 1438.75 1679.47 1435.19 1685.84L1433.75 1688.48 1434.69 1691.33 1441.95 1713.08 1428.36 1726.68 1406.61 1719.42 1403.67 1718.44 1400.99 1720C1394.81 1723.58 1388.2 1726.36 1381.31 1728.25L1378.35 1729.05 1376.97 1731.8 1366.84 1752.09 1347.85 1752.09 1337.72 1731.8 1336.34 1729.05 1333.38 1728.25C1326.36 1726.27 1319.59 1723.47 1313.23 1719.91L1310.59 1718.46 1307.74 1719.42 1285.99 1726.67 1272.4 1713.08 1279.66 1691.33 1280.63 1688.39 1279.08 1685.71C1275.49 1679.53 1272.72 1672.91 1270.83 1666.02L1270.02 1663.06 1267.27 1661.69 1247 1651.55Z"/><path d="M1357 1683.31C1379.78 1683.31 1398.25 1664.84 1398.25 1642.06 1398.25 1619.28 1379.78 1600.81 1357 1600.81 1334.22 1600.81 1315.75 1619.28 1315.75 1642.06 1315.82 1664.81 1334.25 1683.24 1357 1683.31ZM1357 1607.66C1375.98 1607.66 1391.38 1623.05 1391.38 1642.03 1391.38 1661.02 1375.98 1676.41 1357 1676.41 1338.02 1676.41 1322.63 1661.02 1322.63 1642.03 1322.65 1623.06 1338.03 1607.68 1357 1607.66Z"/></g></g></g><text font-family="Arial,Arial_MSFontService,sans-serif" font-weight="400" font-size="50" transform="matrix(1 0 0 1 1169.49 1826)">Template engine</text><g clip-path="url(#clip40)"><g clip-path="url(#clip41)"><g clip-path="url(#clip42)"><path d="M1796.12 1689.15 1787.53 1714.93 1807.12 1734.53 1832.91 1725.93C1839.75 1729.76 1847.02 1732.76 1854.56 1734.87L1866.59 1758.93 1894.09 1758.93 1906.12 1734.87C1913.58 1732.82 1920.75 1729.82 1927.44 1725.93L1953.22 1734.53 1972.81 1714.93 1964.22 1689.15C1968.04 1682.31 1971.04 1675.04 1973.16 1667.5L1997.22 1655.46 1997.22 1627.96 1972.81 1616.28C1970.76 1608.82 1967.76 1601.66 1963.88 1594.96L1972.47 1569.18 1952.88 1549.59 1927.09 1558.18C1920.25 1554.36 1912.98 1551.36 1905.44 1549.25L1893.75 1525.13 1866.25 1525.13 1854.22 1549.19C1846.76 1551.24 1839.6 1554.24 1832.91 1558.13L1807.12 1549.53 1787.53 1569.13 1796.12 1594.91C1792.3 1601.75 1789.3 1609.02 1787.19 1616.56L1763.12 1628.25 1763.12 1655.75 1787.19 1667.78C1789.23 1675.26 1792.24 1682.44 1796.12 1689.15ZM1770 1632.6 1790.19 1622.78 1793 1621.41 1793.82 1618.4C1795.8 1611.37 1798.59 1604.61 1802.15 1598.24L1803.6 1595.6 1802.65 1592.75 1795.4 1571 1808.98 1557.4 1830.73 1564.66 1833.67 1565.64 1836.35 1564.08C1842.53 1560.5 1849.14 1557.72 1856.03 1555.83L1859 1555.02 1860.37 1552.27 1870.51 1532 1889.45 1532 1899.25 1552.21 1900.62 1555.02 1903.64 1555.84C1910.66 1557.82 1917.42 1560.61 1923.79 1564.17L1926.43 1565.62 1929.28 1564.67 1951.03 1557.42 1964.62 1571.01 1957.36 1592.76 1956.38 1595.7 1957.94 1598.38C1961.53 1604.56 1964.3 1611.18 1966.19 1618.06L1967.02 1621.1 1969.85 1622.46 1990.34 1632.28 1990.34 1651.21 1970.08 1661.34 1967.33 1662.72 1966.52 1665.68C1964.55 1672.71 1961.75 1679.47 1958.19 1685.84L1956.75 1688.48 1957.69 1691.33 1964.95 1713.08 1951.36 1726.68 1929.61 1719.42 1926.67 1718.44 1923.99 1720C1917.81 1723.58 1911.2 1726.36 1904.31 1728.25L1901.35 1729.05 1899.97 1731.8 1889.84 1752.09 1870.85 1752.09 1860.72 1731.8 1859.34 1729.05 1856.38 1728.25C1849.36 1726.27 1842.59 1723.47 1836.23 1719.91L1833.59 1718.46 1830.74 1719.42 1808.99 1726.67 1795.4 1713.08 1802.66 1691.33 1803.63 1688.39 1802.08 1685.71C1798.49 1679.53 1795.72 1672.91 1793.83 1666.02L1793.02 1663.06 1790.27 1661.69 1770 1651.55Z"/><path d="M1880 1683.31C1902.78 1683.31 1921.25 1664.84 1921.25 1642.06 1921.25 1619.28 1902.78 1600.81 1880 1600.81 1857.22 1600.81 1838.75 1619.28 1838.75 1642.06 1838.82 1664.81 1857.25 1683.24 1880 1683.31ZM1880 1607.66C1898.98 1607.66 1914.38 1623.05 1914.38 1642.03 1914.38 1661.02 1898.98 1676.41 1880 1676.41 1861.02 1676.41 1845.62 1661.02 1845.62 1642.03 1845.65 1623.06 1861.03 1607.68 1880 1607.66Z"/></g></g></g><text font-family="Arial,Arial_MSFontService,sans-serif" font-weight="400" font-size="50" transform="matrix(1 0 0 1 1692.52 1826)">Template engine</text><g clip-path="url(#clip43)"><g clip-path="url(#clip44)"><g clip-path="url(#clip45)"><path d="M2296.13 1689.15 2287.53 1714.93 2307.13 1734.53 2332.91 1725.93C2339.75 1729.76 2347.02 1732.76 2354.56 1734.87L2366.59 1758.93 2394.09 1758.93 2406.13 1734.87C2413.58 1732.82 2420.75 1729.82 2427.44 1725.93L2453.22 1734.53 2472.81 1714.93 2464.22 1689.15C2468.04 1682.31 2471.04 1675.04 2473.16 1667.5L2497.22 1655.46 2497.22 1627.96 2472.81 1616.28C2470.76 1608.82 2467.76 1601.66 2463.88 1594.96L2472.47 1569.18 2452.88 1549.59 2427.09 1558.18C2420.25 1554.36 2412.98 1551.36 2405.44 1549.25L2393.75 1525.13 2366.25 1525.13 2354.22 1549.19C2346.76 1551.24 2339.6 1554.24 2332.91 1558.13L2307.13 1549.53 2287.53 1569.13 2296.13 1594.91C2292.3 1601.75 2289.3 1609.02 2287.19 1616.56L2263.13 1628.25 2263.13 1655.75 2287.19 1667.78C2289.24 1675.26 2292.24 1682.44 2296.13 1689.15ZM2270 1632.6 2290.19 1622.78 2293 1621.41 2293.82 1618.4C2295.8 1611.37 2298.59 1604.61 2302.15 1598.24L2303.6 1595.6 2302.65 1592.75 2295.4 1571 2308.98 1557.4 2330.73 1564.66 2333.67 1565.64 2336.35 1564.08C2342.53 1560.5 2349.14 1557.72 2356.03 1555.83L2359 1555.02 2360.37 1552.27 2370.51 1532 2389.45 1532 2399.25 1552.21 2400.63 1555.02 2403.64 1555.84C2410.66 1557.82 2417.42 1560.61 2423.79 1564.17L2426.43 1565.62 2429.28 1564.67 2451.03 1557.42 2464.62 1571.01 2457.36 1592.76 2456.39 1595.7 2457.94 1598.38C2461.53 1604.56 2464.3 1611.18 2466.19 1618.06L2467.02 1621.1 2469.85 1622.46 2490.34 1632.28 2490.34 1651.21 2470.08 1661.34 2467.33 1662.72 2466.52 1665.68C2464.55 1672.71 2461.75 1679.47 2458.19 1685.84L2456.75 1688.48 2457.69 1691.33 2464.95 1713.08 2451.36 1726.68 2429.61 1719.42 2426.67 1718.44 2423.99 1720C2417.81 1723.58 2411.2 1726.36 2404.31 1728.25L2401.35 1729.05 2399.97 1731.8 2389.84 1752.09 2370.85 1752.09 2360.72 1731.8 2359.34 1729.05 2356.38 1728.25C2349.36 1726.27 2342.59 1723.47 2336.23 1719.91L2333.59 1718.46 2330.74 1719.42 2308.99 1726.67 2295.4 1713.08 2302.66 1691.33 2303.63 1688.39 2302.08 1685.71C2298.49 1679.53 2295.72 1672.91 2293.83 1666.02L2293.02 1663.06 2290.27 1661.69 2270 1651.55Z"/><path d="M2380 1683.31C2402.78 1683.31 2421.25 1664.84 2421.25 1642.06 2421.25 1619.28 2402.78 1600.81 2380 1600.81 2357.22 1600.81 2338.75 1619.28 2338.75 1642.06 2338.82 1664.81 2357.25 1683.24 2380 1683.31ZM2380 1607.66C2398.98 1607.66 2414.38 1623.05 2414.38 1642.03 2414.38 1661.02 2398.98 1676.41 2380 1676.41 2361.02 1676.41 2345.63 1661.02 2345.63 1642.03 2345.65 1623.06 2361.03 1607.68 2380 1607.66Z"/></g></g></g><text font-family="Arial,Arial_MSFontService,sans-serif" font-weight="400" font-size="50" transform="matrix(1 0 0 1 2192.48 1826)">Template engine</text><g clip-path="url(#clip46)"><g clip-path="url(#clip47)"><g clip-path="url(#clip48)"><path d="M2801.12 1689.15 2792.53 1714.93 2812.12 1734.53 2837.91 1725.93C2844.75 1729.76 2852.02 1732.76 2859.56 1734.87L2871.59 1758.93 2899.09 1758.93 2911.12 1734.87C2918.58 1732.82 2925.75 1729.82 2932.44 1725.93L2958.22 1734.53 2977.81 1714.93 2969.22 1689.15C2973.04 1682.31 2976.04 1675.04 2978.16 1667.5L3002.22 1655.46 3002.22 1627.96 2977.81 1616.28C2975.76 1608.82 2972.76 1601.66 2968.88 1594.96L2977.47 1569.18 2957.88 1549.59 2932.09 1558.18C2925.25 1554.36 2917.98 1551.36 2910.44 1549.25L2898.75 1525.13 2871.25 1525.13 2859.22 1549.19C2851.76 1551.24 2844.6 1554.24 2837.91 1558.13L2812.12 1549.53 2792.53 1569.13 2801.12 1594.91C2797.3 1601.75 2794.3 1609.02 2792.19 1616.56L2768.12 1628.25 2768.12 1655.75 2792.19 1667.78C2794.23 1675.26 2797.24 1682.44 2801.12 1689.15ZM2775 1632.6 2795.19 1622.78 2798 1621.41 2798.82 1618.4C2800.8 1611.37 2803.59 1604.61 2807.15 1598.24L2808.6 1595.6 2807.65 1592.75 2800.4 1571 2813.98 1557.4 2835.73 1564.66 2838.67 1565.64 2841.35 1564.08C2847.53 1560.5 2854.14 1557.72 2861.03 1555.83L2864 1555.02 2865.37 1552.27 2875.51 1532 2894.45 1532 2904.25 1552.21 2905.62 1555.02 2908.64 1555.84C2915.66 1557.82 2922.42 1560.61 2928.79 1564.17L2931.43 1565.62 2934.28 1564.67 2956.03 1557.42 2969.62 1571.01 2962.36 1592.76 2961.38 1595.7 2962.94 1598.38C2966.53 1604.56 2969.3 1611.18 2971.19 1618.06L2972.02 1621.1 2974.85 1622.46 2995.34 1632.28 2995.34 1651.21 2975.08 1661.34 2972.33 1662.72 2971.52 1665.68C2969.55 1672.71 2966.75 1679.47 2963.19 1685.84L2961.75 1688.48 2962.69 1691.33 2969.95 1713.08 2956.36 1726.68 2934.61 1719.42 2931.67 1718.44 2928.99 1720C2922.81 1723.58 2916.2 1726.36 2909.31 1728.25L2906.35 1729.05 2904.97 1731.8 2894.84 1752.09 2875.85 1752.09 2865.72 1731.8 2864.34 1729.05 2861.38 1728.25C2854.36 1726.27 2847.59 1723.47 2841.23 1719.91L2838.59 1718.46 2835.74 1719.42 2813.99 1726.67 2800.4 1713.08 2807.66 1691.33 2808.63 1688.39 2807.08 1685.71C2803.49 1679.53 2800.72 1672.91 2798.83 1666.02L2798.02 1663.06 2795.27 1661.69 2775 1651.55Z"/><path d="M2885 1683.31C2907.78 1683.31 2926.25 1664.84 2926.25 1642.06 2926.25 1619.28 2907.78 1600.81 2885 1600.81 2862.22 1600.81 2843.75 1619.28 2843.75 1642.06 2843.82 1664.81 2862.25 1683.24 2885 1683.31ZM2885 1607.66C2903.98 1607.66 2919.38 1623.05 2919.38 1642.03 2919.38 1661.02 2903.98 1676.41 2885 1676.41 2866.02 1676.41 2850.62 1661.02 2850.62 1642.03 2850.65 1623.06 2866.03 1607.68 2885 1607.66Z"/></g></g></g><text font-family="Arial,Arial_MSFontService,sans-serif" font-weight="400" font-size="50" transform="matrix(1 0 0 1 2696.77 1826)">Template engine</text><path d="M1.14583-1.9009e-05 1.14726 85.8534-1.14441 85.8534-1.14583 1.9009e-05ZM13.7513 81.2699 0.00180446 108.77-13.7487 81.2703Z" transform="matrix(-1 0 0 1 2380 1369)"/><path d="M1.14559-0.0236878 2.92091 85.8346 0.629737 85.882-1.14559 0.0236878ZM15.4276 80.9917 2.24908 108.77-12.0665 81.5602Z" transform="matrix(-1 0 0 1 1359.25 1369)"/><path d="M1.14583-1.24264e-06 1.14653 642.64-1.14514 642.64-1.14583 1.24264e-06ZM13.7507 638.057 0.000721785 665.557-13.7493 638.057Z" transform="matrix(-1 0 0 1 1880 812)"/><path d="M1.14583-6.20855e-07 1.14618 643.136-1.14548 643.136-1.14583 6.20855e-07ZM13.7503 638.553 0.000360892 666.053-13.7497 638.553Z" transform="matrix(-1 0 0 1 2885 811)"/><path d="M1881.15 1855 1881.24 1940.85 1878.95 1940.85 1878.85 1855ZM1893.84 1936.25 1880.12 1963.77 1866.34 1936.29Z"/><path d="M1.14583-3.8018e-06 1.14612 85.8534-1.14555 85.8534-1.14583 3.8018e-06ZM13.7503 81.27 0.000360892 108.77-13.7497 81.2701Z" transform="matrix(-1 0 0 1 2885 1855)"/><path d="M1.14583-0.00346575 1.71818 189.224-0.573476 189.231-1.14583 0.00346575ZM14.3084 184.603 0.641667 212.144-13.1914 184.686Z" transform="matrix(-1 0 0 1 2380.64 1855)"/><path d="M1358.15 1855 1358.28 2042.31 1355.99 2042.31 1355.85 1855ZM1370.88 2037.72 1357.15 2065.23 1343.38 2037.74Z"/><g clip-path="url(#clip49)"><g clip-path="url(#clip50)"><g clip-path="url(#clip51)"><path d="M757.125 1689.15 748.531 1714.93 768.125 1734.53 793.906 1725.93C800.746 1729.76 808.016 1732.76 815.563 1734.87L827.594 1758.93 855.094 1758.93 867.125 1734.87C874.584 1732.82 881.747 1729.82 888.438 1725.93L914.219 1734.53 933.813 1714.93 925.219 1689.15C929.043 1682.31 932.043 1675.04 934.156 1667.5L958.219 1655.46 958.219 1627.96 933.813 1616.28C931.76 1608.82 928.756 1601.66 924.875 1594.96L933.469 1569.18 913.875 1549.59 888.094 1558.18C881.254 1554.36 873.985 1551.36 866.438 1549.25L854.75 1525.13 827.25 1525.13 815.219 1549.19C807.76 1551.24 800.597 1554.24 793.906 1558.13L768.125 1549.53 748.531 1569.13 757.125 1594.91C753.301 1601.75 750.301 1609.02 748.188 1616.56L724.125 1628.25 724.125 1655.75 748.188 1667.78C750.235 1675.26 753.239 1682.44 757.125 1689.15ZM731 1632.6 751.192 1622.78 754 1621.41 754.822 1618.4C756.796 1611.37 759.591 1604.61 763.151 1598.24L764.598 1595.6 763.65 1592.75 756.396 1571 769.985 1557.4 791.734 1564.66 794.673 1565.64 797.354 1564.08C803.531 1560.5 810.144 1557.72 817.031 1555.83L819.997 1555.02 821.372 1552.27 831.506 1532 850.453 1532 860.25 1552.21 861.625 1555.02 864.636 1555.84C871.658 1557.82 878.423 1560.61 884.791 1564.17L887.427 1565.62 890.28 1564.67 912.029 1557.42 925.618 1571.01 918.365 1592.76 917.385 1595.7 918.939 1598.38C922.526 1604.56 925.299 1611.18 927.189 1618.06L928.017 1621.1 930.853 1622.46 951.344 1632.28 951.344 1651.21 931.08 1661.34 928.33 1662.72 927.522 1665.68C925.548 1672.71 922.752 1679.47 919.193 1685.84L917.746 1688.48 918.695 1691.33 925.948 1713.08 912.359 1726.68 890.61 1719.42 887.671 1718.44 884.99 1720C878.813 1723.58 872.198 1726.36 865.31 1728.25L862.347 1729.05 860.972 1731.8 850.838 1752.09 831.85 1752.09 821.719 1731.8 820.344 1729.05 817.378 1728.25C810.357 1726.27 803.593 1723.47 797.227 1719.91L794.591 1718.46 791.737 1719.42 769.988 1726.67 756.4 1713.08 763.656 1691.33 764.633 1688.39 763.082 1685.71C759.494 1679.53 756.721 1672.91 754.832 1666.02L754.021 1663.06 751.271 1661.69 731 1651.55Z" stroke="#7F7F7F" stroke-width="3.4375" fill="#7F7F7F"/><path d="M841 1683.31C863.782 1683.31 882.25 1664.84 882.25 1642.06 882.25 1619.28 863.782 1600.81 841 1600.81 818.219 1600.81 799.75 1619.28 799.75 1642.06 799.822 1664.81 818.248 1683.24 841 1683.31ZM841 1607.66C859.985 1607.66 875.375 1623.05 875.375 1642.03 875.375 1661.02 859.985 1676.41 841 1676.41 822.016 1676.41 806.625 1661.02 806.625 1642.03 806.65 1623.06 822.026 1607.68 841 1607.66Z" stroke="#7F7F7F" stroke-width="3.4375" fill="#7F7F7F"/></g></g></g><text fill="#7F7F7F" font-family="Arial,Arial_MSFontService,sans-serif" font-weight="400" font-size="50" transform="matrix(1 0 0 1 653.028 1826)">Template engine</text><path d="M1.14578-0.0113896 1.99922 85.8432-0.292336 85.866-1.14578 0.0113896ZM14.5572 81.1348 1.08123 108.77-12.9414 81.4081Z" transform="matrix(-1 0 0 1 841.081 1855)"/><path d="M1.14583-0.00366257 3.1874 638.699 0.895747 638.706-1.14583 0.00366257ZM15.7769 634.076 2.11483 661.62-11.723 634.164Z" transform="matrix(-1 0 0 1 843.115 816)"/></g></svg>