<svg width="1406" height="390" xmlns="http://www.w3.org/2000/svg" xmlns:xlink="http://www.w3.org/1999/xlink" xml:space="preserve" overflow="hidden"><g transform="translate(-620 -1141)"><g><g><g><path d="M1946.69 1412.56 1946.69 1206.31C1946.69 1186.22 1895.33 1175.37 1847 1175.37 1798.67 1175.37 1747.31 1186.22 1747.31 1206.31L1747.31 1412.56C1747.31 1432.66 1798.67 1443.5 1847 1443.5 1895.33 1443.5 1946.69 1432.66 1946.69 1412.56ZM1847 1182.25C1900.12 1182.25 1939.81 1194.97 1939.81 1206.31 1939.81 1217.66 1900.12 1230.37 1847 1230.37 1793.88 1230.37 1754.19 1217.66 1754.19 1206.31 1754.19 1194.97 1793.88 1182.25 1847 1182.25ZM1754.19 1218.21C1769.76 1230.65 1809.3 1237.25 1847 1237.25 1884.7 1237.25 1924.24 1230.65 1939.81 1218.21L1939.81 1275.06C1939.81 1286.41 1900.12 1299.12 1847 1299.12 1793.88 1299.12 1754.19 1286.41 1754.19 1275.06ZM1754.19 1286.96C1769.76 1299.4 1809.3 1306 1847 1306 1884.7 1306 1924.24 1299.4 1939.81 1286.96L1939.81 1343.81C1939.81 1355.16 1900.12 1367.87 1847 1367.87 1793.88 1367.87 1754.19 1355.16 1754.19 1343.81ZM1754.19 1412.56 1754.19 1355.71C1769.76 1368.15 1809.3 1374.75 1847 1374.75 1884.7 1374.75 1924.24 1368.15 1939.81 1355.71L1939.81 1412.56C1939.81 1423.91 1900.12 1436.62 1847 1436.62 1793.88 1436.62 1754.19 1423.91 1754.19 1412.56Z" stroke="#000000" stroke-width="3.4375"/><path d="M1922.62 1264.75C1922.62 1268.55 1919.55 1271.62 1915.75 1271.62 1911.95 1271.62 1908.88 1268.55 1908.88 1264.75 1908.88 1260.95 1911.95 1257.87 1915.75 1257.87 1919.55 1257.87 1922.62 1260.95 1922.62 1264.75Z" stroke="#000000" stroke-width="3.4375"/><path d="M1922.62 1333.5C1922.62 1337.3 1919.55 1340.37 1915.75 1340.37 1911.95 1340.37 1908.88 1337.3 1908.88 1333.5 1908.88 1329.7 1911.95 1326.62 1915.75 1326.62 1919.55 1326.62 1922.62 1329.7 1922.62 1333.5Z" stroke="#000000" stroke-width="3.4375"/><path d="M1922.62 1402.25C1922.62 1406.05 1919.55 1409.12 1915.75 1409.12 1911.95 1409.12 1908.88 1406.05 1908.88 1402.25 1908.88 1398.45 1911.95 1395.37 1915.75 1395.37 1919.55 1395.37 1922.62 1398.45 1922.62 1402.25Z" stroke="#000000" stroke-width="3.4375"/></g></g></g><text font-family="Calibri,Calibri_MSFontService,sans-serif" font-weight="400" font-size="50" transform="matrix(1 0 0 1 1702.02 1487)">HDA database</text><g><g><g><path d="M923.687 1412.56 923.687 1206.31C923.687 1186.22 872.328 1175.37 824 1175.37 775.672 1175.37 724.312 1186.22 724.312 1206.31L724.312 1412.56C724.312 1432.66 775.672 1443.5 824 1443.5 872.328 1443.5 923.687 1432.66 923.687 1412.56ZM824 1182.25C877.12 1182.25 916.812 1194.97 916.812 1206.31 916.812 1217.66 877.12 1230.37 824 1230.37 770.88 1230.37 731.187 1217.66 731.187 1206.31 731.187 1194.97 770.88 1182.25 824 1182.25ZM731.187 1218.21C746.756 1230.65 786.301 1237.25 824 1237.25 861.699 1237.25 901.244 1230.65 916.812 1218.21L916.812 1275.06C916.812 1286.41 877.12 1299.12 824 1299.12 770.88 1299.12 731.187 1286.41 731.187 1275.06ZM731.187 1286.96C746.756 1299.4 786.301 1306 824 1306 861.699 1306 901.244 1299.4 916.812 1286.96L916.812 1343.81C916.812 1355.16 877.12 1367.87 824 1367.87 770.88 1367.87 731.187 1355.16 731.187 1343.81ZM731.187 1412.56 731.187 1355.71C746.756 1368.15 786.301 1374.75 824 1374.75 861.699 1374.75 901.244 1368.15 916.812 1355.71L916.812 1412.56C916.812 1423.91 877.12 1436.62 824 1436.62 770.88 1436.62 731.187 1423.91 731.187 1412.56Z" stroke="#7F7F7F" stroke-width="3.4375" fill="#7F7F7F"/><path d="M899.625 1264.75C899.625 1268.55 896.547 1271.62 892.75 1271.62 888.953 1271.62 885.875 1268.55 885.875 1264.75 885.875 1260.95 888.953 1257.87 892.75 1257.87 896.547 1257.87 899.625 1260.95 899.625 1264.75Z" stroke="#7F7F7F" stroke-width="3.4375" fill="#7F7F7F"/><path d="M899.625 1333.5C899.625 1337.3 896.547 1340.37 892.75 1340.37 888.953 1340.37 885.875 1337.3 885.875 1333.5 885.875 1329.7 888.953 1326.62 892.75 1326.62 896.547 1326.62 899.625 1329.7 899.625 1333.5Z" stroke="#7F7F7F" stroke-width="3.4375" fill="#7F7F7F"/><path d="M899.625 1402.25C899.625 1406.05 896.547 1409.12 892.75 1409.12 888.953 1409.12 885.875 1406.05 885.875 1402.25 885.875 1398.45 888.953 1395.37 892.75 1395.37 896.547 1395.37 899.625 1398.45 899.625 1402.25Z" stroke="#7F7F7F" stroke-width="3.4375" fill="#7F7F7F"/></g></g></g><text fill="#7F7F7F" font-family="Calibri,Calibri_MSFontService,sans-serif" font-weight="400" font-size="50" transform="matrix(1 0 0 1 655.272 1487)">Source database</text><path d="M1605 1393.5 1605 1349.75 989.5 1349.75 989.5 1262.25 1605 1262.25 1605 1218.5 1692.5 1306Z" stroke="#000000" stroke-width="4.58333" stroke-miterlimit="8" fill="none" fill-rule="evenodd"/><g><g><g><path d="M41.5754 75.5337C35.7161 75.7301 30.7846 79.9808 29.7265 85.7472 29.2313 88.4284 29.9536 91.1908 31.6979 93.2863 33.4493 95.2998 36.0051 96.4306 38.6731 96.3722 44.5321 96.1759 49.4632 91.9248 50.5207 86.1587 51.0171 83.4776 50.2946 80.7146 48.5494 78.6197 46.7984 76.6065 44.243 75.4758 41.5754 75.5337ZM47.9556 85.7472C47.1322 90.2713 43.2675 93.6102 38.6718 93.7681 36.7674 93.8217 34.9377 93.0259 33.6783 91.5962 32.4317 90.0795 31.9236 88.0872 32.2916 86.1587 33.1145 81.6344 36.9795 78.2952 41.5754 78.1379 43.4803 78.0845 45.3103 78.8802 46.5702 80.3098 47.8138 81.8278 48.3194 83.8198 47.9504 85.7472Z" stroke="#000000" stroke-width="1.30208" transform="matrix(1 0 0 1.008 1278 1242)"/><path d="M118.442 63.5507 112.372 58.3423C111.566 57.6508 111.067 56.6672 110.985 55.608L109.814 46.6236C109.242 42.2176 105.436 38.9542 100.995 39.0624L89.2668 39.0624 90.5181 31.2499 25.414 31.2499 23.5546 42.8997 8.43618 42.8997 8.02082 45.5038 23.1393 45.5038 22.0976 52.0142 12.7604 52.0142 12.345 54.6184 21.6875 54.6184 20.8567 59.8267 3.01953 59.8267 2.60416 62.4309 20.4427 62.4309 16.6849 85.953 27.0937 85.953C27.1028 85.884 27.1054 85.8162 27.1158 85.7472 27.2497 84.9311 27.4558 84.1285 27.7317 83.3488L19.7369 83.3488 22.4518 66.3371 82.298 66.3371 79.5832 83.3488 53.2629 83.3488C53.3131 84.2185 53.2746 85.091 53.1483 85.953L81.7824 85.953 82.2199 83.3488 88.8722 41.6666 94.048 41.6666 91.1457 59.8267 110.195 59.8267C110.354 60.0076 110.523 60.1789 110.702 60.3397L116.708 65.4947C117.215 65.9504 117.437 66.6434 117.289 67.3085L115.206 80.3293C114.869 82.0055 113.445 83.2441 111.738 83.3449L107.952 83.3449C108.001 84.2146 107.963 85.0871 107.837 85.9491L111.743 85.9491C114.729 85.8442 117.24 83.6784 117.782 80.7407L119.866 67.7199C120.154 66.1768 119.614 64.5952 118.442 63.5507ZM86.6952 38.6536 86.2134 41.6666 86.2355 41.6666 82.7199 63.7304 22.8671 63.7304 27.6354 33.8541 87.4634 33.8541ZM94.2017 57.2226 96.6847 41.6666 100.995 41.6666C104.124 41.5626 106.822 43.849 107.233 46.953L108.397 55.8944C108.441 56.3436 108.528 56.7875 108.657 57.2199Z" stroke="#000000" stroke-width="1.30208" transform="matrix(1 0 0 1.008 1278 1242)"/><path d="M96.2642 75.5337C90.4023 75.7271 85.4673 79.9786 84.4087 85.7472 83.9135 88.4284 84.6358 91.1908 86.3801 93.2863 88.1315 95.2998 90.6873 96.4306 93.3553 96.3722 99.2158 96.1777 104.149 91.9252 105.204 86.1574 105.701 83.4767 104.978 80.714 103.233 78.6197 101.483 76.6079 98.9299 75.4773 96.2642 75.5337ZM102.638 85.7472 102.638 85.7472C101.815 90.2714 97.9509 93.6106 93.3553 93.7681 91.4509 93.8217 89.6212 93.0259 88.3618 91.5962 87.1166 90.0788 86.61 88.0866 86.979 86.1587 87.8019 81.6344 91.6669 78.2952 96.2628 78.1379 98.1673 78.0842 99.997 78.8801 101.256 80.3098 102.5 81.8277 103.006 83.8195 102.638 85.7472Z" stroke="#000000" stroke-width="1.30208" transform="matrix(1 0 0 1.008 1278 1242)"/></g></g></g><text font-family="Calibri,Calibri_MSFontService,sans-serif" font-weight="400" font-size="50" transform="matrix(1 0 0 1 1150.9 1487)">Source </text><text font-family="Calibri,Calibri_MSFontService,sans-serif" font-weight="400" font-size="50" transform="matrix(1 0 0 1 1302.15 1487)">to</text><text font-family="Calibri,Calibri_MSFontService,sans-serif" font-weight="400" font-size="50" transform="matrix(1 0 0 1 1356.58 1487)">HDA</text><text font-family="Calibri,Calibri_MSFontService,sans-serif" font-weight="400" font-size="50" transform="matrix(1 0 0 1 1459.7 1487)">ETL</text></g></svg>