<svg width="3113" height="469" xmlns="http://www.w3.org/2000/svg" xmlns:xlink="http://www.w3.org/1999/xlink" xml:space="preserve" overflow="hidden"><defs><clipPath id="clip0"><rect x="379" y="760" width="3113" height="469"/></clipPath></defs><g clip-path="url(#clip0)" transform="translate(-379 -760)"><rect x="381.5" y="879.5" width="912" height="330" stroke="#000000" stroke-width="4.58333" stroke-miterlimit="8" fill="none"/><text font-family="Calibri,Calibri_MSFontService,sans-serif" font-weight="400" font-size="50" text-decoration="underline" transform="matrix(1 0 0 1 413.707 1125)">id</text><text font-family="Calibri,Calibri_MSFontService,sans-serif" font-weight="400" font-size="50" text-decoration="underline" transform="matrix(1 0 0 1 462.978 1125)">uniqueidentifier</text><text font-family="Calibri,Calibri_MSFontService,sans-serif" font-weight="400" font-size="50" transform="matrix(1 0 0 1 413.707 1185)">description</text><text font-family="Calibri,Calibri_MSFontService,sans-serif" font-weight="400" font-size="50" transform="matrix(1 0 0 1 653.759 1185)">nvarchar</text><text font-family="Calibri,Calibri_MSFontService,sans-serif" font-weight="400" font-size="50" transform="matrix(1 0 0 1 834.228 1185)">(max)</text><rect x="381.5" y="764.5" width="912" height="115" stroke="#000000" stroke-width="4.58333" stroke-miterlimit="8" fill="none"/><text font-family="Calibri,Calibri_MSFontService,sans-serif" font-weight="700" font-size="50" transform="matrix(1 0 0 1 680.59 838)">orders.Product</text><rect x="1478.5" y="878.5" width="913" height="330" stroke="#000000" stroke-width="4.58333" stroke-miterlimit="8" fill="none"/><text font-family="Calibri,Calibri_MSFontService,sans-serif" font-weight="400" font-size="50" transform="matrix(1 0 0 1 1511.33 941)">stg_timestamp_utc</text><text font-family="Calibri,Calibri_MSFontService,sans-serif" font-weight="400" font-size="50" transform="matrix(1 0 0 1 1916.95 941)">datetime2</text><text font-family="Calibri,Calibri_MSFontService,sans-serif" font-weight="400" font-size="50" text-decoration="underline" transform="matrix(1 0 0 1 1511.33 1002)">stg_runId</text><text font-family="Calibri,Calibri_MSFontService,sans-serif" font-weight="400" font-size="50" text-decoration="underline" transform="matrix(1 0 0 1 1717 1002)">uniqueidentifier</text><text font-family="Calibri,Calibri_MSFontService,sans-serif" font-weight="400" font-size="50" text-decoration="underline" transform="matrix(1 0 0 1 1511.33 1123)">id</text><text font-family="Calibri,Calibri_MSFontService,sans-serif" font-weight="400" font-size="50" text-decoration="underline" transform="matrix(1 0 0 1 1560.6 1123)">uniqueidentifier</text><text font-family="Calibri,Calibri_MSFontService,sans-serif" font-weight="400" font-size="50" transform="matrix(1 0 0 1 1511.33 1183)">description</text><text font-family="Calibri,Calibri_MSFontService,sans-serif" font-weight="400" font-size="50" transform="matrix(1 0 0 1 1751.38 1183)">nvarchar</text><text font-family="Calibri,Calibri_MSFontService,sans-serif" font-weight="400" font-size="50" transform="matrix(1 0 0 1 1931.85 1183)">(max)</text><rect x="1478.5" y="762.5" width="913" height="116" stroke="#000000" stroke-width="4.58333" stroke-miterlimit="8" fill="none"/><text font-family="Calibri,Calibri_MSFontService,sans-serif" font-weight="700" font-size="50" transform="matrix(1 0 0 1 1734.67 837)">orders_stg.Product</text><rect x="2576.5" y="878.5" width="913" height="330" stroke="#000000" stroke-width="4.58333" stroke-miterlimit="8" fill="none"/><text font-family="Calibri,Calibri_MSFontService,sans-serif" font-weight="400" font-size="50" text-decoration="underline" transform="matrix(1 0 0 1 2608.95 941)">hda_timestampValidFrom_utc</text><text font-family="Calibri,Calibri_MSFontService,sans-serif" font-weight="400" font-size="50" text-decoration="underline" transform="matrix(1 0 0 1 3240.87 941)">datetime2</text><text font-family="Calibri,Calibri_MSFontService,sans-serif" font-weight="400" font-size="50" transform="matrix(1 0 0 1 2608.95 1002)">hda_timestampValidTo_utc</text><text font-family="Calibri,Calibri_MSFontService,sans-serif" font-weight="400" font-size="50" transform="matrix(1 0 0 1 3184.73 1002)">datetime2</text><text font-family="Calibri,Calibri_MSFontService,sans-serif" font-weight="400" font-size="50" transform="matrix(1 0 0 1 2608.95 1062)">hda_runId</text><text font-family="Calibri,Calibri_MSFontService,sans-serif" font-weight="400" font-size="50" transform="matrix(1 0 0 1 2831.81 1062)">uniqueidentifier</text><text font-family="Calibri,Calibri_MSFontService,sans-serif" font-weight="400" font-size="50" text-decoration="underline" transform="matrix(1 0 0 1 2608.95 1123)">id</text><text font-family="Calibri,Calibri_MSFontService,sans-serif" font-weight="400" font-size="50" text-decoration="underline" transform="matrix(1 0 0 1 2658.22 1123)">uniqueidentifier</text><text font-family="Calibri,Calibri_MSFontService,sans-serif" font-weight="400" font-size="50" transform="matrix(1 0 0 1 2608.95 1183)">description</text><text font-family="Calibri,Calibri_MSFontService,sans-serif" font-weight="400" font-size="50" transform="matrix(1 0 0 1 2849 1183)">nvarchar</text><text font-family="Calibri,Calibri_MSFontService,sans-serif" font-weight="400" font-size="50" transform="matrix(1 0 0 1 3029.47 1183)">(max)</text><rect x="2576.5" y="762.5" width="913" height="116" stroke="#000000" stroke-width="4.58333" stroke-miterlimit="8" fill="none"/><text font-family="Calibri,Calibri_MSFontService,sans-serif" font-weight="700" font-size="50" transform="matrix(1 0 0 1 2823.98 837)">orders_hda.Product</text><path d="M979 1112.85 1455.41 1112.85 1455.41 1115.15 979 1115.15ZM1450.83 1100.25 1478.33 1114 1450.83 1127.75Z"/><path d="M979 1167.85 1455.41 1167.85 1455.41 1170.15 979 1170.15ZM1450.83 1155.25 1478.33 1169 1450.83 1182.75Z"/><path d="M2180 1166.85 2553.46 1166.85 2553.46 1169.15 2180 1169.15ZM2548.87 1154.25 2576.37 1168 2548.87 1181.75Z"/><path d="M2180 1112.85 2553.46 1112.85 2553.46 1115.15 2180 1115.15ZM2548.87 1100.25 2576.37 1114 2548.87 1127.75Z"/><path d="M2180 930.854 2553.46 930.854 2553.46 933.146 2180 933.146ZM2548.87 918.25 2576.37 932 2548.87 945.75Z"/></g></svg>