<svg width="2015" height="468" xmlns="http://www.w3.org/2000/svg" xmlns:xlink="http://www.w3.org/1999/xlink" xml:space="preserve" overflow="hidden"><g transform="translate(-395 -262)"><rect x="397.5" y="381.5" width="912" height="328" stroke="#000000" stroke-width="4.58333" stroke-miterlimit="8" fill="none"/><text font-family="Calibri,Calibri_MSFontService,sans-serif" font-weight="400" font-size="50" text-decoration="underline" transform="matrix(1 0 0 1 429.59 626)">id</text><text font-family="Calibri,Calibri_MSFontService,sans-serif" font-weight="400" font-size="50" text-decoration="underline" transform="matrix(1 0 0 1 478.861 626)">uniqueidentifier</text><text font-family="Calibri,Calibri_MSFontService,sans-serif" font-weight="400" font-size="50" transform="matrix(1 0 0 1 429.59 686)">description</text><text font-family="Calibri,Calibri_MSFontService,sans-serif" font-weight="400" font-size="50" transform="matrix(1 0 0 1 669.642 686)">nvarchar</text><text font-family="Calibri,Calibri_MSFontService,sans-serif" font-weight="400" font-size="50" transform="matrix(1 0 0 1 850.11 686)">(max)</text><rect x="397.5" y="265.5" width="912" height="116" stroke="#000000" stroke-width="4.58333" stroke-miterlimit="8" fill="none"/><text font-family="Calibri,Calibri_MSFontService,sans-serif" font-weight="700" font-size="50" transform="matrix(1 0 0 1 696.473 340)">orders.Product</text><rect x="1494.5" y="379.5" width="913" height="330" stroke="#000000" stroke-width="4.58333" stroke-miterlimit="8" fill="none"/><text font-family="Calibri,Calibri_MSFontService,sans-serif" font-weight="400" font-size="50" text-decoration="underline" transform="matrix(1 0 0 1 1527.21 443)">hda_validFrom_utc</text><text font-family="Calibri,Calibri_MSFontService,sans-serif" font-weight="400" font-size="50" text-decoration="underline" transform="matrix(1 0 0 1 1933.41 443)">datetime2</text><text font-family="Calibri,Calibri_MSFontService,sans-serif" font-weight="400" font-size="50" transform="matrix(1 0 0 1 1527.21 504)">hda_runId</text><text font-family="Calibri,Calibri_MSFontService,sans-serif" font-weight="400" font-size="50" transform="matrix(1 0 0 1 1750.07 504)">uniqueidentifier</text><text font-family="Calibri,Calibri_MSFontService,sans-serif" font-weight="400" font-size="50" transform="matrix(1 0 0 1 1527.21 564)">hda_voided</text><text font-family="Calibri,Calibri_MSFontService,sans-serif" font-weight="400" font-size="50" text-decoration="underline" transform="matrix(1 0 0 1 1779.29 564)">bit</text><text font-family="Calibri,Calibri_MSFontService,sans-serif" font-weight="400" font-size="50" text-decoration="underline" transform="matrix(1 0 0 1 1527.21 625)">id</text><text font-family="Calibri,Calibri_MSFontService,sans-serif" font-weight="400" font-size="50" text-decoration="underline" transform="matrix(1 0 0 1 1576.48 625)">uniqueidentifier</text><text font-family="Calibri,Calibri_MSFontService,sans-serif" font-weight="400" font-size="50" transform="matrix(1 0 0 1 1527.21 685)">description</text><text font-family="Calibri,Calibri_MSFontService,sans-serif" font-weight="400" font-size="50" transform="matrix(1 0 0 1 1767.26 685)">nvarchar</text><text font-family="Calibri,Calibri_MSFontService,sans-serif" font-weight="400" font-size="50" transform="matrix(1 0 0 1 1947.73 685)">(max)</text><rect x="1494.5" y="264.5" width="913" height="115" stroke="#000000" stroke-width="4.58333" stroke-miterlimit="8" fill="none"/><text font-family="Calibri,Calibri_MSFontService,sans-serif" font-weight="700" font-size="50" transform="matrix(1 0 0 1 1742.24 338)">orders_hda.Product</text><path d="M995 666.854 1471.41 666.854 1471.41 669.146 995 669.146ZM1466.83 654.25 1494.33 668 1466.83 681.75Z"/><path d="M995 595.854 1471.41 595.855 1471.41 598.146 995 598.146ZM1466.83 583.25 1494.33 597 1466.83 610.75Z"/></g></svg>