<svg width="2458" height="391" xmlns="http://www.w3.org/2000/svg" xmlns:xlink="http://www.w3.org/1999/xlink" xml:space="preserve" overflow="hidden"><defs><clipPath id="clip0"><rect x="622" y="1896" width="2458" height="391"/></clipPath><clipPath id="clip1"><rect x="1710" y="1896" width="331" height="331"/></clipPath><clipPath id="clip2"><rect x="1710" y="1896" width="331" height="331"/></clipPath><clipPath id="clip3"><rect x="1710" y="1896" width="331" height="331"/></clipPath><clipPath id="clip4"><rect x="2720" y="1896" width="331" height="331"/></clipPath><clipPath id="clip5"><rect x="2720" y="1896" width="331" height="331"/></clipPath><clipPath id="clip6"><rect x="2720" y="1896" width="331" height="331"/></clipPath><clipPath id="clip7"><rect x="677" y="1896" width="331" height="331"/></clipPath><clipPath id="clip8"><rect x="677" y="1896" width="331" height="331"/></clipPath><clipPath id="clip9"><rect x="677" y="1896" width="331" height="331"/></clipPath><clipPath id="clip10"><rect x="1296" y="1997" width="128" height="128"/></clipPath><clipPath id="clip11"><rect x="1296" y="1997" width="128" height="128"/></clipPath><clipPath id="clip12"><rect x="1296" y="1997" width="128" height="128"/></clipPath><clipPath id="clip13"><rect x="2317" y="1999" width="127" height="128"/></clipPath><clipPath id="clip14"><rect x="2317" y="1999" width="127" height="128"/></clipPath><clipPath id="clip15"><rect x="2317" y="1999" width="127" height="128"/></clipPath></defs><g clip-path="url(#clip0)" transform="translate(-622 -1896)"><g clip-path="url(#clip1)"><g clip-path="url(#clip2)"><g clip-path="url(#clip3)"><path d="M1975.69 2167.56 1975.69 1961.31C1975.69 1941.22 1924.33 1930.38 1876 1930.38 1827.67 1930.38 1776.31 1941.22 1776.31 1961.31L1776.31 2167.56C1776.31 2187.66 1827.67 2198.5 1876 2198.5 1924.33 2198.5 1975.69 2187.66 1975.69 2167.56ZM1876 1937.25C1929.12 1937.25 1968.81 1949.97 1968.81 1961.31 1968.81 1972.66 1929.12 1985.38 1876 1985.38 1822.88 1985.38 1783.19 1972.66 1783.19 1961.31 1783.19 1949.97 1822.88 1937.25 1876 1937.25ZM1783.19 1973.21C1798.76 1985.65 1838.3 1992.25 1876 1992.25 1913.7 1992.25 1953.24 1985.65 1968.81 1973.21L1968.81 2030.06C1968.81 2041.41 1929.12 2054.12 1876 2054.12 1822.88 2054.12 1783.19 2041.41 1783.19 2030.06ZM1783.19 2041.96C1798.76 2054.4 1838.3 2061 1876 2061 1913.7 2061 1953.24 2054.4 1968.81 2041.96L1968.81 2098.81C1968.81 2110.16 1929.12 2122.88 1876 2122.88 1822.88 2122.88 1783.19 2110.16 1783.19 2098.81ZM1783.19 2167.56 1783.19 2110.71C1798.76 2123.15 1838.3 2129.75 1876 2129.75 1913.7 2129.75 1953.24 2123.15 1968.81 2110.71L1968.81 2167.56C1968.81 2178.91 1929.12 2191.62 1876 2191.62 1822.88 2191.62 1783.19 2178.91 1783.19 2167.56Z" stroke="#FF0000" stroke-width="3.4375" fill="#FF0000"/><path d="M1951.62 2019.75C1951.62 2023.55 1948.55 2026.63 1944.75 2026.63 1940.95 2026.63 1937.87 2023.55 1937.87 2019.75 1937.87 2015.95 1940.95 2012.88 1944.75 2012.88 1948.55 2012.88 1951.62 2015.95 1951.62 2019.75Z" stroke="#FF0000" stroke-width="3.4375" fill="#FF0000"/><path d="M1951.62 2088.5C1951.62 2092.3 1948.55 2095.38 1944.75 2095.38 1940.95 2095.38 1937.87 2092.3 1937.87 2088.5 1937.87 2084.7 1940.95 2081.62 1944.75 2081.62 1948.55 2081.62 1951.62 2084.7 1951.62 2088.5Z" stroke="#FF0000" stroke-width="3.4375" fill="#FF0000"/><path d="M1951.62 2157.25C1951.62 2161.05 1948.55 2164.12 1944.75 2164.12 1940.95 2164.12 1937.87 2161.05 1937.87 2157.25 1937.87 2153.45 1940.95 2150.38 1944.75 2150.38 1948.55 2150.38 1951.62 2153.45 1951.62 2157.25Z" stroke="#FF0000" stroke-width="3.4375" fill="#FF0000"/></g></g></g><text fill="#FF0000" font-family="Arial,Arial_MSFontService,sans-serif" font-weight="400" font-size="50" transform="matrix(1 0 0 1 1679.88 2245)">Staging</text><text fill="#FF0000" font-family="Arial,Arial_MSFontService,sans-serif" font-weight="400" font-size="50" transform="matrix(1 0 0 1 1864.93 2245)">database</text><g clip-path="url(#clip4)"><g clip-path="url(#clip5)"><g clip-path="url(#clip6)"><path d="M2984.69 2167.56 2984.69 1961.31C2984.69 1941.22 2933.33 1930.38 2885 1930.38 2836.67 1930.38 2785.31 1941.22 2785.31 1961.31L2785.31 2167.56C2785.31 2187.66 2836.67 2198.5 2885 2198.5 2933.33 2198.5 2984.69 2187.66 2984.69 2167.56ZM2885 1937.25C2938.12 1937.25 2977.81 1949.97 2977.81 1961.31 2977.81 1972.66 2938.12 1985.38 2885 1985.38 2831.88 1985.38 2792.19 1972.66 2792.19 1961.31 2792.19 1949.97 2831.88 1937.25 2885 1937.25ZM2792.19 1973.21C2807.76 1985.65 2847.3 1992.25 2885 1992.25 2922.7 1992.25 2962.24 1985.65 2977.81 1973.21L2977.81 2030.06C2977.81 2041.41 2938.12 2054.12 2885 2054.12 2831.88 2054.12 2792.19 2041.41 2792.19 2030.06ZM2792.19 2041.96C2807.76 2054.4 2847.3 2061 2885 2061 2922.7 2061 2962.24 2054.4 2977.81 2041.96L2977.81 2098.81C2977.81 2110.16 2938.12 2122.88 2885 2122.88 2831.88 2122.88 2792.19 2110.16 2792.19 2098.81ZM2792.19 2167.56 2792.19 2110.71C2807.76 2123.15 2847.3 2129.75 2885 2129.75 2922.7 2129.75 2962.24 2123.15 2977.81 2110.71L2977.81 2167.56C2977.81 2178.91 2938.12 2191.62 2885 2191.62 2831.88 2191.62 2792.19 2178.91 2792.19 2167.56Z" stroke="#FF0000" stroke-width="3.4375" fill="#FF0000"/><path d="M2960.62 2019.75C2960.62 2023.55 2957.55 2026.63 2953.75 2026.63 2949.95 2026.63 2946.88 2023.55 2946.88 2019.75 2946.88 2015.95 2949.95 2012.88 2953.75 2012.88 2957.55 2012.88 2960.62 2015.95 2960.62 2019.75Z" stroke="#FF0000" stroke-width="3.4375" fill="#FF0000"/><path d="M2960.62 2088.5C2960.62 2092.3 2957.55 2095.38 2953.75 2095.38 2949.95 2095.38 2946.88 2092.3 2946.88 2088.5 2946.88 2084.7 2949.95 2081.62 2953.75 2081.62 2957.55 2081.62 2960.62 2084.7 2960.62 2088.5Z" stroke="#FF0000" stroke-width="3.4375" fill="#FF0000"/><path d="M2960.62 2157.25C2960.62 2161.05 2957.55 2164.12 2953.75 2164.12 2949.95 2164.12 2946.88 2161.05 2946.88 2157.25 2946.88 2153.45 2949.95 2150.38 2953.75 2150.38 2957.55 2150.38 2960.62 2153.45 2960.62 2157.25Z" stroke="#FF0000" stroke-width="3.4375" fill="#FF0000"/></g></g></g><text fill="#FF0000" font-family="Arial,Arial_MSFontService,sans-serif" font-weight="400" font-size="50" transform="matrix(1 0 0 1 2720.55 2245)">HDA database</text><g clip-path="url(#clip7)"><g clip-path="url(#clip8)"><g clip-path="url(#clip9)"><path d="M942.687 2167.56 942.687 1961.31C942.687 1941.22 891.328 1930.38 843 1930.38 794.672 1930.38 743.312 1941.22 743.312 1961.31L743.312 2167.56C743.312 2187.66 794.672 2198.5 843 2198.5 891.328 2198.5 942.687 2187.66 942.687 2167.56ZM843 1937.25C896.12 1937.25 935.812 1949.97 935.812 1961.31 935.812 1972.66 896.12 1985.38 843 1985.38 789.88 1985.38 750.187 1972.66 750.187 1961.31 750.187 1949.97 789.88 1937.25 843 1937.25ZM750.187 1973.21C765.756 1985.65 805.301 1992.25 843 1992.25 880.699 1992.25 920.244 1985.65 935.812 1973.21L935.812 2030.06C935.812 2041.41 896.12 2054.12 843 2054.12 789.88 2054.12 750.187 2041.41 750.187 2030.06ZM750.187 2041.96C765.756 2054.4 805.301 2061 843 2061 880.699 2061 920.244 2054.4 935.812 2041.96L935.812 2098.81C935.812 2110.16 896.12 2122.88 843 2122.88 789.88 2122.88 750.187 2110.16 750.187 2098.81ZM750.187 2167.56 750.187 2110.71C765.756 2123.15 805.301 2129.75 843 2129.75 880.699 2129.75 920.244 2123.15 935.812 2110.71L935.812 2167.56C935.812 2178.91 896.12 2191.62 843 2191.62 789.88 2191.62 750.187 2178.91 750.187 2167.56Z" stroke="#7F7F7F" stroke-width="3.4375" fill="#7F7F7F"/><path d="M918.625 2019.75C918.625 2023.55 915.547 2026.63 911.75 2026.63 907.953 2026.63 904.875 2023.55 904.875 2019.75 904.875 2015.95 907.953 2012.88 911.75 2012.88 915.547 2012.88 918.625 2015.95 918.625 2019.75Z" stroke="#7F7F7F" stroke-width="3.4375" fill="#7F7F7F"/><path d="M918.625 2088.5C918.625 2092.3 915.547 2095.38 911.75 2095.38 907.953 2095.38 904.875 2092.3 904.875 2088.5 904.875 2084.7 907.953 2081.62 911.75 2081.62 915.547 2081.62 918.625 2084.7 918.625 2088.5Z" stroke="#7F7F7F" stroke-width="3.4375" fill="#7F7F7F"/><path d="M918.625 2157.25C918.625 2161.05 915.547 2164.12 911.75 2164.12 907.953 2164.12 904.875 2161.05 904.875 2157.25 904.875 2153.45 907.953 2150.38 911.75 2150.38 915.547 2150.38 918.625 2153.45 918.625 2157.25Z" stroke="#7F7F7F" stroke-width="3.4375" fill="#7F7F7F"/></g></g></g><text fill="#7F7F7F" font-family="Arial,Arial_MSFontService,sans-serif" font-weight="400" font-size="50" transform="matrix(1 0 0 1 652.722 2244)">Source database</text><path d="M2633 2149.5 2633 2105.75 2041.5 2105.75 2041.5 2018.25 2633 2018.25 2633 1974.5 2720.5 2062Z" stroke="#FF0000" stroke-width="4.58333" stroke-miterlimit="8" fill="none" fill-rule="evenodd"/><path d="M1624 2149.5 1624 2105.75 1008.5 2105.75 1008.5 2018.25 1624 2018.25 1624 1974.5 1711.5 2062Z" stroke="#FF0000" stroke-width="4.58333" stroke-miterlimit="8" fill="none" fill-rule="evenodd"/><g clip-path="url(#clip10)"><g clip-path="url(#clip11)"><g clip-path="url(#clip12)"><path d="M1338.91 2074.14C1333 2074.34 1328.03 2078.62 1326.96 2084.43 1326.47 2087.14 1327.19 2089.92 1328.95 2092.03 1330.72 2094.06 1333.29 2095.2 1335.98 2095.14 1341.89 2094.95 1346.86 2090.66 1347.93 2084.85 1348.43 2082.15 1347.7 2079.36 1345.94 2077.25 1344.17 2075.22 1341.6 2074.08 1338.91 2074.14ZM1345.34 2084.43C1344.51 2088.99 1340.61 2092.36 1335.98 2092.52 1334.06 2092.57 1332.22 2091.77 1330.95 2090.33 1329.69 2088.8 1329.18 2086.79 1329.55 2084.85 1330.38 2080.29 1334.28 2076.92 1338.91 2076.76 1340.83 2076.71 1342.67 2077.51 1343.94 2078.95 1345.2 2080.48 1345.71 2082.49 1345.33 2084.43Z" stroke="#FF0000" stroke-width="1.31255" fill="#FF0000"/><path d="M1416.39 2062.06 1410.27 2056.81C1409.46 2056.11 1408.96 2055.12 1408.87 2054.05L1407.69 2045C1407.12 2040.56 1403.28 2037.27 1398.8 2037.37L1386.98 2037.37 1388.24 2029.5 1322.62 2029.5 1320.74 2041.24 1305.5 2041.24 1305.08 2043.87 1320.32 2043.87 1319.27 2050.43 1309.86 2050.43 1309.44 2053.06 1318.86 2053.06 1318.02 2058.31 1300.04 2058.31 1299.62 2060.93 1317.61 2060.93 1313.82 2084.64 1324.31 2084.64C1324.32 2084.57 1324.32 2084.5 1324.33 2084.43 1324.47 2083.61 1324.68 2082.8 1324.95 2082.02L1316.89 2082.02 1319.63 2064.87 1379.96 2064.87 1377.22 2082.02 1350.69 2082.02C1350.74 2082.89 1350.7 2083.77 1350.57 2084.64L1379.44 2084.64 1379.88 2082.02 1386.58 2040 1391.8 2040 1388.88 2058.31 1408.08 2058.31C1408.24 2058.49 1408.41 2058.66 1408.59 2058.82L1414.64 2064.02C1415.15 2064.48 1415.38 2065.18 1415.23 2065.85L1413.13 2078.97C1412.79 2080.66 1411.35 2081.91 1409.63 2082.01L1405.82 2082.01C1405.87 2082.89 1405.83 2083.77 1405.7 2084.64L1409.64 2084.64C1412.65 2084.53 1415.18 2082.35 1415.72 2079.39L1417.82 2066.26C1418.12 2064.71 1417.57 2063.11 1416.39 2062.06ZM1384.39 2036.96 1383.9 2040 1383.93 2040 1380.38 2062.24 1320.05 2062.24 1324.86 2032.12 1385.16 2032.12ZM1391.96 2055.68 1394.46 2040 1398.8 2040C1401.96 2039.9 1404.68 2042.2 1405.09 2045.33L1406.26 2054.34C1406.31 2054.79 1406.4 2055.24 1406.53 2055.68Z" stroke="#FF0000" stroke-width="1.31255" fill="#FF0000"/><path d="M1394.03 2074.14C1388.13 2074.33 1383.15 2078.62 1382.08 2084.43 1381.59 2087.14 1382.31 2089.92 1384.07 2092.03 1385.84 2094.06 1388.41 2095.2 1391.1 2095.14 1397.01 2094.95 1401.98 2090.66 1403.05 2084.85 1403.55 2082.14 1402.82 2079.36 1401.06 2077.25 1399.3 2075.22 1396.72 2074.08 1394.03 2074.14ZM1400.46 2084.43 1400.46 2084.43C1399.63 2088.99 1395.73 2092.36 1391.1 2092.52 1389.18 2092.57 1387.34 2091.77 1386.07 2090.33 1384.81 2088.8 1384.3 2086.79 1384.68 2084.85 1385.5 2080.29 1389.4 2076.92 1394.03 2076.76 1395.95 2076.71 1397.8 2077.51 1399.07 2078.95 1400.32 2080.48 1400.83 2082.49 1400.46 2084.43Z" stroke="#FF0000" stroke-width="1.31255" fill="#FF0000"/></g></g></g><g clip-path="url(#clip13)"><g clip-path="url(#clip14)"><g clip-path="url(#clip15)"><path d="M41.5756 75.5339C35.7162 75.7303 30.7847 79.9811 29.7266 85.7475 29.2314 88.4286 29.9537 91.1911 31.6979 93.2866 33.4494 95.3001 36.0052 96.4308 38.6732 96.3725 44.5322 96.1761 49.4633 91.9251 50.5209 86.1589 51.0172 83.4778 50.2947 80.7148 48.5495 78.6199 46.7985 76.6067 44.2431 75.476 41.5756 75.5339ZM47.9558 85.7475C47.1323 90.2716 43.2676 93.6105 38.6719 93.7683 36.7675 93.822 34.9378 93.0261 33.6784 91.5965 32.4318 90.0798 31.9237 88.0875 32.2917 86.1589 33.1146 81.6346 36.9796 78.2954 41.5756 78.1381 43.4804 78.0847 45.3105 78.8804 46.5704 80.31 47.814 81.8281 48.3196 83.82 47.9506 85.7475Z" stroke="#FF0000" stroke-width="1.30213" fill="#FF0000" transform="matrix(1 0 0 1.008 2318 2000)"/><path d="M118.443 63.5508 112.373 58.3425C111.566 57.651 111.067 56.6674 110.986 55.6081L109.814 46.6237C109.243 42.2178 105.437 38.9543 100.995 39.0625L89.267 39.0625 90.5183 31.25 25.4141 31.25 23.5547 42.8998 8.43621 42.8998 8.02084 45.504 23.1393 45.504 22.0977 52.0144 12.7604 52.0144 12.3451 54.6185 21.6875 54.6185 20.8568 59.8269 3.01953 59.8269 2.60417 62.4311 20.4427 62.4311 16.6849 85.9532 27.0938 85.9532C27.1029 85.8842 27.1055 85.8165 27.1159 85.7475 27.2498 84.9313 27.4559 84.1287 27.7318 83.349L19.737 83.349 22.4518 66.3373 82.2983 66.3373 79.5834 83.349 53.2631 83.349C53.3132 84.2187 53.2748 85.0912 53.1485 85.9532L81.7826 85.9532 82.2201 83.349 88.8725 41.6667 94.0483 41.6667 91.1459 59.8269 110.195 59.8269C110.354 60.0077 110.523 60.1791 110.702 60.3399L116.708 65.4949C117.215 65.9506 117.437 66.6436 117.289 67.3087L115.206 80.3295C114.869 82.0057 113.445 83.2444 111.738 83.3451L107.952 83.3451C108.001 84.2148 107.963 85.0873 107.837 85.9493L111.744 85.9493C114.729 85.8445 117.24 83.6786 117.783 80.741L119.866 67.7201C120.155 66.177 119.615 64.5954 118.443 63.5508ZM86.6954 38.6537 86.2136 41.6667 86.2358 41.6667 82.7201 63.7305 22.8672 63.7305 27.6354 33.8542 87.4636 33.8542ZM94.2019 57.2227 96.685 41.6667 100.995 41.6667C104.124 41.5627 106.822 43.8491 107.233 46.9532L108.397 55.8946C108.441 56.3438 108.528 56.7877 108.658 57.2201Z" stroke="#FF0000" stroke-width="1.30213" fill="#FF0000" transform="matrix(1 0 0 1.008 2318 2000)"/><path d="M96.2644 75.5339C90.4026 75.7273 85.4675 79.9789 84.4089 85.7475 83.9138 88.4286 84.636 91.1911 86.3803 93.2866 88.1317 95.3001 90.6876 96.4308 93.3556 96.3725 99.2161 96.178 104.149 91.9255 105.205 86.1576 105.701 83.4769 104.978 80.7143 103.233 78.6199 101.483 76.6082 98.9302 75.4776 96.2644 75.5339ZM102.638 85.7475 102.638 85.7475C101.816 90.2717 97.9511 93.6109 93.3556 93.7683 91.4511 93.822 89.6214 93.0261 88.3621 91.5965 87.1169 90.079 86.6102 88.0868 86.9793 86.1589 87.8022 81.6346 91.6672 78.2954 96.2631 78.1381 98.1675 78.0845 99.9972 78.8803 101.257 80.31 102.501 81.8279 103.007 83.8197 102.638 85.7475Z" stroke="#FF0000" stroke-width="1.30213" fill="#FF0000" transform="matrix(1 0 0 1.008 2318 2000)"/></g></g></g></g></svg>