<svg width="2015" height="408" xmlns="http://www.w3.org/2000/svg" xmlns:xlink="http://www.w3.org/1999/xlink" xml:space="preserve" overflow="hidden"><g transform="translate(-395 -262)"><rect x="397.5" y="381.5" width="912" height="257" stroke="#000000" stroke-width="4.58333" stroke-miterlimit="8" fill="none"/><text font-family="Calibri,Calibri_MSFontService,sans-serif" font-weight="400" font-size="50" text-decoration="underline" transform="matrix(1 0 0 1 429.59 565)">id</text><text font-family="Calibri,Calibri_MSFontService,sans-serif" font-weight="400" font-size="50" text-decoration="underline" transform="matrix(1 0 0 1 478.861 565)">uniqueidentifier</text><text font-family="Calibri,Calibri_MSFontService,sans-serif" font-weight="400" font-size="50" transform="matrix(1 0 0 1 429.59 626)">description</text><text font-family="Calibri,Calibri_MSFontService,sans-serif" font-weight="400" font-size="50" transform="matrix(1 0 0 1 669.642 626)">nvarchar</text><text font-family="Calibri,Calibri_MSFontService,sans-serif" font-weight="400" font-size="50" transform="matrix(1 0 0 1 850.11 626)">(max)</text><rect x="397.5" y="265.5" width="912" height="116" stroke="#000000" stroke-width="4.58333" stroke-miterlimit="8" fill="none"/><text font-family="Calibri,Calibri_MSFontService,sans-serif" font-weight="700" font-size="50" transform="matrix(1 0 0 1 696.473 340)">orders.Product</text><rect x="1494.5" y="379.5" width="913" height="259" stroke="#000000" stroke-width="4.58333" stroke-miterlimit="8" fill="none"/><text font-family="Calibri,Calibri_MSFontService,sans-serif" font-weight="400" font-size="50" text-decoration="underline" transform="matrix(1 0 0 1 1527.21 443)">hda_validFrom_utc</text><text font-family="Calibri,Calibri_MSFontService,sans-serif" font-weight="400" font-size="50" text-decoration="underline" transform="matrix(1 0 0 1 1933.41 443)">datetime2</text><text font-family="Calibri,Calibri_MSFontService,sans-serif" font-weight="400" font-size="50" transform="matrix(1 0 0 1 1527.21 504)">hda</text><text font-family="Calibri,Calibri_MSFontService,sans-serif" font-weight="400" font-size="50" transform="matrix(1 0 0 1 1603.98 504)">_voided</text><text font-family="Calibri,Calibri_MSFontService,sans-serif" font-weight="400" font-size="50" text-decoration="underline" transform="matrix(1 0 0 1 1779.29 504)">bit</text><text font-family="Calibri,Calibri_MSFontService,sans-serif" font-weight="400" font-size="50" text-decoration="underline" transform="matrix(1 0 0 1 1527.21 564)">id</text><text font-family="Calibri,Calibri_MSFontService,sans-serif" font-weight="400" font-size="50" text-decoration="underline" transform="matrix(1 0 0 1 1576.48 564)">uniqueidentifier</text><text font-family="Calibri,Calibri_MSFontService,sans-serif" font-weight="400" font-size="50" transform="matrix(1 0 0 1 1527.21 625)">description</text><text font-family="Calibri,Calibri_MSFontService,sans-serif" font-weight="400" font-size="50" transform="matrix(1 0 0 1 1767.26 625)">nvarchar</text><text font-family="Calibri,Calibri_MSFontService,sans-serif" font-weight="400" font-size="50" transform="matrix(1 0 0 1 1947.73 625)">(max)</text><rect x="1494.5" y="264.5" width="913" height="115" stroke="#000000" stroke-width="4.58333" stroke-miterlimit="8" fill="none"/><text font-family="Calibri,Calibri_MSFontService,sans-serif" font-weight="700" font-size="50" transform="matrix(1 0 0 1 1742.24 338)">orders_hda.Product</text><path d="M995 607.854 1471.41 607.855 1471.41 610.146 995 610.146ZM1466.83 595.25 1494.33 609 1466.83 622.75Z"/><path d="M995 556.854 1471.41 556.854 1471.41 559.146 995 559.146ZM1466.83 544.25 1494.33 558 1466.83 571.75Z"/><path d="M0.0157147-3.43746 162.14-2.6963 162.108 4.17863-0.0157147 3.43746ZM157.604-13.0296 185.04 0.845932 157.478 14.4701Z" transform="matrix(1 0 0 -1 1309.5 510.346)"/></g></svg>